<?xml version="1.0" standalone="no"?>
<!DOCTYPE svg PUBLIC "-//W3C//DTD SVG 1.1//EN" "http://www.w3.org/Graphics/SVG/1.1/DTD/svg11.dtd" >
<svg xmlns="http://www.w3.org/2000/svg" xmlns:xlink="http://www.w3.org/1999/xlink" version="1.1">
<metadata>
Created by FontForge 20170731 at Tue May 17 14:54:35 2016
 By Aleksey,,,
Copyright (c) 2016 by Fontfabric LLC. All rights reserved.
</metadata>
<defs>
<font id="Phenomena-ExtraBold" horiz-adv-x="0" >
  <font-face 
    font-family="Phenomena ExtraBold"
    font-weight="800"
    font-stretch="normal"
    units-per-em="1000"
    panose-1="0 0 9 0 0 0 0 0 0 0"
    ascent="800"
    descent="-200"
    x-height="500"
    cap-height="700"
    bbox="-531 -278 806 982"
    underline-thickness="50"
    underline-position="-200"
    unicode-range="U+0020-25CA"
  />
<missing-glyph horiz-adv-x="500" 
d="M410 800v-1000h-317v1000h317zM333 733h-165v-33h65v-37h-66v-33h166v33h-66v37h66v33zM267 604h-100v-104h166v34h-66v70zM233 570v-36h-33v36h33zM333 473h-166v-33h66v-37h-66v-33h100v70h66v33zM333 413h-33v-66h-133v-34h166v100zM333 291h-100v-56h34v23h33v-47
h-100v80h-33v-113h166v113zM333 118h-166v-113h166v113zM300 85v-47h-100v47h100zM333 -18h-166v-33h70l-70 -47v-33h166v33h-102l70 47h32v33z" />
    <glyph glyph-name=".notdef" horiz-adv-x="500" 
d="M410 800v-1000h-317v1000h317zM333 733h-165v-33h65v-37h-66v-33h166v33h-66v37h66v33zM267 604h-100v-104h166v34h-66v70zM233 570v-36h-33v36h33zM333 473h-166v-33h66v-37h-66v-33h100v70h66v33zM333 413h-33v-66h-133v-34h166v100zM333 291h-100v-56h34v23h33v-47
h-100v80h-33v-113h166v113zM333 118h-166v-113h166v113zM300 85v-47h-100v47h100zM333 -18h-166v-33h70l-70 -47v-33h166v33h-102l70 47h32v33z" />
    <glyph glyph-name=".null" 
 />
    <glyph glyph-name="nonmarkingreturn" horiz-adv-x="333" 
 />
    <glyph glyph-name="space" unicode=" " horiz-adv-x="207" 
 />
    <glyph glyph-name="exclam" unicode="!" horiz-adv-x="233" 
d="M75 166q-18 0 -18 18v499q0 17 18 17h82q18 0 18 -17v-499q0 -18 -18 -18h-82zM116 -12q-30 0 -48.5 19t-18.5 49t18.5 48.5t48.5 18.5t49 -18.5t19 -48.5t-19 -49t-49 -19z" />
    <glyph glyph-name="quotedbl" unicode="&#x22;" horiz-adv-x="280" 
d="M22 684q2 16 18 16h70q19 0 16 -19l-37 -189q-3 -16 -19 -16h-40q-18 0 -18 18zM152 684q2 16 18 16h70q19 0 16 -19l-37 -189q-3 -16 -19 -16h-40q-18 0 -18 18z" />
    <glyph glyph-name="numbersign" unicode="#" horiz-adv-x="641" 
d="M99 0q-20 0 -15 19l33 148h-85q-21 0 -16 19l12 52q4 15 20 15h89l40 176h-85q-21 0 -16 19l12 52q5 15 19 15h90l39 169q3 16 19 16h71q20 0 15 -19l-37 -166h113l38 169q5 16 20 16h71q19 0 16 -19l-38 -166h85q19 0 16 -19l-12 -52q-5 -15 -20 -15h-89l-40 -176h85
q21 0 16 -19l-12 -52q-5 -15 -20 -15h-89l-34 -151q-5 -16 -19 -16h-72q-19 0 -16 19l34 148h-113l-35 -151q-3 -16 -19 -16h-71zM244 253h113l40 176h-113z" />
    <glyph glyph-name="dollar" unicode="$" horiz-adv-x="411" 
d="M387 163q0 -68 -36 -112.5t-98 -56.5v-62q0 -17 -17 -17h-67q-17 0 -17 17v64q-58 15 -90.5 61.5t-37.5 118.5q-2 18 17 18h90q16 0 18 -17q5 -72 59 -72q25 0 39 15.5t14 42.5q0 38 -24 74t-57.5 67.5t-67.5 65t-58 79.5t-24 98q0 63 32.5 104.5t89.5 54.5v62
q0 17 17 17h67q17 0 17 -17v-63q56 -14 88 -58.5t36 -114.5q1 -18 -17 -18h-89q-18 0 -18 18q-4 64 -50 64q-49 0 -49 -49q0 -33 24 -66.5t58 -64.5t68.5 -65t58.5 -83t24 -105z" />
    <glyph glyph-name="percent" unicode="%" horiz-adv-x="592" 
d="M111 388q-42 0 -68 25t-26 64v144q0 39 26 64.5t68 25.5t68 -25.5t26 -64.5v-144q0 -39 -26 -64t-68 -25zM32 -5q-9 0 -14 6.5t-1 13.5l476 675q11 15 20 15h47q9 0 14.5 -6.5t0.5 -13.5l-476 -675q-9 -15 -20 -15h-47zM111 450q22 0 22 26v146q0 27 -22 27
q-23 0 -23 -27v-146q0 -11 6.5 -18.5t16.5 -7.5zM482 -10q-42 0 -68 25.5t-26 64.5v143q0 39 26 65t68 26t68 -26t26 -65v-143q0 -39 -26 -64.5t-68 -25.5zM482 52q22 0 22 26v147q0 27 -22 27q-10 0 -16.5 -7.5t-6.5 -19.5v-147q0 -11 6.5 -18.5t16.5 -7.5z" />
    <glyph glyph-name="ampersand" unicode="&#x26;" horiz-adv-x="451" 
d="M209 -5q-76 0 -124 49.5t-48 125.5v68q0 85 57 124q-57 51 -57 131v29q0 84 46.5 137t125.5 53q78 0 123.5 -53.5t48.5 -145.5q0 -18 -17 -18h-86q-17 0 -17 17q-3 86 -55 86q-25 0 -37.5 -17.5t-12.5 -45.5v-62q0 -27 14.5 -44t39.5 -17h198q17 0 17 -17v-69
q0 -18 -17 -18h-34v-260q0 -53 -52 -53h-113zM209 110l48 1v197h-47q-51 0 -51 -62v-72q0 -64 50 -64z" />
    <glyph glyph-name="quotesingle" unicode="'" horiz-adv-x="148" 
d="M25 683q2 17 18 17h70q19 0 16 -19l-37 -189q-3 -16 -19 -16h-40q-19 0 -17 18z" />
    <glyph glyph-name="parenleft" unicode="(" horiz-adv-x="263" 
d="M229 -123q-87 1 -136 54t-49 147v542q0 93 49 146t136 54q18 0 18 -17v-77q0 -16 -18 -18q-31 -1 -48.5 -20.5t-17.5 -53.5v-571q0 -34 17.5 -53.5t48.5 -20.5q18 -1 18 -18v-77q0 -17 -18 -17z" />
    <glyph glyph-name="parenright" unicode=")" horiz-adv-x="264" 
d="M35 -123q-18 0 -18 17v77q0 17 18 18q31 1 48.5 20.5t17.5 53.5v571q0 34 -17.5 53.5t-48.5 20.5q-18 2 -18 18v77q0 17 18 17q87 -1 136 -54t49 -146v-542q0 -94 -49 -147t-136 -54z" />
    <glyph glyph-name="asterisk" unicode="*" horiz-adv-x="334" 
d="M102 491l-34 23q-14 11 -4 25l35 48l-57 19q-15 6 -11 22l13 39q6 17 22 11l57 -19v61q0 17 18 17h40q18 0 18 -17v-61l57 19q16 6 22 -11l13 -39q6 -15 -11 -22l-58 -18l35 -49q11 -14 -3 -25l-34 -24q-14 -11 -24 4l-35 48l-35 -48q-10 -15 -24 -3z" />
    <glyph glyph-name="plus" unicode="+" horiz-adv-x="475" 
d="M423 414q17 0 17 -18v-72q0 -17 -17 -17h-131v-136q0 -17 -18 -17h-72q-18 0 -18 17v136h-131q-18 0 -18 17v72q0 18 18 18h131v135q0 17 18 18l71 -1q18 2 18 -17v-135h132z" />
    <glyph glyph-name="comma" unicode="," horiz-adv-x="137" 
d="M21 96q2 16 18 16h70q19 0 16 -19l-37 -189q-3 -16 -19 -16h-40q-18 0 -18 18z" />
    <glyph glyph-name="hyphen" unicode="-" horiz-adv-x="274" 
d="M29 207q-17 0 -17 17v66q0 18 17 18h215q18 0 18 -18v-66q0 -17 -18 -17h-215z" />
    <glyph glyph-name="period" unicode="." horiz-adv-x="158" 
d="M79 -10q-30 0 -49 19t-19 49t19 49t49 19t49 -19t19 -49t-19 -49t-49 -19z" />
    <glyph glyph-name="slash" unicode="/" horiz-adv-x="409" 
d="M285 688q3 12 16 12h75q17 0 12 -17l-263 -672q-4 -11 -17 -11h-75q-17 0 -12 17z" />
    <glyph glyph-name="zero" unicode="0" horiz-adv-x="418" 
d="M209 -12q-75 0 -122.5 51t-47.5 133v356q0 82 47.5 133t122.5 51t122.5 -51t47.5 -133v-356q0 -82 -47.5 -133t-122.5 -51zM159 257l93 308q-11 34 -43 34q-22 0 -36 -15.5t-14 -41.5v-272v-13zM209 102q23 0 36.5 15.5t13.5 41.5v272v15l-93 -309q11 -35 43 -35z" />
    <glyph glyph-name="one" unicode="1" horiz-adv-x="258" 
d="M152 700q57 0 57 -57v-625q0 -18 -17 -18h-85q-18 0 -18 18v571h-62q-17 0 -17 17v77q0 17 17 17h125z" />
    <glyph glyph-name="two" unicode="2" horiz-adv-x="381" 
d="M357 549q0 -46 -15.5 -90t-39 -76.5t-51 -67.5t-51 -64.5t-39 -66t-15.5 -72.5h194q17 0 17 -18v-76q0 -18 -17 -18h-263q-53 0 -53 53v23q0 70 22.5 131.5t54.5 104.5t63.5 81t54 77t22.5 75q0 57 -45 57q-48 0 -51 -70q-1 -18 -18 -18h-76q-17 0 -16 18q3 85 45 132.5
t116 47.5q76 0 118.5 -47t42.5 -116z" />
    <glyph glyph-name="three" unicode="3" horiz-adv-x="406" 
d="M200 -12q-75 0 -122 51.5t-48 136.5q0 18 17 18h85q18 0 18 -18q1 -74 50 -74q23 0 36.5 17t13.5 47v115q0 30 -14.5 46.5t-39.5 16.5h-49q-21 0 -21 21v32q0 24 9 42l87 156h-161q-17 0 -17 18v74q0 17 17 17h273q30 0 30 -27v-8q0 -15 -8 -30l-99 -197l6 -2
q52 -13 79.5 -59.5t27.5 -108.5v-97q0 -84 -47 -135.5t-123 -51.5z" />
    <glyph glyph-name="four" unicode="4" horiz-adv-x="423" 
d="M387 283q18 0 18 -18v-76q0 -18 -18 -18h-35v-153q0 -18 -18 -18h-83q-18 0 -18 18v153h-193q-27 0 -27 26v44q0 15 8 51l100 393q5 15 19 15h84q19 0 16 -19l-100 -398h96l11 219q2 16 17 16h70q18 0 18 -17v-218h35z" />
    <glyph glyph-name="five" unicode="5" horiz-adv-x="408" 
d="M222 481q66 0 109 -51t43 -132v-123q0 -84 -47.5 -135.5t-124.5 -51.5t-123.5 51.5t-47.5 136.5q0 18 18 18h83q18 0 18 -18q1 -74 52 -74q52 0 52 64v141q0 29 -13.5 45.5t-36.5 16.5q-44 0 -48 -54q-2 -20 -20 -20h-71q-27 0 -27 29v328q0 53 52 53h254q17 0 17 -18
v-69q0 -17 -17 -17h-189v-141q31 21 67 21z" />
    <glyph glyph-name="six" unicode="6" horiz-adv-x="413" 
d="M209 -12q-75 0 -122.5 51t-47.5 133v355q0 83 46.5 134t122.5 51q74 0 120.5 -49t47.5 -129q0 -17 -17 -17h-85q-18 0 -18 17q-1 65 -48 65q-23 0 -36 -17t-13 -46v-100q29 23 72 23q63 0 105.5 -49.5t42.5 -123.5v-114q0 -82 -47.5 -133t-122.5 -51zM209 102
q23 0 36.5 16t13.5 46v123q0 27 -13.5 43.5t-36.5 16.5t-36.5 -15.5t-13.5 -44.5v-123q0 -30 13.5 -46t36.5 -16z" />
    <glyph glyph-name="seven" unicode="7" horiz-adv-x="353" 
d="M10 683q0 17 17 17h268q35 0 36 -34q0 -31 -7 -63l-135 -587q-3 -16 -19 -16h-88q-20 0 -15 19l132 565h-172q-17 0 -17 18v81z" />
    <glyph glyph-name="eight" unicode="8" horiz-adv-x="422" 
d="M326 365q60 -44 60 -129v-70q0 -78 -49 -128t-126 -50t-126 50t-49 128v70q0 85 60 129q-51 51 -51 124v48q0 76 46 125.5t120 49.5t120 -49.5t46 -125.5v-48q0 -73 -51 -124zM165 543v-71q0 -26 13 -42t33 -16q21 0 33.5 16t12.5 42v71q0 26 -12 41t-34 15
q-21 0 -33.5 -15t-12.5 -41zM266 161v87q0 27 -15 43t-40 16q-24 0 -39.5 -16t-15.5 -43v-87q0 -27 15.5 -43t39.5 -16q25 0 40 16t15 43z" />
    <glyph glyph-name="nine" unicode="9" horiz-adv-x="414" 
d="M205 712q75 0 122.5 -51t47.5 -133v-355q0 -83 -46.5 -134t-122.5 -51q-74 0 -120.5 49t-47.5 129q0 17 17 17h85q18 0 18 -17q1 -65 48 -65q23 0 36 17t13 46v100q-29 -23 -72 -23q-63 0 -105.5 49.5t-42.5 123.5v114q0 82 47.5 133t122.5 51zM205 598q-23 0 -36.5 -16
t-13.5 -46v-123q0 -27 13.5 -43.5t36.5 -16.5t36.5 15.5t13.5 44.5v123q0 30 -13.5 46t-36.5 16z" />
    <glyph glyph-name="colon" unicode=":" horiz-adv-x="179" 
d="M78 330q-30 0 -49 19t-19 49t19 49t49 19t49 -19t19 -49t-19 -49t-49 -19zM78 -10q-30 0 -49 19t-19 49t19 49t49 19t49 -19t19 -49t-19 -49t-49 -19z" />
    <glyph glyph-name="semicolon" unicode=";" horiz-adv-x="176" 
d="M95 332q-30 0 -49 19t-19 49t19 49t49 19t49 -19t19 -49t-19 -49t-49 -19zM44 96q2 16 18 16h70q19 0 16 -19l-37 -189q-3 -16 -19 -16h-40q-18 0 -18 18z" />
    <glyph glyph-name="less" unicode="&#x3c;" horiz-adv-x="455" 
d="M395 457q0 -10 -9 -14l-180 -85l181 -86q8 -5 8 -15v-71q0 -13 -9.5 -19t-20.5 -1l-253 129q-9 3 -9 14v97q0 10 9 14l253 128q11 5 20.5 -0.5t9.5 -18.5v-72z" />
    <glyph glyph-name="equal" unicode="=" horiz-adv-x="438" 
d="M34 373q-18 0 -18 18v72q0 17 18 17h370q17 0 17 -17v-72q0 -18 -17 -18h-370zM34 194q-18 0 -18 17v73q0 17 18 17h370q17 0 17 -17v-73q0 -17 -17 -17h-370z" />
    <glyph glyph-name="greater" unicode="&#x3e;" horiz-adv-x="338" 
d="M306 420q9 -4 9 -14v-97q0 -11 -9 -14l-253 -129q-11 -5 -20.5 1t-9.5 19v71q0 10 8 15l181 86l-180 85q-9 4 -9 14v72q0 13 9.5 18.5t20.5 0.5z" />
    <glyph glyph-name="question" unicode="?" horiz-adv-x="355" 
d="M127 173q-18 0 -18 17v25q0 52 13 93t31.5 67t36.5 48t31 49t13 59q0 31 -14.5 51t-44.5 20q-56 0 -62 -78q0 -18 -18 -18h-78q-19 0 -17 18q4 85 51 135.5t120 50.5q80 0 129 -47.5t49 -124.5q0 -45 -12.5 -82t-30.5 -62t-36.5 -49.5t-31 -57t-12.5 -71.5v-26
q0 -17 -18 -17h-81zM168 -12q-30 0 -48.5 19t-18.5 49t18.5 48.5t48.5 18.5t49 -18.5t19 -48.5t-19 -49t-49 -19z" />
    <glyph glyph-name="at" unicode="@" horiz-adv-x="663" 
d="M291 -100q-125 0 -191.5 69t-66.5 192v109q0 122 67 195.5t191 73.5h27q77 0 119 -41.5t42 -111.5v-200q0 -51 -39.5 -84t-106.5 -33q-74 0 -114 37t-40 106q1 72 38.5 111.5t103.5 39.5h56v23q0 29 -15.5 45t-43.5 16h-23q-87 0 -126.5 -45t-39.5 -133v-107
q0 -89 39 -129.5t127 -40.5h75q164 0 164 170v282q0 169 -161 169h-210q-17 0 -17 17v57q0 18 17 18h210q121 0 189 -70t68 -191v-283q0 -122 -68 -191.5t-188 -69.5h-83zM332 160q21 0 33 11.5t12 31.5v58h-46q-47 0 -49 -49q0 -24 13.5 -38t36.5 -14z" />
    <glyph glyph-name="A" unicode="A" horiz-adv-x="447" 
d="M62 0q-18 0 -18 18v504q0 85 49.5 137t129.5 52q81 0 130.5 -52t49.5 -137v-504q0 -18 -18 -18h-90q-18 0 -18 18v197h-108v-197q0 -18 -17 -18h-90zM169 330h108v201q0 29 -14.5 46t-39.5 17t-39.5 -17t-14.5 -46v-201z" />
    <glyph glyph-name="B" unicode="B" horiz-adv-x="427" 
d="M337 362q65 -49 65 -135v-42q0 -86 -49 -137.5t-129 -51.5h-127q-23 0 -38 15t-15 38v476q0 84 47.5 135t124.5 51q78 0 126 -51t48 -135v-40q2 -78 -53 -123zM169 536v-127h48q23 0 35.5 16.5t12.5 45.5v65q0 27 -13.5 43t-36.5 16q-22 0 -34 -16t-12 -43zM275 175v56
q0 32 -14.5 49.5t-39.5 17.5h-52v-188h52q26 0 40 17t14 48z" />
    <glyph glyph-name="C" unicode="C" horiz-adv-x="412" 
d="M217 -12q-81 0 -130.5 52t-49.5 136v348q0 85 49.5 136.5t130.5 51.5q77 0 124 -53.5t50 -145.5q0 -18 -17 -18h-91q-17 0 -17 17q-3 82 -52 82q-24 0 -37.5 -16t-13.5 -45v-366q0 -29 13.5 -45t37.5 -16q53 0 56 91q2 17 17 17h91q19 0 17 -19q-3 -97 -50.5 -152
t-127.5 -55z" />
    <glyph glyph-name="D" unicode="D" horiz-adv-x="442" 
d="M102 -4q-53 0 -53 52v604q0 52 53 52h123q81 0 130.5 -52t49.5 -136v-332q0 -84 -49.5 -136t-130.5 -52h-123zM174 111h44q61 0 61 69v340q0 69 -61 69h-44v-478z" />
    <glyph glyph-name="E" unicode="E" horiz-adv-x="362" 
d="M217 -4q-81 0 -130.5 52t-49.5 136v333q0 83 49.5 135t130.5 52h105q18 0 18 -17v-80q0 -18 -18 -18h-90q-32 0 -50.5 -20.5t-18.5 -55.5v-104h134q18 0 18 -18v-76q0 -18 -18 -18h-134v-110q0 -35 18.5 -55.5t50.5 -20.5h90q18 0 18 -17v-81q0 -17 -18 -17h-105z" />
    <glyph glyph-name="F" unicode="F" horiz-adv-x="345" 
d="M62 0q-18 0 -18 18v494q0 84 49.5 136t130.5 52h89q17 0 17 -17v-81q0 -17 -17 -17h-74q-32 0 -50.5 -20.5t-18.5 -55.5v-101h124q17 0 17 -17v-80q0 -18 -17 -18h-124v-275q0 -18 -17 -18h-91z" />
    <glyph glyph-name="G" unicode="G" horiz-adv-x="428" 
d="M218 -12q-81 0 -131 52t-50 137v347q0 84 49 136t129 52q77 0 127 -53.5t52 -141.5q0 -18 -17 -18h-90q-17 0 -19 17q-3 79 -53 79q-25 0 -38.5 -16.5t-13.5 -45.5v-365q0 -29 16 -46t42 -17q25 0 40.5 16.5t15.5 43.5v113h-40q-18 0 -18 18v72q0 18 18 18h112
q52 0 52 -53v-159q0 -83 -50.5 -134.5t-132.5 -51.5z" />
    <glyph glyph-name="H" unicode="H" horiz-adv-x="448" 
d="M275 683q0 17 17 17h90q17 0 17 -17v-665q0 -18 -17 -18h-90q-17 0 -17 18v278h-101v-278q0 -18 -18 -18h-89q-18 0 -18 18v665q0 17 18 17h89q18 0 18 -17v-272h101v272z" />
    <glyph glyph-name="I" unicode="I" horiz-adv-x="223" 
d="M49 683q0 17 18 17h89q18 0 18 -17v-665q0 -18 -18 -18h-89q-18 0 -18 18v665z" />
    <glyph glyph-name="J" unicode="J" horiz-adv-x="410" 
d="M187 -12q-81 0 -128 56t-49 152q0 18 17 18h91q15 0 17 -17q3 -92 54 -92q52 0 52 69v509q0 18 17 18h90q18 0 18 -18v-498q0 -92 -46 -144.5t-133 -52.5z" />
    <glyph glyph-name="K" unicode="K" horiz-adv-x="447" 
d="M67 0q-18 0 -18 18v665q0 17 18 17h89q18 0 18 -17v-277h53l57 279q3 15 20 15h89q21 0 16 -19l-74 -312q69 -43 69 -152v-199q0 -18 -18 -18h-91q-17 0 -17 18v203q0 70 -62 70h-42v-273q0 -18 -18 -18h-89z" />
    <glyph glyph-name="L" unicode="L" horiz-adv-x="357" 
d="M226 111h103q18 0 18 -17v-81q0 -17 -18 -17h-114q-79 0 -125 50.5t-46 130.5v506q0 17 18 17h91q18 0 18 -17v-500q0 -34 15.5 -53t39.5 -19z" />
    <glyph glyph-name="M" unicode="M" horiz-adv-x="653" 
d="M436 712q79 0 126 -52.5t47 -138.5v-503q0 -18 -18 -18h-89q-17 0 -17 18v512q0 64 -49 64q-48 0 -48 -64v-512q0 -18 -18 -18h-88q-17 0 -17 18v512q0 30 -13 47t-36 17q-48 0 -48 -64v-512q0 -18 -18 -18h-88q-18 0 -18 18v503q0 86 47 138.5t125 52.5q63 0 110 -44
q49 44 110 44z" />
    <glyph glyph-name="N" unicode="N" horiz-adv-x="447" 
d="M62 0q-18 0 -18 18v505q0 84 49 136.5t130 52.5t130.5 -52.5t49.5 -136.5v-505q0 -18 -18 -18h-90q-18 0 -18 18v514q0 29 -14.5 46t-39.5 17t-39.5 -17t-14.5 -46v-514q0 -18 -17 -18h-90z" />
    <glyph glyph-name="O" unicode="O" horiz-adv-x="441" 
d="M221 -11q-82 0 -133 52.5t-51 138.5v340q0 86 51 138.5t133 52.5t132.5 -52t50.5 -136v-346q0 -84 -50.5 -136t-132.5 -52zM221 106q26 0 41.5 16.5t15.5 45.5v364q0 29 -15.5 46t-41.5 17t-42 -17.5t-16 -48.5v-358q0 -30 15.5 -47.5t42.5 -17.5z" />
    <glyph glyph-name="P" unicode="P" horiz-adv-x="422" 
d="M62 0q-18 0 -18 18v504q0 85 48.5 137.5t127.5 52.5q82 0 132 -52.5t50 -137.5v-95q0 -83 -49 -134t-130 -51h-54v-224q0 -18 -17 -18h-90zM169 357h46q61 0 61 66v108q0 29 -14.5 46t-39.5 17q-24 0 -38.5 -17t-14.5 -46v-174z" />
    <glyph glyph-name="Q" unicode="Q" horiz-adv-x="446" 
d="M416 41q12 -13 0 -25l-49 -47q-13 -13 -24 0l-38 38q-37 -18 -85 -18q-82 0 -132.5 52t-50.5 136v346q0 84 50.5 136t132.5 52t133 -52t51 -136v-346q0 -55 -24 -100zM163 168q0 -29 15.5 -45.5t41.5 -16.5t42 17t16 45v364q0 29 -16 46t-42 17t-41.5 -17t-15.5 -46v-364
z" />
    <glyph glyph-name="R" unicode="R" horiz-adv-x="450" 
d="M62 0q-18 0 -18 18v504q0 85 49.5 137.5t128.5 52.5q82 0 132 -52.5t50 -137.5v-87q0 -106 -74 -157l97 -260q2 -8 -3 -13t-14 -5h-97q-11 0 -18 17l-78 229h-47v-228q0 -18 -17 -18h-91zM170 361h46q62 0 62 70v100q0 29 -14.5 46t-40.5 17q-24 0 -38.5 -17t-14.5 -46
v-170z" />
    <glyph glyph-name="S" unicode="S" horiz-adv-x="411" 
d="M206 -12q-82 0 -130.5 55.5t-51.5 152.5q0 18 17 18h90q16 0 18 -17q3 -92 59 -92q53 0 53 58q0 38 -24 74t-57.5 67.5t-67.5 65t-58 79.5t-24 98q0 76 47 120.5t124 44.5q79 0 126 -53t50 -146q0 -18 -17 -18h-89q-18 0 -18 18q-3 83 -50 83q-49 0 -49 -49
q0 -33 24 -66.5t58 -64.5t68.5 -65t58.5 -83t24 -105q0 -80 -49.5 -127.5t-131.5 -47.5z" />
    <glyph glyph-name="T" unicode="T" horiz-adv-x="370" 
d="M342 700q18 0 18 -17v-81q0 -17 -18 -17h-95v-567q0 -18 -17 -18h-90q-17 0 -17 18v567h-96q-17 0 -17 17v81q0 17 17 17h315z" />
    <glyph glyph-name="U" unicode="U" horiz-adv-x="447" 
d="M62 700h90q17 0 17 -18v-514q0 -29 14.5 -46t39.5 -17t39.5 17t14.5 46v514q0 18 18 18h90q18 0 18 -18v-505q0 -84 -49.5 -136.5t-130.5 -52.5t-130 52.5t-49 136.5v505q0 18 18 18z" />
    <glyph glyph-name="V" unicode="V" horiz-adv-x="413" 
d="M393 700q19 0 16 -18l-109 -638q-8 -49 -56 -49h-75q-48 0 -56 49l-109 638q-3 18 15 18h94q17 0 18 -16l76 -532l75 532q1 16 18 16h93z" />
    <glyph glyph-name="W" unicode="W" horiz-adv-x="653" 
d="M591 700q18 0 18 -17v-504q0 -86 -47 -138.5t-126 -52.5q-63 0 -110 45q-47 -45 -110 -45q-78 0 -125 52.5t-47 138.5v504q0 17 18 17h88q18 0 18 -17v-513q0 -64 48 -64q23 0 36 17t13 47v513q0 17 17 17h88q18 0 18 -17v-513q0 -30 13 -47t35 -17q49 0 49 64v513
q0 17 17 17h89z" />
    <glyph glyph-name="X" unicode="X" horiz-adv-x="429" 
d="M392 484q0 -81 -57 -130q57 -49 57 -129v-207q0 -18 -18 -18h-90q-18 0 -18 18v216q0 28 -14 45t-38 17q-23 0 -37.5 -17t-14.5 -45v-216q0 -18 -17 -18h-90q-18 0 -18 18v207q0 80 57 129q-57 49 -57 130v199q0 17 18 17h90q17 0 17 -17v-208q0 -28 14.5 -45t37.5 -17
q24 0 38 17t14 45v208q0 17 18 17h90q18 0 18 -17v-199z" />
    <glyph glyph-name="Y" unicode="Y" horiz-adv-x="419" 
d="M165 0q-18 0 -18 18v212q-53 17 -84 64.5t-31 112.5v276q0 17 18 17h89q18 0 18 -17v-285q0 -28 14 -44.5t38 -16.5q25 0 39 16.5t14 44.5v285q0 17 18 17h89q18 0 18 -17v-276q0 -65 -31 -112.5t-84 -64.5v-212q0 -18 -18 -18h-89z" />
    <glyph glyph-name="Z" unicode="Z" horiz-adv-x="405" 
d="M156 115h208q17 0 17 -17v-80q0 -18 -17 -18h-280q-59 0 -59 59v17q0 44 14 73l206 436h-181q-17 0 -17 17v81q0 17 17 17h252q59 0 60 -55v-19q0 -49 -12 -73z" />
    <glyph glyph-name="bracketleft" unicode="[" horiz-adv-x="273" 
d="M253 726q0 -17 -17 -17h-73v-718h73q17 0 17 -17v-77q0 -17 -17 -17h-139q-53 0 -53 52v836q0 52 53 52h139q17 0 17 -17v-77z" />
    <glyph glyph-name="backslash" unicode="\" horiz-adv-x="409" 
d="M105 700q15 0 20 -14l261 -666q8 -20 -14 -20h-68q-15 0 -20 14l-261 666q-7 20 14 20h68z" />
    <glyph glyph-name="bracketright" unicode="]" horiz-adv-x="272" 
d="M19 726v77q0 17 17 17h139q53 0 53 -52v-836q0 -52 -53 -52h-139q-17 0 -17 17v77q0 17 17 17h73v718h-73q-17 0 -17 17z" />
    <glyph glyph-name="asciicircum" unicode="^" horiz-adv-x="345" 
d="M340 486q10 -21 -12 -21h-73q-14 0 -21 12l-60 124l-61 -124q-5 -12 -20 -12h-74q-22 0 -12 21l108 202q6 12 21 12h76q14 0 21 -12z" />
    <glyph glyph-name="underscore" unicode="_" horiz-adv-x="363" 
d="M6 -29q0 18 18 18h315q17 0 17 -18v-78q0 -17 -17 -17h-315q-18 0 -18 17v78z" />
    <glyph glyph-name="a" unicode="a" horiz-adv-x="390" 
d="M197 -11q-77 0 -124 46t-47 121q0 66 45.5 108.5t117.5 42.5h50v43q0 23 -12 36.5t-33 13.5q-42 0 -44 -44q-1 -13 -18 -13h-82q-17 0 -17 18q6 68 50 109.5t112 41.5q73 0 117.5 -47t44.5 -122v-192q0 -74 -42.5 -118t-117.5 -44zM195 101q44 0 44 49v54h-43
q-24 0 -37.5 -13t-13.5 -35q0 -26 13 -40.5t37 -14.5z" />
    <glyph glyph-name="b" unicode="b" horiz-adv-x="403" 
d="M225 512q66 0 105.5 -46.5t39.5 -122.5v-185q0 -76 -45.5 -123t-120.5 -47q-74 0 -119.5 47t-45.5 123v525q0 17 17 17h83q17 0 17 -17v-194q26 23 69 23zM252 151v198q0 23 -13 37t-35 14t-35 -14t-13 -37v-198q0 -23 13 -37t35 -14t35 14t13 37z" />
    <glyph glyph-name="c" unicode="c" horiz-adv-x="387" 
d="M199 -12q-74 0 -120 47t-46 123v185q0 75 45.5 122t118.5 47q70 0 114.5 -43t49.5 -116q1 -18 -17 -18h-85q-15 0 -17 18q-6 47 -45 47q-21 0 -33 -14t-12 -37v-198q0 -23 12 -37t34 -14q41 0 47 52q1 18 17 18h85q19 0 17 -20q-5 -74 -50 -118t-115 -44z" />
    <glyph glyph-name="d" unicode="d" horiz-adv-x="403" 
d="M347 700q17 0 17 -17v-525q0 -76 -45.5 -123t-119.5 -47q-75 0 -120.5 47t-45.5 123v185q0 76 39.5 122.5t105.5 46.5q43 0 69 -23v194q0 17 17 17h83zM247 151v198q0 23 -13 37t-35 14t-35 -14t-13 -37v-198q0 -23 13 -37t35 -14t35 14t13 37z" />
    <glyph glyph-name="e" unicode="e" horiz-adv-x="391" 
d="M196 -11q-73 0 -118 46.5t-45 122.5v189q2 74 47 119t119 45q72 2 119 -44t47 -119q0 -69 -45.5 -112t-118.5 -43h-49v-42q0 -24 12 -37.5t33 -13.5q39 0 45 42q3 17 18 17h84q17 0 17 -18q-5 -68 -50 -110t-115 -42zM152 297h49q22 0 34 12.5t12 35.5q0 55 -48 55
q-47 0 -47 -51v-52z" />
    <glyph glyph-name="f" unicode="f" horiz-adv-x="312" 
d="M278 500q17 0 17 -17v-72q0 -17 -17 -17h-81v-376q0 -18 -18 -18h-83q-17 0 -17 18v376h-52q-17 0 -17 17v72q0 17 17 17h52v8q0 93 49 145t135 52q17 0 17 -18v-76q0 -17 -17 -17q-66 0 -66 -74v-20h81z" />
    <glyph glyph-name="g" unicode="g" horiz-adv-x="405" 
d="M200 512q74 0 120 -47t46 -122v-386q0 -79 -44.5 -124t-121.5 -45q-73 0 -117 44.5t-49 121.5q-2 18 17 18h84q15 0 18 -18q5 -54 47 -54q23 0 35.5 13.5t12.5 37.5v87q-27 -21 -63 -21q-65 0 -108.5 47t-43.5 122v157q0 75 46 122t121 47zM200 128q22 0 35 14t13 37v170
q0 23 -13 37t-35 14t-35 -14t-13 -37v-170q0 -23 13 -37t35 -14z" />
    <glyph glyph-name="h" unicode="h" horiz-adv-x="411" 
d="M62 0q-18 0 -18 18v665q0 17 18 17h82q18 0 18 -17v-191q28 20 59 20q68 0 110 -47t42 -123v-324q0 -18 -18 -18h-83q-18 0 -18 18v331q0 23 -12 37t-34 14q-21 0 -33.5 -14t-12.5 -37v-331q0 -18 -18 -18h-82z" />
    <glyph glyph-name="i" unicode="i" horiz-adv-x="206" 
d="M103 560q-29 0 -47.5 19t-18.5 47q0 29 18.5 47.5t47.5 18.5q28 0 47 -19t19 -47q0 -27 -19.5 -46.5t-46.5 -19.5zM62 0q-18 0 -18 18v465q0 17 18 17h82q18 0 18 -17v-465q0 -18 -18 -18h-82z" />
    <glyph glyph-name="j" unicode="j" horiz-adv-x="270" 
d="M160 560q-29 0 -47.5 19t-18.5 47q0 29 18.5 47.5t47.5 18.5q28 0 47 -19t19 -47q0 -27 -19.5 -46.5t-46.5 -19.5zM18 -205q-18 0 -18 17v77q0 17 18 17h14q71 2 71 74v503q0 17 18 17h83q17 0 17 -17v-488q0 -94 -49 -147t-136 -53h-18z" />
    <glyph glyph-name="k" unicode="k" horiz-adv-x="400" 
d="M296 283q72 -43 72 -139v-126q0 -18 -17 -18h-84q-17 0 -17 18v133q0 22 -13 35.5t-35 13.5h-40v-182q0 -18 -18 -18h-82q-18 0 -18 18v665q0 17 18 17h82q18 0 18 -17v-372h26l68 175q4 14 20 14h85q10 0 14.5 -5.5t0.5 -14.5z" />
    <glyph glyph-name="l" unicode="l" horiz-adv-x="206" 
d="M62 0q-18 0 -18 18v665q0 17 18 17h82q18 0 18 -17v-665q0 -18 -18 -18h-82z" />
    <glyph glyph-name="m" unicode="m" horiz-adv-x="596" 
d="M399 512q71 0 114.5 -47t43.5 -122v-325q0 -18 -17 -18h-81q-18 0 -18 18v331q0 51 -42 51q-43 0 -43 -51v-331q0 -18 -17 -18h-82q-17 0 -17 18v331q0 51 -43 51q-42 0 -42 -51v-331q0 -18 -18 -18h-81q-17 0 -17 18v325q0 75 43.5 122t114.5 47q60 0 101 -44
q41 44 101 44z" />
    <glyph glyph-name="n" unicode="n" horiz-adv-x="404" 
d="M56 0q-17 0 -17 18v325q0 75 45 122t118 47t118 -47t45 -122v-325q0 -18 -17 -18h-83q-18 0 -18 18v331q0 23 -12 37.5t-33 14.5t-33.5 -14t-12.5 -38v-331q0 -18 -17 -18h-83z" />
    <glyph glyph-name="o" unicode="o" horiz-adv-x="400" 
d="M200 -12q-75 0 -121 47t-46 123v185q0 75 46 122t121 47t121 -47t46 -122v-185q0 -76 -46 -123t-121 -47zM200 100q22 0 35 14t13 37v198q0 24 -13 38t-35 14t-35 -14t-13 -38v-198q0 -23 13 -37t35 -14z" />
    <glyph glyph-name="p" unicode="p" horiz-adv-x="405" 
d="M205 512q75 0 121 -47t46 -122v-185q0 -74 -43 -122t-104 -48q-37 0 -68 20v-191q0 -17 -17 -17h-84q-17 0 -17 17v526q0 75 46 122t120 47zM253 151v198q0 23 -13 37t-35 14t-35 -14t-13 -37v-198q0 -23 13 -37t35 -14t35 14t13 37z" />
    <glyph glyph-name="q" unicode="q" horiz-adv-x="405" 
d="M200 512q74 0 120 -47t46 -122v-526q0 -17 -17 -17h-84q-17 0 -17 17v191q-31 -20 -68 -20q-61 0 -104 48t-43 122v185q0 75 46 122t121 47zM200 100q22 0 35 14t13 37v198q0 23 -13 37t-35 14t-35 -14t-13 -37v-198q0 -23 13 -37t35 -14z" />
    <glyph glyph-name="r" unicode="r" horiz-adv-x="280" 
d="M56 0q-17 0 -17 18v285q0 93 50 145.5t135 52.5h29q18 0 18 -18v-76q0 -17 -18 -17h-25q-33 0 -52.5 -19.5t-19.5 -53.5v-299q0 -18 -17 -18h-83z" />
    <glyph glyph-name="s" unicode="s" horiz-adv-x="390" 
d="M200 -12q-80 0 -126 48t-48 113q0 21 17 21h83q15 0 19 -16q7 -54 52 -54q23 0 35.5 12t12.5 31q0 21 -22 37t-53.5 29.5t-62.5 30.5t-53 49.5t-22 76.5q0 65 45 105.5t115 40.5q80 0 120.5 -45t42.5 -102q0 -18 -17 -18h-83q-15 0 -18 17q-7 37 -44 37q-19 0 -31 -10.5
t-12 -27.5q0 -20 22 -35.5t53.5 -29t63 -31t53.5 -50t22 -78.5q0 -66 -45.5 -108.5t-118.5 -42.5z" />
    <glyph glyph-name="t" unicode="t" horiz-adv-x="306" 
d="M272 107q17 0 17 -17v-77q0 -17 -17 -17h-19q-82 0 -129 50.5t-47 136.5v211h-50q-17 0 -17 17v72q0 17 17 17h50v129q0 17 17 17h83q17 0 17 -17v-129h67q17 0 17 -17v-72q0 -17 -17 -17h-67v-213q0 -74 68 -74h10z" />
    <glyph glyph-name="u" unicode="u" horiz-adv-x="404" 
d="M56 500h83q17 0 17 -18v-331q0 -24 12.5 -38t33.5 -14t33 14.5t12 37.5v331q0 18 18 18h83q17 0 17 -18v-325q0 -75 -45 -122t-118 -47t-118 47t-45 122v325q0 18 17 18z" />
    <glyph glyph-name="v" unicode="v" horiz-adv-x="395" 
d="M267 484q3 16 20 16h87q20 0 15 -19l-104 -439q-11 -47 -57 -47h-59q-47 0 -58 47l-105 439q-3 19 15 19h89q16 0 19 -16l68 -376z" />
    <glyph glyph-name="w" unicode="w" horiz-adv-x="596" 
d="M399 -12q-60 0 -101 44q-41 -44 -101 -44q-71 0 -114.5 47t-43.5 122v325q0 18 17 18h81q18 0 18 -18v-331q0 -51 42 -51q43 0 43 51v331q0 18 17 18h82q17 0 17 -18v-331q0 -51 43 -51q42 0 42 51v331q0 18 18 18h81q17 0 17 -18v-325q0 -75 -43.5 -122t-114.5 -47z" />
    <glyph glyph-name="x" unicode="x" horiz-adv-x="394" 
d="M51 0q-18 0 -18 18v117q0 69 58 113q-58 44 -58 113v122q0 17 18 17h83q18 0 18 -17v-128q0 -23 12 -37t33 -14q22 0 34 14t12 37v128q0 17 17 17h84q17 0 17 -17v-122q0 -70 -57 -113q57 -43 57 -113v-117q0 -18 -17 -18h-84q-17 0 -17 18v123q0 23 -12 37t-34 14
q-21 0 -33 -14t-12 -37v-123q0 -18 -18 -18h-83z" />
    <glyph glyph-name="y" unicode="y" horiz-adv-x="411" 
d="M349 500q18 0 18 -17v-526q0 -79 -44 -124t-120 -45q-72 0 -115.5 44.5t-48.5 121.5q0 18 17 18h84q15 0 18 -18q5 -54 45 -54q22 0 34 13.5t12 37.5v90q-25 -23 -61 -23q-64 0 -106.5 47t-42.5 122v296q0 17 17 17h83q17 0 17 -17v-303q0 -23 12.5 -37t34.5 -14t34 14
t12 37v303q0 17 17 17h83z" />
    <glyph glyph-name="z" unicode="z" horiz-adv-x="351" 
d="M163 111h146q18 0 18 -18v-75q0 -18 -18 -18h-240q-45 0 -45 47v21q0 32 13 54l154 268h-139q-18 0 -18 17v76q0 17 18 17h231q44 0 44 -44v-27q0 -34 -12 -54z" />
    <glyph glyph-name="braceleft" unicode="{" horiz-adv-x="303" 
d="M204 495q0 -90 -60 -144q60 -52 60 -143v-142q0 -34 18 -53.5t48 -20.5q18 -2 18 -18v-77q0 -17 -20 -17q-84 1 -133.5 54t-49.5 146v142q0 32 -15 51t-40 21q-17 2 -17 18v78q0 18 17 18q25 2 40 21t15 51v140q0 93 49.5 146t133.5 54q20 0 20 -17v-77q0 -16 -18 -18
q-30 -1 -48 -20.5t-18 -52.5v-140z" />
    <glyph glyph-name="bar" unicode="|" horiz-adv-x="208" 
d="M44 783q0 17 18 17h85q17 0 17 -17v-835q0 -17 -17 -17h-85q-18 0 -18 17v835z" />
    <glyph glyph-name="braceright" unicode="}" horiz-adv-x="303" 
d="M273 408q17 0 17 -18v-78q0 -16 -17 -18q-25 -2 -40 -21t-15 -51v-142q0 -93 -49.5 -146t-133.5 -54q-20 0 -20 17v77q0 16 18 18q30 1 48 20.5t18 53.5v142q0 91 60 143q-60 54 -60 144v140q0 33 -18 52.5t-48 20.5q-18 2 -18 18v77q0 17 20 17q84 -1 133.5 -54
t49.5 -146v-140q0 -32 15 -51t40 -21z" />
    <glyph glyph-name="asciitilde" unicode="~" horiz-adv-x="459" 
d="M374 420q13 14 23 0l35 -55q10 -12 -1 -24q-42 -52 -105 -52q-33 0 -97 22t-87 22q-33 0 -58 -27q-12 -15 -23 0l-34 56q-9 12 1 24q42 51 104 51q33 0 97.5 -21.5t86.5 -21.5q34 0 58 26z" />
    <glyph glyph-name="exclamdown" unicode="&#xa1;" horiz-adv-x="223" 
d="M111 512q30 0 49 -19t19 -49t-19 -48.5t-49 -18.5t-48.5 18.5t-18.5 48.5t18.5 49t48.5 19zM70 334h82q18 0 18 -18v-499q0 -17 -18 -17h-82q-18 0 -18 17v499q0 18 18 18z" />
    <glyph glyph-name="cent" unicode="&#xa2;" horiz-adv-x="387" 
d="M170 -85q-17 0 -17 17v62q-56 14 -88 57.5t-32 106.5v185q0 63 32 106.5t88 56.5v62q0 17 17 17h55q18 0 18 -17v-62q53 -12 85 -52t36 -101q2 -18 -17 -18h-85q-16 0 -17 18q-6 47 -47 47q-22 0 -34 -14t-12 -37v-198q0 -23 12 -37t34 -14q41 0 47 48q2 17 17 17h85
q19 0 17 -20q-4 -60 -36.5 -100t-84.5 -52v-61q0 -17 -18 -17h-55z" />
    <glyph glyph-name="sterling" unicode="&#xa3;" horiz-adv-x="457" 
d="M422 112q18 0 18 -18v-76q0 -18 -18 -18h-392q-18 0 -18 18v75q0 18 20 20q39 3 39 51v128h-41q-17 0 -17 17v68q0 18 17 18h41v129q0 84 48.5 136t128.5 52q77 0 125 -51.5t53 -136.5q2 -18 -17 -18h-91q-16 0 -17 18q-6 70 -56 70q-24 0 -38 -16.5t-14 -44.5v-138h140
q18 0 18 -18v-68q0 -17 -18 -17h-140v-124q0 -29 -12 -56h241z" />
    <glyph glyph-name="currency" unicode="&#xa4;" horiz-adv-x="457" 
d="M229 84q-59 0 -99 29l-35 -42q-11 -13 -25 -2l-40 35q-13 10 -2 24l46 54q-13 32 -13 72v88q0 41 13 71l-46 55q-11 12 2 24l40 34q14 12 25 -2l35 -41q42 29 99 29q55 0 99 -29l34 41q11 14 25 2l40 -34q13 -12 2 -24l-46 -54q14 -34 14 -72v-88q0 -37 -13 -71l45 -55
q11 -14 -2 -24l-40 -35q-14 -11 -25 2l-35 42q-40 -29 -98 -29zM229 195q23 0 36 14t13 38v102q0 24 -13 38t-36 14t-36.5 -14t-13.5 -38v-102q0 -24 13.5 -38t36.5 -14z" />
    <glyph glyph-name="yen" unicode="&#xa5;" horiz-adv-x="522" 
d="M467 222h-144v-53h144q18 0 18 -18v-59q0 -18 -18 -18h-144v-56q0 -18 -17 -18h-90q-17 0 -17 18v56h-144q-18 0 -18 18v59q0 18 18 18h144v53h-144q-18 0 -18 18v59q0 18 18 18h50q-21 37 -21 87v279q0 17 17 17h90q17 0 17 -17v-288q0 -25 15 -41t38 -16t37.5 16
t14.5 41v288q0 17 18 17h89q18 0 18 -17v-279q0 -47 -21 -87h50q18 0 18 -18v-59q0 -18 -18 -18z" />
    <glyph glyph-name="brokenbar" unicode="&#xa6;" horiz-adv-x="188" 
d="M52 495q-18 0 -18 17v271q0 17 18 17h85q17 0 17 -17v-271q0 -17 -17 -17h-85zM52 -69q-18 0 -18 17v270q0 18 18 18h85q17 0 17 -18v-270q0 -17 -17 -17h-85z" />
    <glyph glyph-name="section" unicode="&#xa7;" horiz-adv-x="387" 
d="M309 247q49 -39 49 -109q0 -66 -44.5 -106.5t-115.5 -40.5q-78 0 -123 47t-47 109q0 20 17 20h84q15 0 19 -16q7 -48 48 -48q21 0 31.5 10.5t10.5 26.5q0 21 -22 38t-53.5 30.5t-63 31t-53.5 48t-22 72.5q0 66 56 98q-52 42 -52 109q0 64 44.5 103.5t115.5 39.5
q78 0 118.5 -44t42.5 -97q0 -18 -17 -18h-83q-15 0 -18 17q-7 31 -43 31q-18 0 -29.5 -9.5t-11.5 -25.5q0 -20 22 -35.5t54 -29t64 -30.5t54 -48t22 -73q0 -68 -54 -101zM209 302q15 4 25 17t10 28q0 32 -59 53q-20 -2 -31 -13.5t-11 -27.5q0 -36 66 -57z" />
    <glyph glyph-name="copyright" unicode="&#xa9;" horiz-adv-x="630" 
d="M259 -5q-99 0 -159.5 58.5t-60.5 153.5v285q0 96 60.5 154.5t159.5 58.5h113q99 0 159.5 -58.5t60.5 -154.5v-285q0 -95 -60.5 -153.5t-159.5 -58.5h-113zM259 67h113q67 0 105 37.5t38 102.5v285q0 66 -38 103.5t-105 37.5h-113q-67 0 -105 -37.5t-38 -103.5v-285
q0 -65 38 -102.5t105 -37.5zM314 138q-59 0 -95 37t-36 98v155q0 61 35.5 98t93.5 37q56 0 91.5 -34t39.5 -92q2 -16 -14 -16h-63q-13 0 -16 15q-4 41 -38 41q-17 0 -27.5 -11.5t-10.5 -30.5v-170q0 -17 10.5 -28.5t27.5 -11.5q33 0 39 42q2 14 15 14h65q16 0 14 -16
q-4 -59 -39.5 -93t-91.5 -34z" />
    <glyph glyph-name="guillemotleft" unicode="&#xab;" horiz-adv-x="461" 
d="M140 83q-14 0 -21 11l-95 126q-26 38 0 74l95 127q6 10 21 10h84q11 0 14 -6.5t-4 -14.5l-117 -153l117 -153q7 -8 4 -14.5t-14 -6.5h-84zM331 83q-14 0 -21 11l-95 126q-26 38 0 74l95 127q6 10 21 10h84q11 0 14 -6.5t-4 -14.5l-117 -153l117 -153q7 -8 4 -14.5
t-14 -6.5h-84z" />
    <glyph glyph-name="logicalnot" unicode="&#xac;" horiz-adv-x="475" 
d="M423 414q17 0 17 -18v-149q0 -18 -17 -18h-71q-17 0 -17 18v60h-282q-18 0 -18 17v72q0 18 18 18h370z" />
    <glyph glyph-name="registered" unicode="&#xae;" horiz-adv-x="420" 
d="M150 258q-51 0 -83.5 32.5t-32.5 84.5v213q0 51 32.5 84t83.5 33h120q51 0 84 -33t33 -84v-213q0 -52 -33 -84.5t-84 -32.5h-120zM150 296h120q34 0 54 21t20 57v213q0 36 -20 57t-54 21h-120q-34 0 -54 -21t-20 -57v-213q0 -36 20 -57t54 -21zM141 341q-7 0 -7 7v206
q0 36 20.5 57.5t54.5 21.5q35 0 56 -21.5t21 -57.5v-33q0 -44 -31 -65l40 -108q3 -7 -7 -7h-42q-5 0 -7 7l-32 95h-19v-95q0 -7 -8 -7h-39zM188 490h19q25 0 25 28v38q0 25 -22 25t-22 -25v-66z" />
    <glyph glyph-name="degree" unicode="&#xb0;" horiz-adv-x="294" 
d="M13 575q0 62 36.5 99.5t97.5 37.5t97.5 -37.5t36.5 -99.5t-36.5 -100t-97.5 -38t-97.5 38t-36.5 100zM92 575q0 -28 15 -44.5t40 -16.5t39.5 16.5t14.5 44.5q0 27 -14.5 43.5t-39.5 16.5t-40 -16.5t-15 -43.5z" />
    <glyph glyph-name="plusminus" unicode="&#xb1;" horiz-adv-x="475" 
d="M423 459q17 0 17 -17v-72q0 -18 -17 -18h-131v-120q0 -15 -18 -17h-72q-18 0 -18 17v120h-131q-18 0 -18 18v72q0 17 18 17h131v120q0 17 18 18l71 -1q9 1 13.5 -4t4.5 -14v-119h132zM423 179q17 0 17 -17v-72q0 -18 -17 -18h-370q-18 0 -18 18v72q0 17 18 17h370z" />
    <glyph glyph-name="paragraph" unicode="&#xb6;" horiz-adv-x="526" 
d="M424 704q53 0 53 -53v-733q0 -18 -18 -18h-83q-18 0 -18 18v675h-67v-675q0 -18 -17 -18h-84q-17 0 -17 18v461q-74 0 -119.5 44t-45.5 118q0 75 45.5 119t119.5 44h251z" />
    <glyph glyph-name="periodcentered" unicode="&#xb7;" horiz-adv-x="179" 
d="M78 184q-30 0 -49 19t-19 49t19 49t49 19t49 -19t19 -49t-19 -49t-49 -19z" />
    <glyph glyph-name="guillemotright" unicode="&#xbb;" horiz-adv-x="461" 
d="M130 83h-84q-11 0 -14 6.5t4 14.5l117 153l-117 153q-7 8 -4 14.5t14 6.5h84q15 0 21 -10l95 -127q26 -36 0 -74l-95 -126q-7 -11 -21 -11zM321 83h-84q-11 0 -14 6.5t4 14.5l117 153l-117 153q-7 8 -4 14.5t14 6.5h84q15 0 21 -10l95 -127q26 -36 0 -74l-95 -126
q-7 -11 -21 -11z" />
    <glyph glyph-name="questiondown" unicode="&#xbf;" horiz-adv-x="355" 
d="M187 512q30 0 48.5 -19t18.5 -49t-18.5 -48.5t-48.5 -18.5t-49 18.5t-19 48.5t19 49t49 19zM228 327q18 0 18 -17v-25q0 -52 -13 -93t-31 -67t-36.5 -48t-31.5 -49t-13 -59q0 -31 14.5 -51t44.5 -20q56 0 62 78q0 18 18 18h78q18 0 17 -18q-4 -85 -51 -135.5t-120 -50.5
q-80 0 -129 47.5t-49 124.5q0 45 12.5 82t31 62t36.5 49.5t30.5 57t12.5 71.5v26q0 17 18 17h81z" />
    <glyph glyph-name="Agrave" unicode="&#xc0;" horiz-adv-x="447" 
d="M292 769h-50q-13 0 -22 10l-77 90q-7 8 -4.5 15t13.5 7h70q14 0 21 -11l61 -90q6 -8 2.5 -14.5t-14.5 -6.5zM62 0q-18 0 -18 18v504q0 85 49.5 137t129.5 52q81 0 130.5 -52t49.5 -137v-504q0 -18 -18 -18h-90q-18 0 -18 18v197h-108v-197q0 -18 -17 -18h-90zM169 330
h108v201q0 29 -14.5 46t-39.5 17t-39.5 -17t-14.5 -46v-201z" />
    <glyph glyph-name="Aacute" unicode="&#xc1;" horiz-adv-x="447" 
d="M175 769q-11 0 -14.5 6.5t2.5 14.5l61 90q7 11 21 11h70q11 0 13.5 -7t-4.5 -15l-77 -90q-9 -10 -22 -10h-50zM62 0q-18 0 -18 18v504q0 85 49.5 137t129.5 52q81 0 130.5 -52t49.5 -137v-504q0 -18 -18 -18h-90q-18 0 -18 18v197h-108v-197q0 -18 -17 -18h-90zM169 330
h108v201q0 29 -14.5 46t-39.5 17t-39.5 -17t-14.5 -46v-201z" />
    <glyph glyph-name="Acircumflex" unicode="&#xc2;" horiz-adv-x="447" 
d="M344 790q6 -8 2.5 -14.5t-13.5 -6.5h-49q-14 0 -21 10l-40 49l-41 -49q-9 -10 -21 -10h-49q-11 0 -14.5 6.5t3.5 14.5l62 90q8 11 22 11h75q13 0 22 -11zM62 0q-18 0 -18 18v504q0 85 49.5 137t129.5 52q81 0 130.5 -52t49.5 -137v-504q0 -18 -18 -18h-90q-18 0 -18 18
v197h-108v-197q0 -18 -17 -18h-90zM169 330h108v201q0 29 -14.5 46t-39.5 17t-39.5 -17t-14.5 -46v-201z" />
    <glyph glyph-name="Atilde" unicode="&#xc3;" horiz-adv-x="447" 
d="M188 795q-10 0 -14 -10q-8 -15 -19 -15h-37q-19 0 -17 18q2 26 22 51.5t57 25.5q23 0 47.5 -13.5t30.5 -13.5q10 0 15 10q7 16 18 16h37q18 0 17 -19q-2 -28 -23 -52t-56 -24q-21 0 -46 13t-32 13zM62 0q-18 0 -18 18v504q0 85 49.5 137t129.5 52q81 0 130.5 -52
t49.5 -137v-504q0 -18 -18 -18h-90q-18 0 -18 18v197h-108v-197q0 -18 -17 -18h-90zM169 330h108v201q0 29 -14.5 46t-39.5 17t-39.5 -17t-14.5 -46v-201z" />
    <glyph glyph-name="Adieresis" unicode="&#xc4;" horiz-adv-x="447" 
d="M154 771q-24 0 -38 14.5t-14 37.5t14 37.5t38 14.5q23 0 37 -14.5t14 -37.5t-14 -37.5t-37 -14.5zM292 771q-23 0 -37.5 14.5t-14.5 37.5t14.5 37.5t37.5 14.5t37.5 -14.5t14.5 -37.5t-14.5 -37.5t-37.5 -14.5zM62 0q-18 0 -18 18v504q0 85 49.5 137t129.5 52
q81 0 130.5 -52t49.5 -137v-504q0 -18 -18 -18h-90q-18 0 -18 18v197h-108v-197q0 -18 -17 -18h-90zM169 330h108v201q0 29 -14.5 46t-39.5 17t-39.5 -17t-14.5 -46v-201z" />
    <glyph glyph-name="Aring" unicode="&#xc5;" horiz-adv-x="447" 
d="M142 830q0 35 22 56.5t59 21.5t59.5 -21.5t22.5 -56.5q0 -36 -22.5 -58t-59.5 -22t-59 22t-22 58zM199 829q0 -24 24 -24q25 0 25 24q0 25 -25 25q-24 0 -24 -25zM62 0q-18 0 -18 18v504q0 85 49.5 137t129.5 52q81 0 130.5 -52t49.5 -137v-504q0 -18 -18 -18h-90
q-18 0 -18 18v197h-108v-197q0 -18 -17 -18h-90zM169 330h108v201q0 29 -14.5 46t-39.5 17t-39.5 -17t-14.5 -46v-201z" />
    <glyph glyph-name="AE" unicode="&#xc6;" horiz-adv-x="596" 
d="M62 0q-18 0 -18 18v507q0 83 49 133.5t128 50.5q70 0 118 -50q49 46 114 46h101q17 0 17 -17v-80q0 -18 -17 -18h-86q-33 0 -51 -19.5t-18 -54.5v-125h129q17 0 17 -17v-74q0 -18 -17 -18h-129v-96q0 -35 18 -55t51 -20h88q18 0 18 -17v-81q0 -17 -18 -17h-103
q-82 0 -131.5 51t-49.5 135v95h-102v-259q0 -18 -17 -18h-91zM170 392h102v142q0 28 -14 44t-37 16q-24 0 -37.5 -16t-13.5 -44v-142z" />
    <glyph glyph-name="Ccedilla" unicode="&#xc7;" horiz-adv-x="412" 
d="M378 214q19 0 17 -19q-3 -88 -42 -141.5t-107 -63.5l-6 -34h5q31 -2 51.5 -23t20.5 -52q0 -42 -28 -66t-71 -24q-38 0 -63.5 20t-30.5 55q-2 8 2.5 13t13.5 5h27q10 0 19 -14q8 -17 32 -17q15 0 24.5 7.5t9.5 20.5q0 12 -9.5 19.5t-24.5 7.5q-18 0 -35 -3q-6 -2 -11 3
l-5 4q-4 4 -3 11l13 69q-64 12 -102 61.5t-38 122.5v348q0 85 49.5 136.5t130.5 51.5q77 0 124 -53.5t50 -145.5q0 -18 -17 -18h-91q-17 0 -17 17q-3 82 -52 82q-24 0 -37.5 -16t-13.5 -45v-366q0 -29 13.5 -45t37.5 -16q53 0 56 91q2 17 17 17h91z" />
    <glyph glyph-name="Egrave" unicode="&#xc8;" horiz-adv-x="362" 
d="M271 769h-50q-13 0 -22 10l-77 90q-7 8 -4.5 15t13.5 7h70q14 0 21 -11l61 -90q6 -8 2.5 -14.5t-14.5 -6.5zM217 -4q-81 0 -130.5 52t-49.5 136v333q0 83 49.5 135t130.5 52h105q18 0 18 -17v-80q0 -18 -18 -18h-90q-32 0 -50.5 -20.5t-18.5 -55.5v-104h134q18 0 18 -18
v-76q0 -18 -18 -18h-134v-110q0 -35 18.5 -55.5t50.5 -20.5h90q18 0 18 -17v-81q0 -17 -18 -17h-105z" />
    <glyph glyph-name="Eacute" unicode="&#xc9;" horiz-adv-x="362" 
d="M154 769q-11 0 -14.5 6.5t2.5 14.5l61 90q7 11 21 11h70q11 0 13.5 -7t-4.5 -15l-77 -90q-9 -10 -22 -10h-50zM217 -4q-81 0 -130.5 52t-49.5 136v333q0 83 49.5 135t130.5 52h105q18 0 18 -17v-80q0 -18 -18 -18h-90q-32 0 -50.5 -20.5t-18.5 -55.5v-104h134
q18 0 18 -18v-76q0 -18 -18 -18h-134v-110q0 -35 18.5 -55.5t50.5 -20.5h90q18 0 18 -17v-81q0 -17 -18 -17h-105z" />
    <glyph glyph-name="Ecircumflex" unicode="&#xca;" horiz-adv-x="362" 
d="M323 790q6 -8 2.5 -14.5t-13.5 -6.5h-49q-14 0 -21 10l-40 49l-41 -49q-9 -10 -21 -10h-49q-11 0 -14.5 6.5t3.5 14.5l62 90q8 11 22 11h75q13 0 22 -11zM217 -4q-81 0 -130.5 52t-49.5 136v333q0 83 49.5 135t130.5 52h105q18 0 18 -17v-80q0 -18 -18 -18h-90
q-32 0 -50.5 -20.5t-18.5 -55.5v-104h134q18 0 18 -18v-76q0 -18 -18 -18h-134v-110q0 -35 18.5 -55.5t50.5 -20.5h90q18 0 18 -17v-81q0 -17 -18 -17h-105z" />
    <glyph glyph-name="Edieresis" unicode="&#xcb;" horiz-adv-x="362" 
d="M133 771q-24 0 -38 14.5t-14 37.5t14 37.5t38 14.5q23 0 37 -14.5t14 -37.5t-14 -37.5t-37 -14.5zM271 771q-23 0 -37.5 14.5t-14.5 37.5t14.5 37.5t37.5 14.5t37.5 -14.5t14.5 -37.5t-14.5 -37.5t-37.5 -14.5zM217 -4q-81 0 -130.5 52t-49.5 136v333q0 83 49.5 135
t130.5 52h105q18 0 18 -17v-80q0 -18 -18 -18h-90q-32 0 -50.5 -20.5t-18.5 -55.5v-104h134q18 0 18 -18v-76q0 -18 -18 -18h-134v-110q0 -35 18.5 -55.5t50.5 -20.5h90q18 0 18 -17v-81q0 -17 -18 -17h-105z" />
    <glyph glyph-name="Igrave" unicode="&#xcc;" horiz-adv-x="223" 
d="M181 769h-50q-13 0 -22 10l-77 90q-7 8 -4.5 15t13.5 7h70q14 0 21 -11l61 -90q6 -8 2.5 -14.5t-14.5 -6.5zM49 683q0 17 18 17h89q18 0 18 -17v-665q0 -18 -18 -18h-89q-18 0 -18 18v665z" />
    <glyph glyph-name="Iacute" unicode="&#xcd;" horiz-adv-x="228" 
d="M64 769q-11 0 -14.5 6.5t2.5 14.5l61 90q7 11 21 11h70q11 0 13.5 -7t-4.5 -15l-77 -90q-9 -10 -22 -10h-50zM52 683q0 17 18 17h89q18 0 18 -17v-665q0 -18 -18 -18h-89q-18 0 -18 18v665z" />
    <glyph glyph-name="Icircumflex" unicode="&#xce;" horiz-adv-x="270" 
d="M257 790q6 -8 2.5 -14.5t-13.5 -6.5h-49q-14 0 -21 10l-40 49l-41 -49q-9 -10 -21 -10h-49q-11 0 -14.5 6.5t3.5 14.5l62 90q8 11 22 11h75q13 0 22 -11zM75 683q0 17 18 17h89q18 0 18 -17v-665q0 -18 -18 -18h-89q-18 0 -18 18v665z" />
    <glyph glyph-name="Idieresis" unicode="&#xcf;" horiz-adv-x="256" 
d="M59 771q-24 0 -38 14.5t-14 37.5t14 37.5t38 14.5q23 0 37 -14.5t14 -37.5t-14 -37.5t-37 -14.5zM197 771q-23 0 -37.5 14.5t-14.5 37.5t14.5 37.5t37.5 14.5t37.5 -14.5t14.5 -37.5t-14.5 -37.5t-37.5 -14.5zM68 683q0 17 18 17h89q18 0 18 -17v-665q0 -18 -18 -18h-89
q-18 0 -18 18v665z" />
    <glyph glyph-name="Eth" unicode="&#xd0;" horiz-adv-x="471" 
d="M255 704q81 0 130.5 -52t49.5 -136v-332q0 -84 -49.5 -136t-130.5 -52h-123q-53 0 -53 52v272h-37q-18 0 -18 17v41q0 18 18 18h37v256q0 52 53 52h123zM309 180v340q0 69 -61 69h-44v-193h34q17 0 17 -18v-41q0 -17 -17 -17h-34v-209h44q61 0 61 69z" />
    <glyph glyph-name="Ntilde" unicode="&#xd1;" horiz-adv-x="447" 
d="M189 795q-10 0 -14 -10q-7 -15 -19 -15h-37q-19 0 -17 18q2 26 22 51.5t57 25.5q23 0 47.5 -13.5t30.5 -13.5q10 0 15 10q7 16 18 16h37q18 0 17 -19q-2 -28 -23 -52t-56 -24q-21 0 -46 13t-32 13zM62 0q-18 0 -18 18v505q0 84 49 136.5t130 52.5t130.5 -52.5
t49.5 -136.5v-505q0 -18 -18 -18h-90q-18 0 -18 18v514q0 29 -14.5 46t-39.5 17t-39.5 -17t-14.5 -46v-514q0 -18 -17 -18h-90z" />
    <glyph glyph-name="Ograve" unicode="&#xd2;" horiz-adv-x="441" 
d="M289 769h-50q-13 0 -22 10l-77 90q-7 8 -4.5 15t13.5 7h70q14 0 21 -11l61 -90q6 -8 2.5 -14.5t-14.5 -6.5zM221 -11q-82 0 -133 52.5t-51 138.5v340q0 86 51 138.5t133 52.5t132.5 -52t50.5 -136v-346q0 -84 -50.5 -136t-132.5 -52zM221 106q26 0 41.5 16.5t15.5 45.5
v364q0 29 -15.5 46t-41.5 17t-42 -17.5t-16 -48.5v-358q0 -30 15.5 -47.5t42.5 -17.5z" />
    <glyph glyph-name="Oacute" unicode="&#xd3;" horiz-adv-x="441" 
d="M172 769q-11 0 -14.5 6.5t2.5 14.5l61 90q7 11 21 11h70q11 0 13.5 -7t-4.5 -15l-77 -90q-9 -10 -22 -10h-50zM221 -11q-82 0 -133 52.5t-51 138.5v340q0 86 51 138.5t133 52.5t132.5 -52t50.5 -136v-346q0 -84 -50.5 -136t-132.5 -52zM221 106q26 0 41.5 16.5t15.5 45.5
v364q0 29 -15.5 46t-41.5 17t-42 -17.5t-16 -48.5v-358q0 -30 15.5 -47.5t42.5 -17.5z" />
    <glyph glyph-name="Ocircumflex" unicode="&#xd4;" horiz-adv-x="441" 
d="M341 790q6 -8 2.5 -14.5t-13.5 -6.5h-49q-14 0 -21 10l-40 49l-41 -49q-9 -10 -21 -10h-49q-11 0 -14.5 6.5t3.5 14.5l62 90q8 11 22 11h75q13 0 22 -11zM221 -11q-82 0 -133 52.5t-51 138.5v340q0 86 51 138.5t133 52.5t132.5 -52t50.5 -136v-346q0 -84 -50.5 -136
t-132.5 -52zM221 106q26 0 41.5 16.5t15.5 45.5v364q0 29 -15.5 46t-41.5 17t-42 -17.5t-16 -48.5v-358q0 -30 15.5 -47.5t42.5 -17.5z" />
    <glyph glyph-name="Otilde" unicode="&#xd5;" horiz-adv-x="441" 
d="M185 795q-10 0 -14 -10q-7 -15 -19 -15h-37q-19 0 -17 18q2 26 22 51.5t57 25.5q23 0 47.5 -13.5t30.5 -13.5q10 0 15 10q7 16 18 16h37q18 0 17 -19q-2 -28 -23 -52t-56 -24q-21 0 -46 13t-32 13zM221 -11q-82 0 -133 52.5t-51 138.5v340q0 86 51 138.5t133 52.5
t132.5 -52t50.5 -136v-346q0 -84 -50.5 -136t-132.5 -52zM221 106q26 0 41.5 16.5t15.5 45.5v364q0 29 -15.5 46t-41.5 17t-42 -17.5t-16 -48.5v-358q0 -30 15.5 -47.5t42.5 -17.5z" />
    <glyph glyph-name="Odieresis" unicode="&#xd6;" horiz-adv-x="441" 
d="M151 771q-24 0 -38 14.5t-14 37.5t14 37.5t38 14.5q23 0 37 -14.5t14 -37.5t-14 -37.5t-37 -14.5zM289 771q-23 0 -37.5 14.5t-14.5 37.5t14.5 37.5t37.5 14.5t37.5 -14.5t14.5 -37.5t-14.5 -37.5t-37.5 -14.5zM221 -11q-82 0 -133 52.5t-51 138.5v340q0 86 51 138.5
t133 52.5t132.5 -52t50.5 -136v-346q0 -84 -50.5 -136t-132.5 -52zM221 106q26 0 41.5 16.5t15.5 45.5v364q0 29 -15.5 46t-41.5 17t-42 -17.5t-16 -48.5v-358q0 -30 15.5 -47.5t42.5 -17.5z" />
    <glyph glyph-name="multiply" unicode="&#xd7;" horiz-adv-x="475" 
d="M93 154l-51 51q-12 13 0 26l120 120l-120 119q-12 13 0 26l51 51q12 12 24 0l121 -120l120 120q12 13 25 0l51 -51q10 -13 0 -26l-120 -119l120 -120q10 -13 0 -26l-51 -51q-13 -12 -25 0l-120 120l-121 -120q-12 -12 -24 0z" />
    <glyph glyph-name="Oslash" unicode="&#xd8;" horiz-adv-x="443" 
d="M344 667q60 -52 60 -144v-346q0 -84 -51 -136t-133 -52q-42 0 -72 13l-10 -32q-4 -15 -19 -15h-35q-22 0 -15 20l19 66q-51 53 -51 139v340q0 86 50.5 138.5t132.5 52.5q35 0 64 -10l8 29q4 15 20 15h35q20 0 15 -20zM278 168v364q0 29 -16 46t-42 17t-41.5 -17.5
t-15.5 -48.5v-358q0 -31 15.5 -48t41.5 -17t42 17t16 45z" />
    <glyph glyph-name="Ugrave" unicode="&#xd9;" horiz-adv-x="447" 
d="M291 769h-50q-13 0 -22 10l-77 90q-7 8 -4.5 15t13.5 7h70q14 0 21 -11l61 -90q6 -8 2.5 -14.5t-14.5 -6.5zM62 700h90q17 0 17 -18v-514q0 -29 14.5 -46t39.5 -17t39.5 17t14.5 46v514q0 18 18 18h90q18 0 18 -18v-505q0 -84 -49.5 -136.5t-130.5 -52.5t-130 52.5
t-49 136.5v505q0 18 18 18z" />
    <glyph glyph-name="Uacute" unicode="&#xda;" horiz-adv-x="447" 
d="M174 769q-11 0 -14.5 6.5t2.5 14.5l61 90q7 11 21 11h70q11 0 13.5 -7t-4.5 -15l-77 -90q-9 -10 -22 -10h-50zM62 700h90q17 0 17 -18v-514q0 -29 14.5 -46t39.5 -17t39.5 17t14.5 46v514q0 18 18 18h90q18 0 18 -18v-505q0 -84 -49.5 -136.5t-130.5 -52.5t-130 52.5
t-49 136.5v505q0 18 18 18z" />
    <glyph glyph-name="Ucircumflex" unicode="&#xdb;" horiz-adv-x="447" 
d="M343 790q6 -8 2.5 -14.5t-13.5 -6.5h-49q-14 0 -21 10l-40 49l-41 -49q-9 -10 -21 -10h-49q-11 0 -14.5 6.5t3.5 14.5l62 90q8 11 22 11h75q13 0 22 -11zM62 700h90q17 0 17 -18v-514q0 -29 14.5 -46t39.5 -17t39.5 17t14.5 46v514q0 18 18 18h90q18 0 18 -18v-505
q0 -84 -49.5 -136.5t-130.5 -52.5t-130 52.5t-49 136.5v505q0 18 18 18z" />
    <glyph glyph-name="Udieresis" unicode="&#xdc;" horiz-adv-x="447" 
d="M153 771q-24 0 -38 14.5t-14 37.5t14 37.5t38 14.5q23 0 37 -14.5t14 -37.5t-14 -37.5t-37 -14.5zM291 771q-23 0 -37.5 14.5t-14.5 37.5t14.5 37.5t37.5 14.5t37.5 -14.5t14.5 -37.5t-14.5 -37.5t-37.5 -14.5zM62 700h90q17 0 17 -18v-514q0 -29 14.5 -46t39.5 -17
t39.5 17t14.5 46v514q0 18 18 18h90q18 0 18 -18v-505q0 -84 -49.5 -136.5t-130.5 -52.5t-130 52.5t-49 136.5v505q0 18 18 18z" />
    <glyph glyph-name="Yacute" unicode="&#xdd;" horiz-adv-x="419" 
d="M161 769q-11 0 -14.5 6.5t2.5 14.5l61 90q7 11 21 11h70q11 0 13.5 -7t-4.5 -15l-77 -90q-9 -10 -22 -10h-50zM165 0q-18 0 -18 18v212q-53 17 -84 64.5t-31 112.5v276q0 17 18 17h89q18 0 18 -17v-285q0 -28 14 -44.5t38 -16.5q25 0 39 16.5t14 44.5v285q0 17 18 17h89
q18 0 18 -17v-276q0 -65 -31 -112.5t-84 -64.5v-212q0 -18 -18 -18h-89z" />
    <glyph glyph-name="Thorn" unicode="&#xde;" horiz-adv-x="423" 
d="M67 0q-18 0 -18 18v665q0 17 18 17h90q17 0 17 -17v-110h52q79 0 128 -51t49 -132v-76q0 -82 -49 -133t-128 -51h-52v-112q0 -18 -17 -18h-90zM174 245h44q59 0 59 64v85q0 64 -59 64h-44v-213z" />
    <glyph glyph-name="germandbls" unicode="&#xdf;" horiz-adv-x="406" 
d="M62 0q-18 0 -18 18v527q0 74 45 120.5t116 46.5t116.5 -46.5t45.5 -120.5v-78q0 -58 -50 -102q64 -44 64 -122v-78q0 -74 -46 -121t-118 -48h-15q-14 0 -14 15v82q0 15 14 15h15q22 0 34 14t12 38v90q0 23 -13 38.5t-32 15.5h-18q-12 0 -12 15v77q0 15 12 15h11
q16 0 27 13t11 31v96q0 22 -12 35.5t-32 13.5q-19 0 -31 -13.5t-12 -35.5v-533q0 -18 -18 -18h-82z" />
    <glyph glyph-name="agrave" unicode="&#xe0;" horiz-adv-x="390" 
d="M95 682h70q12 0 21 -12l54 -90q6 -9 3 -15t-14 -6h-51q-14 0 -21 11l-72 91q-6 8 -3.5 14.5t13.5 6.5zM197 -11q-77 0 -124 46t-47 121q0 66 45.5 108.5t117.5 42.5h50v43q0 23 -12 36.5t-33 13.5q-42 0 -44 -44q-1 -13 -18 -13h-82q-17 0 -17 18q6 68 50 109.5t112 41.5
q73 0 117.5 -47t44.5 -122v-192q0 -74 -42.5 -118t-117.5 -44zM195 101q44 0 44 49v54h-43q-24 0 -37.5 -13t-13.5 -35q0 -26 13 -40.5t37 -14.5z" />
    <glyph glyph-name="aacute" unicode="&#xe1;" horiz-adv-x="390" 
d="M275 681q11 0 13.5 -6.5t-3.5 -14.5l-72 -91q-7 -11 -21 -11h-51q-11 0 -14 6t3 15l54 90q9 12 21 12h70zM197 -11q-77 0 -124 46t-47 121q0 66 45.5 108.5t117.5 42.5h50v43q0 23 -12 36.5t-33 13.5q-42 0 -44 -44q-1 -13 -18 -13h-82q-17 0 -17 18q6 68 50 109.5
t112 41.5q73 0 117.5 -47t44.5 -122v-192q0 -74 -42.5 -118t-117.5 -44zM195 101q44 0 44 49v54h-43q-24 0 -37.5 -13t-13.5 -35q0 -26 13 -40.5t37 -14.5z" />
    <glyph glyph-name="acircumflex" unicode="&#xe2;" horiz-adv-x="390" 
d="M87 559q-10 0 -13.5 6.5t1.5 14.5l60 91q8 11 21 11h74q14 0 21 -11l60 -91q5 -8 1.5 -14.5t-13.5 -6.5h-48q-14 0 -22 11l-35 47l-37 -47q-7 -11 -21 -11h-49zM197 -11q-77 0 -124 46t-47 121q0 66 45.5 108.5t117.5 42.5h50v43q0 23 -12 36.5t-33 13.5q-42 0 -44 -44
q-1 -13 -18 -13h-82q-17 0 -17 18q6 68 50 109.5t112 41.5q73 0 117.5 -47t44.5 -122v-192q0 -74 -42.5 -118t-117.5 -44zM195 101q44 0 44 49v54h-43q-24 0 -37.5 -13t-13.5 -35q0 -26 13 -40.5t37 -14.5z" />
    <glyph glyph-name="atilde" unicode="&#xe3;" horiz-adv-x="390" 
d="M158 595q-10 0 -14 -10q-8 -15 -19 -15h-37q-19 0 -17 18q2 26 22 51.5t57 25.5q23 0 47.5 -13.5t30.5 -13.5q10 0 15 10q7 16 18 16h37q18 0 17 -19q-2 -28 -23 -52t-56 -24q-21 0 -46 13t-32 13zM197 -11q-77 0 -124 46t-47 121q0 66 45.5 108.5t117.5 42.5h50v43
q0 23 -12 36.5t-33 13.5q-42 0 -44 -44q-1 -13 -18 -13h-82q-17 0 -17 18q6 68 50 109.5t112 41.5q73 0 117.5 -47t44.5 -122v-192q0 -74 -42.5 -118t-117.5 -44zM195 101q44 0 44 49v54h-43q-24 0 -37.5 -13t-13.5 -35q0 -26 13 -40.5t37 -14.5z" />
    <glyph glyph-name="adieresis" unicode="&#xe4;" horiz-adv-x="390" 
d="M125 568q-24 0 -38 14.5t-14 37.5t14 37.5t38 14.5q23 0 37 -14.5t14 -37.5t-14 -37.5t-37 -14.5zM263 568q-23 0 -37.5 14.5t-14.5 37.5t14.5 37.5t37.5 14.5t37.5 -14.5t14.5 -37.5t-14.5 -37.5t-37.5 -14.5zM197 -11q-77 0 -124 46t-47 121q0 66 45.5 108.5
t117.5 42.5h50v43q0 23 -12 36.5t-33 13.5q-42 0 -44 -44q-1 -13 -18 -13h-82q-17 0 -17 18q6 68 50 109.5t112 41.5q73 0 117.5 -47t44.5 -122v-192q0 -74 -42.5 -118t-117.5 -44zM195 101q44 0 44 49v54h-43q-24 0 -37.5 -13t-13.5 -35q0 -26 13 -40.5t37 -14.5z" />
    <glyph glyph-name="aring" unicode="&#xe5;" horiz-adv-x="390" 
d="M113 625q0 35 22 56.5t59 21.5t59.5 -21.5t22.5 -56.5q0 -36 -22.5 -58t-59.5 -22t-59 22t-22 58zM170 624q0 -24 24 -24q25 0 25 24q0 25 -25 25q-24 0 -24 -25zM197 -11q-77 0 -124 46t-47 121q0 66 45.5 108.5t117.5 42.5h50v43q0 23 -12 36.5t-33 13.5q-42 0 -44 -44
q-1 -13 -18 -13h-82q-17 0 -17 18q6 68 50 109.5t112 41.5q73 0 117.5 -47t44.5 -122v-192q0 -74 -42.5 -118t-117.5 -44zM195 101q44 0 44 49v54h-43q-24 0 -37.5 -13t-13.5 -35q0 -26 13 -40.5t37 -14.5z" />
    <glyph glyph-name="ae" unicode="&#xe6;" horiz-adv-x="592" 
d="M195 -12q-76 0 -122.5 46t-46.5 119q0 67 46 109.5t119 42.5h46v45q0 23 -12 36.5t-32 13.5q-42 0 -45 -40q0 -13 -17 -13h-82q-19 0 -17 18q5 66 50 106.5t113 40.5q60 0 101 -44q44 44 105 44q72 1 118.5 -44t46.5 -117q0 -68 -45.5 -111t-119.5 -43h-46v-46
q0 -23 12 -37t33 -14q37 0 43 40q4 16 18 16h84q17 0 17 -17q-5 -69 -49.5 -110t-113.5 -41q-58 0 -100 42q-44 -42 -104 -42zM355 301h46q47 0 47 47q0 52 -47 52q-21 0 -33.5 -13.5t-12.5 -36.5v-49zM192 101q45 0 45 49v52h-42q-23 0 -36.5 -13.5t-13.5 -35.5
q0 -24 12.5 -38t34.5 -14z" />
    <glyph glyph-name="ccedilla" unicode="&#xe7;" horiz-adv-x="387" 
d="M347 170q19 0 17 -20q-4 -66 -41 -109t-97 -51l-6 -34h5q31 -2 51.5 -23t20.5 -52q0 -42 -28 -66t-71 -24q-38 0 -63.5 20t-30.5 55q-2 8 2.5 13t13.5 5h27q10 0 19 -14q8 -17 32 -17q15 0 24.5 7.5t9.5 20.5q0 12 -9.5 19.5t-24.5 7.5q-18 0 -35 -3q-6 -2 -11 3l-5 4
q-4 4 -3 11l14 69q-57 13 -91 57.5t-34 108.5v185q0 75 45.5 122t118.5 47q70 0 114.5 -43t49.5 -116q1 -18 -17 -18h-85q-15 0 -17 18q-6 47 -45 47q-21 0 -33 -14t-12 -37v-198q0 -23 12 -37t34 -14q41 0 47 52q1 18 17 18h85z" />
    <glyph glyph-name="egrave" unicode="&#xe8;" horiz-adv-x="391" 
d="M98 682h70q12 0 21 -12l54 -90q6 -9 3 -15t-14 -6h-51q-14 0 -21 11l-72 91q-6 8 -3.5 14.5t13.5 6.5zM196 -11q-73 0 -118 46.5t-45 122.5v189q2 74 47 119t119 45q72 2 119 -44t47 -119q0 -69 -45.5 -112t-118.5 -43h-49v-42q0 -24 12 -37.5t33 -13.5q39 0 45 42
q3 17 18 17h84q17 0 17 -18q-5 -68 -50 -110t-115 -42zM152 297h49q22 0 34 12.5t12 35.5q0 55 -48 55q-47 0 -47 -51v-52z" />
    <glyph glyph-name="eacute" unicode="&#xe9;" horiz-adv-x="391" 
d="M278 681q11 0 13.5 -6.5t-3.5 -14.5l-72 -91q-7 -11 -21 -11h-51q-11 0 -14 6t3 15l54 90q9 12 21 12h70zM196 -11q-73 0 -118 46.5t-45 122.5v189q2 74 47 119t119 45q72 2 119 -44t47 -119q0 -69 -45.5 -112t-118.5 -43h-49v-42q0 -24 12 -37.5t33 -13.5q39 0 45 42
q3 17 18 17h84q17 0 17 -18q-5 -68 -50 -110t-115 -42zM152 297h49q22 0 34 12.5t12 35.5q0 55 -48 55q-47 0 -47 -51v-52z" />
    <glyph glyph-name="ecircumflex" unicode="&#xea;" horiz-adv-x="391" 
d="M90 559q-10 0 -13.5 6.5t1.5 14.5l60 91q8 11 21 11h74q14 0 21 -11l60 -91q5 -8 1.5 -14.5t-13.5 -6.5h-48q-14 0 -22 11l-35 47l-37 -47q-7 -11 -21 -11h-49zM196 -11q-73 0 -118 46.5t-45 122.5v189q2 74 47 119t119 45q72 2 119 -44t47 -119q0 -69 -45.5 -112
t-118.5 -43h-49v-42q0 -24 12 -37.5t33 -13.5q39 0 45 42q3 17 18 17h84q17 0 17 -18q-5 -68 -50 -110t-115 -42zM152 297h49q22 0 34 12.5t12 35.5q0 55 -48 55q-47 0 -47 -51v-52z" />
    <glyph glyph-name="edieresis" unicode="&#xeb;" horiz-adv-x="391" 
d="M128 568q-24 0 -38 14.5t-14 37.5t14 37.5t38 14.5q23 0 37 -14.5t14 -37.5t-14 -37.5t-37 -14.5zM266 568q-23 0 -37.5 14.5t-14.5 37.5t14.5 37.5t37.5 14.5t37.5 -14.5t14.5 -37.5t-14.5 -37.5t-37.5 -14.5zM196 -11q-73 0 -118 46.5t-45 122.5v189q2 74 47 119
t119 45q72 2 119 -44t47 -119q0 -69 -45.5 -112t-118.5 -43h-49v-42q0 -24 12 -37.5t33 -13.5q39 0 45 42q3 17 18 17h84q17 0 17 -18q-5 -68 -50 -110t-115 -42zM152 297h49q22 0 34 12.5t12 35.5q0 55 -48 55q-47 0 -47 -51v-52z" />
    <glyph glyph-name="igrave" unicode="&#xec;" horiz-adv-x="206" 
d="M4 682h70q12 0 21 -12l54 -90q6 -9 3 -15t-14 -6h-51q-14 0 -21 11l-72 91q-6 8 -3.5 14.5t13.5 6.5zM62 0q-18 0 -18 18v465q0 17 18 17h82q18 0 18 -17v-465q0 -18 -18 -18h-82z" />
    <glyph glyph-name="iacute" unicode="&#xed;" horiz-adv-x="206" 
d="M184 681q11 0 13.5 -6.5t-3.5 -14.5l-72 -91q-7 -11 -21 -11h-51q-11 0 -14 6t3 15l54 90q9 12 21 12h70zM62 0q-18 0 -18 18v465q0 17 18 17h82q18 0 18 -17v-465q0 -18 -18 -18h-82z" />
    <glyph glyph-name="icircumflex" unicode="&#xee;" horiz-adv-x="243" 
d="M26 559q-10 0 -13.5 6.5t1.5 14.5l60 91q8 11 21 11h74q14 0 21 -11l60 -91q5 -8 1.5 -14.5t-13.5 -6.5h-48q-14 0 -22 11l-35 47l-37 -47q-7 -11 -21 -11h-49zM92 0q-18 0 -18 18v465q0 17 18 17h82q18 0 18 -17v-465q0 -18 -18 -18h-82z" />
    <glyph glyph-name="idieresis" unicode="&#xef;" horiz-adv-x="230" 
d="M52 570q-22 0 -35 13.5t-14 36.5q1 22 14 35.5t35 13.5t36 -13.5t14 -35.5q0 -23 -14 -36.5t-36 -13.5zM178 570q-22 0 -35.5 13.5t-13.5 36.5q0 22 13.5 35.5t35.5 13.5t35.5 -13t14.5 -36q-1 -23 -14.5 -36.5t-35.5 -13.5zM75 0q-18 0 -18 18v465q0 17 18 17h82
q18 0 18 -17v-465q0 -18 -18 -18h-82z" />
    <glyph glyph-name="eth" unicode="&#xf0;" horiz-adv-x="409" 
d="M332 623q33 -53 33 -129v-336q0 -76 -45.5 -123t-120.5 -47t-120.5 47t-45.5 123v177q0 76 39.5 122.5t105.5 46.5q43 0 69 -23v24q0 36 -15 60l-76 -44q-6 -4 -10 0.5t-4 12.5v25q0 9 13 17l39 23q-21 9 -47 9h-27q-18 0 -18 17v69q0 17 18 17h30q94 0 150 -50l47 28
q6 3 10 -1.5t4 -11.5v-25q0 -10 -13 -18zM247 152v190q0 23 -13 37t-35 14t-35 -14t-13 -37v-190q0 -24 13 -38t35 -14t35 14t13 38z" />
    <glyph glyph-name="ntilde" unicode="&#xf1;" horiz-adv-x="404" 
d="M166 595q-10 0 -14 -10q-8 -15 -19 -15h-37q-19 0 -17 18q2 26 22 51.5t57 25.5q23 0 47.5 -13.5t30.5 -13.5q10 0 15 10q7 16 18 16h37q18 0 17 -19q-2 -28 -23 -52t-56 -24q-21 0 -46 13t-32 13zM56 0q-17 0 -17 18v325q0 75 45 122t118 47t118 -47t45 -122v-325
q0 -18 -17 -18h-83q-18 0 -18 18v331q0 23 -12 37.5t-33 14.5t-33.5 -14t-12.5 -38v-331q0 -18 -17 -18h-83z" />
    <glyph glyph-name="ograve" unicode="&#xf2;" horiz-adv-x="400" 
d="M102 682h70q12 0 21 -12l54 -90q6 -9 3 -15t-14 -6h-51q-14 0 -21 11l-72 91q-6 8 -3.5 14.5t13.5 6.5zM200 -12q-75 0 -121 47t-46 123v185q0 75 46 122t121 47t121 -47t46 -122v-185q0 -76 -46 -123t-121 -47zM200 100q22 0 35 14t13 37v198q0 24 -13 38t-35 14
t-35 -14t-13 -38v-198q0 -23 13 -37t35 -14z" />
    <glyph glyph-name="oacute" unicode="&#xf3;" horiz-adv-x="400" 
d="M282 681q11 0 13.5 -6.5t-3.5 -14.5l-72 -91q-7 -11 -21 -11h-51q-11 0 -14 6t3 15l54 90q9 12 21 12h70zM200 -12q-75 0 -121 47t-46 123v185q0 75 46 122t121 47t121 -47t46 -122v-185q0 -76 -46 -123t-121 -47zM200 100q22 0 35 14t13 37v198q0 24 -13 38t-35 14
t-35 -14t-13 -38v-198q0 -23 13 -37t35 -14z" />
    <glyph glyph-name="ocircumflex" unicode="&#xf4;" horiz-adv-x="400" 
d="M94 559q-10 0 -13.5 6.5t1.5 14.5l60 91q8 11 21 11h74q14 0 21 -11l60 -91q5 -8 1.5 -14.5t-13.5 -6.5h-48q-14 0 -22 11l-35 47l-37 -47q-7 -11 -21 -11h-49zM200 -12q-75 0 -121 47t-46 123v185q0 75 46 122t121 47t121 -47t46 -122v-185q0 -76 -46 -123t-121 -47z
M200 100q22 0 35 14t13 37v198q0 24 -13 38t-35 14t-35 -14t-13 -38v-198q0 -23 13 -37t35 -14z" />
    <glyph glyph-name="otilde" unicode="&#xf5;" horiz-adv-x="400" 
d="M165 595q-10 0 -14 -10q-7 -15 -19 -15h-37q-19 0 -17 18q2 26 22 51.5t57 25.5q23 0 47.5 -13.5t30.5 -13.5q10 0 15 10q7 16 18 16h37q18 0 17 -19q-2 -28 -23 -52t-56 -24q-21 0 -46 13t-32 13zM200 -12q-75 0 -121 47t-46 123v185q0 75 46 122t121 47t121 -47
t46 -122v-185q0 -76 -46 -123t-121 -47zM200 100q22 0 35 14t13 37v198q0 24 -13 38t-35 14t-35 -14t-13 -38v-198q0 -23 13 -37t35 -14z" />
    <glyph glyph-name="odieresis" unicode="&#xf6;" horiz-adv-x="400" 
d="M132 568q-24 0 -38 14.5t-14 37.5t14 37.5t38 14.5q23 0 37 -14.5t14 -37.5t-14 -37.5t-37 -14.5zM270 568q-23 0 -37.5 14.5t-14.5 37.5t14.5 37.5t37.5 14.5t37.5 -14.5t14.5 -37.5t-14.5 -37.5t-37.5 -14.5zM200 -12q-75 0 -121 47t-46 123v185q0 75 46 122t121 47
t121 -47t46 -122v-185q0 -76 -46 -123t-121 -47zM200 100q22 0 35 14t13 37v198q0 24 -13 38t-35 14t-35 -14t-13 -38v-198q0 -23 13 -37t35 -14z" />
    <glyph glyph-name="divide" unicode="&#xf7;" horiz-adv-x="475" 
d="M239 448q-30 0 -49 18.5t-19 48.5q0 31 19 49.5t49 18.5t49 -18.5t19 -49.5q0 -30 -19 -48.5t-49 -18.5zM53 304q-18 0 -18 18v72q0 18 18 18h370q17 0 17 -18v-72q0 -18 -17 -18h-370zM239 127q-30 0 -49 19t-19 49t19 49t49 19t49 -19t19 -49t-19 -49t-49 -19z" />
    <glyph glyph-name="oslash" unicode="&#xf8;" horiz-adv-x="393" 
d="M296 486q71 -47 71 -143v-185q0 -76 -46 -123t-121 -47q-24 0 -41 4l-6 -22q-4 -15 -20 -15h-33q-10 0 -14 5.5t-1 13.5l12 45q-64 48 -64 139v185q0 75 46 122t121 47q18 0 33 -3l6 21q4 15 20 15h33q9 0 13.5 -5.5t1.5 -13.5zM248 151v198q0 24 -13 38t-35 14t-35 -14
t-13 -38v-198q0 -23 13 -37t35 -14t35 14t13 37z" />
    <glyph glyph-name="ugrave" unicode="&#xf9;" horiz-adv-x="404" 
d="M102 682h70q12 0 21 -12l54 -90q6 -9 3 -15t-14 -6h-51q-14 0 -21 11l-72 91q-6 8 -3.5 14.5t13.5 6.5zM56 500h83q17 0 17 -18v-331q0 -24 12.5 -38t33.5 -14t33 14.5t12 37.5v331q0 18 18 18h83q17 0 17 -18v-325q0 -75 -45 -122t-118 -47t-118 47t-45 122v325
q0 18 17 18z" />
    <glyph glyph-name="uacute" unicode="&#xfa;" horiz-adv-x="404" 
d="M282 681q11 0 13.5 -6.5t-3.5 -14.5l-72 -91q-7 -11 -21 -11h-51q-11 0 -14 6t3 15l54 90q9 12 21 12h70zM56 500h83q17 0 17 -18v-331q0 -24 12.5 -38t33.5 -14t33 14.5t12 37.5v331q0 18 18 18h83q17 0 17 -18v-325q0 -75 -45 -122t-118 -47t-118 47t-45 122v325
q0 18 17 18z" />
    <glyph glyph-name="ucircumflex" unicode="&#xfb;" horiz-adv-x="404" 
d="M94 559q-10 0 -13.5 6.5t1.5 14.5l60 91q8 11 21 11h74q14 0 21 -11l60 -91q5 -8 1.5 -14.5t-13.5 -6.5h-48q-14 0 -22 11l-35 47l-37 -47q-7 -11 -21 -11h-49zM56 500h83q17 0 17 -18v-331q0 -24 12.5 -38t33.5 -14t33 14.5t12 37.5v331q0 18 18 18h83q17 0 17 -18v-325
q0 -75 -45 -122t-118 -47t-118 47t-45 122v325q0 18 17 18z" />
    <glyph glyph-name="udieresis" unicode="&#xfc;" horiz-adv-x="404" 
d="M132 568q-24 0 -38 14.5t-14 37.5t14 37.5t38 14.5q23 0 37 -14.5t14 -37.5t-14 -37.5t-37 -14.5zM270 568q-23 0 -37.5 14.5t-14.5 37.5t14.5 37.5t37.5 14.5t37.5 -14.5t14.5 -37.5t-14.5 -37.5t-37.5 -14.5zM56 500h83q17 0 17 -18v-331q0 -24 12.5 -38t33.5 -14
t33 14.5t12 37.5v331q0 18 18 18h83q17 0 17 -18v-325q0 -75 -45 -122t-118 -47t-118 47t-45 122v325q0 18 17 18z" />
    <glyph glyph-name="yacute" unicode="&#xfd;" horiz-adv-x="411" 
d="M153 558q-11 0 -14 6t3 15l54 90q9 12 21 12h70q11 0 13.5 -6.5t-3.5 -14.5l-72 -91q-7 -11 -21 -11h-51zM349 500q18 0 18 -17v-526q0 -79 -44 -124t-120 -45q-72 0 -115.5 44.5t-48.5 121.5q0 18 17 18h84q15 0 18 -18q5 -54 45 -54q22 0 34 13.5t12 37.5v90
q-25 -23 -61 -23q-64 0 -106.5 47t-42.5 122v296q0 17 17 17h83q17 0 17 -17v-303q0 -23 12.5 -37t34.5 -14t34 14t12 37v303q0 17 17 17h83z" />
    <glyph glyph-name="thorn" unicode="&#xfe;" horiz-adv-x="407" 
d="M62 -200q-18 0 -18 17v866q0 17 18 17h82q18 0 18 -17v-195q26 24 68 24q66 0 105 -46.5t39 -122.5v-185q0 -74 -42.5 -122t-104.5 -48q-36 0 -65 23v-194q0 -17 -18 -17h-82zM209 100q22 0 34.5 13.5t12.5 37.5v198q0 24 -12.5 37.5t-34.5 13.5t-34.5 -14t-12.5 -37
v-198q0 -23 12.5 -37t34.5 -14z" />
    <glyph glyph-name="ydieresis" unicode="&#xff;" horiz-adv-x="411" 
d="M137 568q-24 0 -38 14.5t-14 37.5t14 37.5t38 14.5q23 0 37 -14.5t14 -37.5t-14 -37.5t-37 -14.5zM275 568q-23 0 -37.5 14.5t-14.5 37.5t14.5 37.5t37.5 14.5t37.5 -14.5t14.5 -37.5t-14.5 -37.5t-37.5 -14.5zM349 500q18 0 18 -17v-526q0 -79 -44 -124t-120 -45
q-72 0 -115.5 44.5t-48.5 121.5q0 18 17 18h84q15 0 18 -18q5 -54 45 -54q22 0 34 13.5t12 37.5v90q-25 -23 -61 -23q-64 0 -106.5 47t-42.5 122v296q0 17 17 17h83q17 0 17 -17v-303q0 -23 12.5 -37t34.5 -14t34 14t12 37v303q0 17 17 17h83z" />
    <glyph glyph-name="Amacron" unicode="&#x100;" horiz-adv-x="447" 
d="M130 840q0 17 18 17h149q17 0 17 -17v-38q0 -18 -17 -18h-149q-18 0 -18 18v38zM62 0q-18 0 -18 18v504q0 85 49.5 137t129.5 52q81 0 130.5 -52t49.5 -137v-504q0 -18 -18 -18h-90q-18 0 -18 18v197h-108v-197q0 -18 -17 -18h-90zM169 330h108v201q0 29 -14.5 46
t-39.5 17t-39.5 -17t-14.5 -46v-201z" />
    <glyph glyph-name="amacron" unicode="&#x101;" horiz-adv-x="390" 
d="M101 638q0 17 18 17h149q17 0 17 -17v-38q0 -18 -17 -18h-149q-18 0 -18 18v38zM197 -11q-77 0 -124 46t-47 121q0 66 45.5 108.5t117.5 42.5h50v43q0 23 -12 36.5t-33 13.5q-42 0 -44 -44q-1 -13 -18 -13h-82q-17 0 -17 18q6 68 50 109.5t112 41.5q73 0 117.5 -47
t44.5 -122v-192q0 -74 -42.5 -118t-117.5 -44zM195 101q44 0 44 49v54h-43q-24 0 -37.5 -13t-13.5 -35q0 -26 13 -40.5t37 -14.5z" />
    <glyph glyph-name="Abreve" unicode="&#x102;" horiz-adv-x="447" 
d="M223 767q-50 0 -82.5 28t-38.5 75q-2 19 18 19h45q13 0 19 -16q8 -25 39 -25t39 25q6 16 18 16h46q18 0 18 -19q-6 -47 -38.5 -75t-82.5 -28zM62 0q-18 0 -18 18v504q0 85 49.5 137t129.5 52q81 0 130.5 -52t49.5 -137v-504q0 -18 -18 -18h-90q-18 0 -18 18v197h-108
v-197q0 -18 -17 -18h-90zM169 330h108v201q0 29 -14.5 46t-39.5 17t-39.5 -17t-14.5 -46v-201z" />
    <glyph glyph-name="abreve" unicode="&#x103;" horiz-adv-x="390" 
d="M194 560q-50 0 -82.5 28t-38.5 75q-1 18 17 18h46q13 0 19 -16q8 -25 39 -25q29 0 39 25q6 16 18 16h46q19 0 17 -18q-6 -48 -38 -75.5t-82 -27.5zM197 -11q-77 0 -124 46t-47 121q0 66 45.5 108.5t117.5 42.5h50v43q0 23 -12 36.5t-33 13.5q-42 0 -44 -44
q-1 -13 -18 -13h-82q-17 0 -17 18q6 68 50 109.5t112 41.5q73 0 117.5 -47t44.5 -122v-192q0 -74 -42.5 -118t-117.5 -44zM195 101q44 0 44 49v54h-43q-24 0 -37.5 -13t-13.5 -35q0 -26 13 -40.5t37 -14.5z" />
    <glyph glyph-name="Aogonek" unicode="&#x104;" horiz-adv-x="453" 
d="M369 -208q-70 0 -102.5 21t-32.5 69q0 62 43 118v215h-105v-197q0 -18 -18 -18h-92q-18 0 -18 18v504q0 85 49.5 137t130.5 52q82 0 131.5 -52t49.5 -137v-501q0 -20 -18 -32q-47 -34 -47 -72q0 -36 43 -36h9q17 0 17 -17v-54q0 -18 -16 -18h-24zM172 330h105v201
q0 30 -14 46.5t-39 16.5t-38.5 -17t-13.5 -46v-201z" />
    <glyph glyph-name="aogonek" unicode="&#x105;" horiz-adv-x="391" 
d="M315 -208q-71 -7 -115.5 14t-44.5 75q0 55 43 108q-6 -1 -14 -1q-71 4 -114.5 50.5t-43.5 117.5q0 66 46 108.5t118 42.5h50v43q0 22 -12.5 36t-32.5 14q-43 0 -46 -40q-1 -13 -18 -13h-82q-17 0 -16 18q5 66 50 106.5t113 40.5q72 0 117 -47t45 -122v-200
q0 -71 -44 -117q-52 -57 -52 -105q0 -40 52 -40q18 0 18 -17v-54q0 -16 -17 -18zM194 101q46 0 46 41v62h-45q-23 0 -36.5 -13t-13.5 -35q0 -26 13 -40.5t36 -14.5z" />
    <glyph glyph-name="Cacute" unicode="&#x106;" horiz-adv-x="412" 
d="M161 769q-11 0 -14.5 6.5t2.5 14.5l61 90q7 11 21 11h70q11 0 13.5 -7t-4.5 -15l-77 -90q-9 -10 -22 -10h-50zM217 -12q-81 0 -130.5 52t-49.5 136v348q0 85 49.5 136.5t130.5 51.5q77 0 124 -53.5t50 -145.5q0 -18 -17 -18h-91q-17 0 -17 17q-3 82 -52 82
q-24 0 -37.5 -16t-13.5 -45v-366q0 -29 13.5 -45t37.5 -16q53 0 56 91q2 17 17 17h91q19 0 17 -19q-3 -97 -50.5 -152t-127.5 -55z" />
    <glyph glyph-name="cacute" unicode="&#x107;" horiz-adv-x="387" 
d="M278 681q11 0 13.5 -6.5t-3.5 -14.5l-72 -91q-7 -11 -21 -11h-51q-11 0 -14 6t3 15l54 90q9 12 21 12h70zM199 -12q-74 0 -120 47t-46 123v185q0 75 45.5 122t118.5 47q70 0 114.5 -43t49.5 -116q1 -18 -17 -18h-85q-15 0 -17 18q-6 47 -45 47q-21 0 -33 -14t-12 -37
v-198q0 -23 12 -37t34 -14q41 0 47 52q1 18 17 18h85q19 0 17 -20q-5 -74 -50 -118t-115 -44z" />
    <glyph glyph-name="Cdotaccent" unicode="&#x10a;" horiz-adv-x="412" 
d="M209 767q-29 0 -47.5 19t-18.5 47q0 29 18.5 47.5t47.5 18.5q28 0 47 -19t19 -47q0 -27 -19.5 -46.5t-46.5 -19.5zM217 -12q-81 0 -130.5 52t-49.5 136v348q0 85 49.5 136.5t130.5 51.5q77 0 124 -53.5t50 -145.5q0 -18 -17 -18h-91q-17 0 -17 17q-3 82 -52 82
q-24 0 -37.5 -16t-13.5 -45v-366q0 -29 13.5 -45t37.5 -16q53 0 56 91q2 17 17 17h91q19 0 17 -19q-3 -97 -50.5 -152t-127.5 -55z" />
    <glyph glyph-name="cdotaccent" unicode="&#x10b;" horiz-adv-x="387" 
d="M197 560q-29 0 -47.5 19t-18.5 47q0 29 18.5 47.5t47.5 18.5q28 0 47 -19t19 -47q0 -27 -19.5 -46.5t-46.5 -19.5zM199 -12q-74 0 -120 47t-46 123v185q0 75 45.5 122t118.5 47q70 0 114.5 -43t49.5 -116q1 -18 -17 -18h-85q-15 0 -17 18q-6 47 -45 47q-21 0 -33 -14
t-12 -37v-198q0 -23 12 -37t34 -14q41 0 47 52q1 18 17 18h85q19 0 17 -20q-5 -74 -50 -118t-115 -44z" />
    <glyph glyph-name="Ccaron" unicode="&#x10c;" horiz-adv-x="412" 
d="M330 870l-62 -90q-9 -11 -22 -11h-75q-14 0 -22 11l-62 90q-7 8 -3.5 14.5t14.5 6.5h49q12 0 21 -10l41 -49l40 49q7 10 21 10h49q10 0 13.5 -6.5t-2.5 -14.5zM217 -12q-81 0 -130.5 52t-49.5 136v348q0 85 49.5 136.5t130.5 51.5q77 0 124 -53.5t50 -145.5
q0 -18 -17 -18h-91q-17 0 -17 17q-3 82 -52 82q-24 0 -37.5 -16t-13.5 -45v-366q0 -29 13.5 -45t37.5 -16q53 0 56 91q2 17 17 17h91q19 0 17 -19q-3 -97 -50.5 -152t-127.5 -55z" />
    <glyph glyph-name="ccaron" unicode="&#x10d;" horiz-adv-x="387" 
d="M90 682h49q14 0 21 -11l37 -47l35 47q8 11 22 11h48q10 0 13.5 -6.5t-1.5 -14.5l-60 -91q-7 -11 -21 -11h-74q-13 0 -21 11l-60 91q-5 8 -1.5 14.5t13.5 6.5zM199 -12q-74 0 -120 47t-46 123v185q0 75 45.5 122t118.5 47q70 0 114.5 -43t49.5 -116q1 -18 -17 -18h-85
q-15 0 -17 18q-6 47 -45 47q-21 0 -33 -14t-12 -37v-198q0 -23 12 -37t34 -14q41 0 47 52q1 18 17 18h85q19 0 17 -20q-5 -74 -50 -118t-115 -44z" />
    <glyph glyph-name="Dcaron" unicode="&#x10e;" horiz-adv-x="442" 
d="M341 870l-62 -90q-9 -11 -22 -11h-75q-14 0 -22 11l-62 90q-7 8 -3.5 14.5t14.5 6.5h49q12 0 21 -10l41 -49l40 49q7 10 21 10h49q10 0 13.5 -6.5t-2.5 -14.5zM102 -4q-53 0 -53 52v604q0 52 53 52h123q81 0 130.5 -52t49.5 -136v-332q0 -84 -49.5 -136t-130.5 -52h-123z
M174 111h44q61 0 61 69v340q0 69 -61 69h-44v-478z" />
    <glyph glyph-name="dcaron" unicode="&#x10f;" horiz-adv-x="524" 
d="M497 705q19 0 16 -19l-37 -189q-3 -16 -19 -16h-40q-18 0 -18 18l10 190q2 16 18 16h70zM347 700q17 0 17 -17v-525q0 -76 -45.5 -123t-119.5 -47q-75 0 -120.5 47t-45.5 123v185q0 76 39.5 122.5t105.5 46.5q43 0 69 -23v194q0 17 17 17h83zM247 151v198q0 23 -13 37
t-35 14t-35 -14t-13 -37v-198q0 -23 13 -37t35 -14t35 14t13 37z" />
    <glyph glyph-name="Dcroat" unicode="&#x110;" horiz-adv-x="471" 
d="M255 704q81 0 130.5 -52t49.5 -136v-332q0 -84 -49.5 -136t-130.5 -52h-123q-53 0 -53 52v272h-37q-18 0 -18 17v41q0 18 18 18h37v256q0 52 53 52h123zM309 180v340q0 69 -61 69h-44v-193h34q17 0 17 -18v-41q0 -17 -17 -17h-34v-209h44q61 0 61 69z" />
    <glyph glyph-name="dcroat" unicode="&#x111;" horiz-adv-x="422" 
d="M403 640q17 0 17 -17v-26q0 -18 -17 -18h-39v-421q0 -76 -45.5 -123t-119.5 -47q-75 0 -120.5 47t-45.5 123v185q0 76 39.5 122.5t105.5 46.5q43 0 69 -23v90h-73q-17 0 -17 18v26q0 17 17 17h73v43q0 17 17 17h83q17 0 17 -17v-43h39zM247 151v198q0 23 -13 37t-35 14
t-35 -14t-13 -37v-198q0 -23 13 -37t35 -14t35 14t13 37z" />
    <glyph glyph-name="Emacron" unicode="&#x112;" horiz-adv-x="362" 
d="M109 840q0 17 18 17h149q17 0 17 -17v-38q0 -18 -17 -18h-149q-18 0 -18 18v38zM217 -4q-81 0 -130.5 52t-49.5 136v333q0 83 49.5 135t130.5 52h105q18 0 18 -17v-80q0 -18 -18 -18h-90q-32 0 -50.5 -20.5t-18.5 -55.5v-104h134q18 0 18 -18v-76q0 -18 -18 -18h-134
v-110q0 -35 18.5 -55.5t50.5 -20.5h90q18 0 18 -17v-81q0 -17 -18 -17h-105z" />
    <glyph glyph-name="emacron" unicode="&#x113;" horiz-adv-x="391" 
d="M104 638q0 17 18 17h149q17 0 17 -17v-38q0 -18 -17 -18h-149q-18 0 -18 18v38zM196 -11q-73 0 -118 46.5t-45 122.5v189q2 74 47 119t119 45q72 2 119 -44t47 -119q0 -69 -45.5 -112t-118.5 -43h-49v-42q0 -24 12 -37.5t33 -13.5q39 0 45 42q3 17 18 17h84q17 0 17 -18
q-5 -68 -50 -110t-115 -42zM152 297h49q22 0 34 12.5t12 35.5q0 55 -48 55q-47 0 -47 -51v-52z" />
    <glyph glyph-name="Edotaccent" unicode="&#x116;" horiz-adv-x="362" 
d="M202 767q-29 0 -47.5 19t-18.5 47q0 29 18.5 47.5t47.5 18.5q28 0 47 -19t19 -47q0 -27 -19.5 -46.5t-46.5 -19.5zM217 -4q-81 0 -130.5 52t-49.5 136v333q0 83 49.5 135t130.5 52h105q18 0 18 -17v-80q0 -18 -18 -18h-90q-32 0 -50.5 -20.5t-18.5 -55.5v-104h134
q18 0 18 -18v-76q0 -18 -18 -18h-134v-110q0 -35 18.5 -55.5t50.5 -20.5h90q18 0 18 -17v-81q0 -17 -18 -17h-105z" />
    <glyph glyph-name="edotaccent" unicode="&#x117;" horiz-adv-x="391" 
d="M197 560q-29 0 -47.5 19t-18.5 47q0 29 18.5 47.5t47.5 18.5q28 0 47 -19t19 -47q0 -27 -19.5 -46.5t-46.5 -19.5zM196 -11q-73 0 -118 46.5t-45 122.5v189q2 74 47 119t119 45q72 2 119 -44t47 -119q0 -69 -45.5 -112t-118.5 -43h-49v-42q0 -24 12 -37.5t33 -13.5
q39 0 45 42q3 17 18 17h84q17 0 17 -18q-5 -68 -50 -110t-115 -42zM152 297h49q22 0 34 12.5t12 35.5q0 55 -48 55q-47 0 -47 -51v-52z" />
    <glyph glyph-name="Eogonek" unicode="&#x118;" horiz-adv-x="364" 
d="M232 589q-32 0 -50.5 -20.5t-18.5 -55.5v-104h134q18 0 18 -18v-76q0 -18 -18 -18h-134v-110q0 -35 18.5 -55.5t50.5 -20.5h90q18 0 18 -17v-81q0 -17 -18 -17h-12q-47 -39 -47 -79q0 -36 43 -36h8q18 0 18 -17v-54q0 -17 -17 -17q-8 -1 -23 -1q-70 0 -103 21t-33 69
q0 59 48 114q-76 4 -121.5 56t-45.5 132v333q0 83 49.5 135t130.5 52h105q18 0 18 -17v-80q0 -18 -18 -18h-90z" />
    <glyph glyph-name="eogonek" unicode="&#x119;" horiz-adv-x="391" 
d="M282 -208q-60 -11 -110.5 13t-50.5 80q0 61 44 110q-5 -1 -16 1q-53 7 -84.5 53.5t-31.5 108.5v189q0 72 46.5 118.5t119.5 46.5q72 0 118.5 -45t46.5 -117q0 -71 -46 -114t-119 -43h-47v-42q0 -51 46 -51q20 0 31 13.5t13 36.5q3 17 19 17h83q17 0 17 -20
q1 -67 -77 -136q-60 -53 -60 -93q0 -37 56 -37q18 0 18 -17v-54q0 -15 -16 -18zM152 297h47q46 0 46 50q0 53 -47 53q-22 0 -34 -13.5t-12 -36.5v-53z" />
    <glyph glyph-name="Ecaron" unicode="&#x11a;" horiz-adv-x="362" 
d="M323 870l-62 -90q-9 -11 -22 -11h-75q-14 0 -22 11l-62 90q-7 8 -3.5 14.5t14.5 6.5h49q12 0 21 -10l41 -49l40 49q7 10 21 10h49q10 0 13.5 -6.5t-2.5 -14.5zM217 -4q-81 0 -130.5 52t-49.5 136v333q0 83 49.5 135t130.5 52h105q18 0 18 -17v-80q0 -18 -18 -18h-90
q-32 0 -50.5 -20.5t-18.5 -55.5v-104h134q18 0 18 -18v-76q0 -18 -18 -18h-134v-110q0 -35 18.5 -55.5t50.5 -20.5h90q18 0 18 -17v-81q0 -17 -18 -17h-105z" />
    <glyph glyph-name="ecaron" unicode="&#x11b;" horiz-adv-x="391" 
d="M90 682h49q14 0 21 -11l37 -47l35 47q8 11 22 11h48q10 0 13.5 -6.5t-1.5 -14.5l-60 -91q-7 -11 -21 -11h-74q-13 0 -21 11l-60 91q-5 8 -1.5 14.5t13.5 6.5zM196 -11q-73 0 -118 46.5t-45 122.5v189q2 74 47 119t119 45q72 2 119 -44t47 -119q0 -69 -45.5 -112
t-118.5 -43h-49v-42q0 -24 12 -37.5t33 -13.5q39 0 45 42q3 17 18 17h84q17 0 17 -18q-5 -68 -50 -110t-115 -42zM152 297h49q22 0 34 12.5t12 35.5q0 55 -48 55q-47 0 -47 -51v-52z" />
    <glyph glyph-name="Gbreve" unicode="&#x11e;" horiz-adv-x="428" 
d="M215 767q-50 0 -82.5 28t-38.5 75q-2 19 18 19h45q13 0 19 -16q8 -25 39 -25t39 25q6 16 18 16h46q18 0 18 -19q-6 -47 -38.5 -75t-82.5 -28zM218 -12q-81 0 -131 52t-50 137v347q0 84 49 136t129 52q77 0 127 -53.5t52 -141.5q0 -18 -17 -18h-90q-17 0 -19 17
q-3 79 -53 79q-25 0 -38.5 -16.5t-13.5 -45.5v-365q0 -29 16 -46t42 -17q25 0 40.5 16.5t15.5 43.5v113h-40q-18 0 -18 18v72q0 18 18 18h112q52 0 52 -53v-159q0 -83 -50.5 -134.5t-132.5 -51.5z" />
    <glyph glyph-name="gbreve" unicode="&#x11f;" horiz-adv-x="405" 
d="M201 560q-50 0 -82.5 28t-38.5 75q-2 18 17 18h46q13 0 19 -16q8 -25 39 -25q29 0 39 25q6 16 18 16h46q19 0 17 -18q-6 -48 -38 -75.5t-82 -27.5zM200 512q74 0 120 -47t46 -122v-386q0 -79 -44.5 -124t-121.5 -45q-73 0 -117 44.5t-49 121.5q-2 18 17 18h84
q15 0 18 -18q5 -54 47 -54q23 0 35.5 13.5t12.5 37.5v87q-27 -21 -63 -21q-65 0 -108.5 47t-43.5 122v157q0 75 46 122t121 47zM200 128q22 0 35 14t13 37v170q0 23 -13 37t-35 14t-35 -14t-13 -37v-170q0 -23 13 -37t35 -14z" />
    <glyph glyph-name="Gdotaccent" unicode="&#x120;" horiz-adv-x="428" 
d="M215 767q-29 0 -47.5 19t-18.5 47q0 29 18.5 47.5t47.5 18.5q28 0 47 -19t19 -47q0 -27 -19.5 -46.5t-46.5 -19.5zM218 -12q-81 0 -131 52t-50 137v347q0 84 49 136t129 52q77 0 127 -53.5t52 -141.5q0 -18 -17 -18h-90q-17 0 -19 17q-3 79 -53 79q-25 0 -38.5 -16.5
t-13.5 -45.5v-365q0 -29 16 -46t42 -17q25 0 40.5 16.5t15.5 43.5v113h-40q-18 0 -18 18v72q0 18 18 18h112q52 0 52 -53v-159q0 -83 -50.5 -134.5t-132.5 -51.5z" />
    <glyph glyph-name="gdotaccent" unicode="&#x121;" horiz-adv-x="405" 
d="M201 560q-29 0 -47.5 19t-18.5 47q0 29 18.5 47.5t47.5 18.5q28 0 47 -19t19 -47q0 -27 -19.5 -46.5t-46.5 -19.5zM200 512q74 0 120 -47t46 -122v-386q0 -79 -44.5 -124t-121.5 -45q-73 0 -117 44.5t-49 121.5q-2 18 17 18h84q15 0 18 -18q5 -54 47 -54q23 0 35.5 13.5
t12.5 37.5v87q-27 -21 -63 -21q-65 0 -108.5 47t-43.5 122v157q0 75 46 122t121 47zM200 128q22 0 35 14t13 37v170q0 23 -13 37t-35 14t-35 -14t-13 -37v-170q0 -23 13 -37t35 -14z" />
    <glyph glyph-name="Gcommaaccent" unicode="&#x122;" horiz-adv-x="428" 
d="M218 -12q-81 0 -131 52t-50 137v347q0 84 49 136t129 52q77 0 127 -53.5t52 -141.5q0 -18 -17 -18h-90q-17 0 -19 17q-3 79 -53 79q-25 0 -38.5 -16.5t-13.5 -45.5v-365q0 -29 16 -46t42 -17q25 0 40.5 16.5t15.5 43.5v113h-40q-18 0 -18 18v72q0 18 18 18h112
q52 0 52 -53v-159q0 -83 -50.5 -134.5t-132.5 -51.5zM162 -70q2 16 18 16h70q19 0 16 -19l-37 -189q-3 -16 -19 -16h-40q-18 0 -18 18z" />
    <glyph glyph-name="gcommaaccent" unicode="&#x123;" horiz-adv-x="404" 
d="M167 562q-16 0 -18 17l-10 151q0 18 18 18h43q15 0 19 -16l32 -150q3 -20 -16 -20h-68zM200 512q74 0 120 -47t46 -122v-386q0 -79 -44.5 -124t-121.5 -45q-73 0 -117 44.5t-49 121.5q-2 18 17 18h84q15 0 18 -18q5 -54 47 -54q23 0 35.5 13.5t12.5 37.5v87
q-27 -21 -63 -21q-65 0 -108.5 47t-43.5 122v157q0 75 46 122t121 47zM200 128q22 0 35 14t13 37v170q0 23 -13 37t-35 14t-35 -14t-13 -37v-170q0 -23 13 -37t35 -14z" />
    <glyph glyph-name="Hbar" unicode="&#x126;" horiz-adv-x="523" 
d="M482 581q17 0 17 -17v-48q0 -18 -17 -18h-46v-480q0 -18 -17 -18h-90q-17 0 -17 18v278h-101v-278q0 -18 -17 -18h-90q-17 0 -17 18v480h-45q-18 0 -18 18v48q0 17 18 17h45v102q0 17 17 17h90q17 0 17 -17v-102h101v102q0 17 17 17h90q17 0 17 -17v-102h46zM312 411v87
h-101v-87h101z" />
    <glyph glyph-name="hbar" unicode="&#x127;" horiz-adv-x="446" 
d="M96 0q-17 0 -17 18v548h-52q-17 0 -17 17v37q0 18 17 18h52v45q0 17 17 17h83q18 0 18 -17v-45h113q18 0 18 -18v-37q0 -17 -18 -17h-113v-83q24 21 59 21q68 0 110 -47t42 -123v-316q0 -18 -18 -18h-83q-18 0 -18 18v323q0 24 -12 38t-34 14t-34 -14t-12 -38v-323
q0 -18 -18 -18h-83z" />
    <glyph glyph-name="Imacron" unicode="&#x12a;" horiz-adv-x="223" 
d="M19 840q0 17 18 17h149q17 0 17 -17v-38q0 -18 -17 -18h-149q-18 0 -18 18v38zM49 683q0 17 18 17h89q18 0 18 -17v-665q0 -18 -18 -18h-89q-18 0 -18 18v665z" />
    <glyph glyph-name="imacron" unicode="&#x12b;" horiz-adv-x="182" 
d="M1 638q0 17 18 17h144q18 0 18 -17v-38q0 -18 -18 -18h-144q-18 0 -18 18v38zM49 0q-18 0 -18 18v465q0 17 18 17h82q18 0 18 -17v-465q0 -18 -18 -18h-82z" />
    <glyph glyph-name="Iogonek" unicode="&#x12e;" horiz-adv-x="217" 
d="M174 -119q17 0 17 -17v-54q0 -14 -16 -17q-8 -1 -24 -1q-140 0 -140 90q0 63 52 118q-17 0 -17 18v665q0 17 18 17h89q18 0 18 -17v-665q0 -18 -17 -18q-37 -40 -37 -82q0 -37 48 -37h9z" />
    <glyph glyph-name="iogonek" unicode="&#x12f;" horiz-adv-x="227" 
d="M113 560q-28 0 -46.5 19t-18.5 47t19 47t47 19t47 -18.5t19 -46.5q0 -27 -19.5 -47t-47.5 -20zM133 -209q-62 0 -93.5 24t-31.5 64q0 65 49 121v483q0 17 18 17h83q18 0 18 -17v-469q0 -11 -20 -29q-43 -36 -43 -68t56 -34h3q18 0 18 -18v-53q0 -12 -12.5 -16.5
t-44.5 -4.5z" />
    <glyph glyph-name="Idotaccent" unicode="&#x130;" horiz-adv-x="223" 
d="M112 767q-29 0 -47.5 19t-18.5 47q0 29 18.5 47.5t47.5 18.5q28 0 47 -19t19 -47q0 -27 -19.5 -46.5t-46.5 -19.5zM49 683q0 17 18 17h89q18 0 18 -17v-665q0 -18 -18 -18h-89q-18 0 -18 18v665z" />
    <glyph glyph-name="dotlessi" unicode="&#x131;" horiz-adv-x="206" 
d="M62 0q-18 0 -18 18v465q0 17 18 17h82q18 0 18 -17v-465q0 -18 -18 -18h-82z" />
    <glyph glyph-name="Kcommaaccent" unicode="&#x136;" horiz-adv-x="447" 
d="M67 0q-18 0 -18 18v665q0 17 18 17h89q18 0 18 -17v-277h53l57 279q3 15 20 15h89q21 0 16 -19l-74 -312q69 -43 69 -152v-199q0 -18 -18 -18h-91q-17 0 -17 18v203q0 70 -62 70h-42v-273q0 -18 -18 -18h-89zM172 -70q2 16 18 16h70q19 0 16 -19l-37 -189q-3 -16 -19 -16
h-40q-18 0 -18 18z" />
    <glyph glyph-name="kcommaaccent" unicode="&#x137;" horiz-adv-x="400" 
d="M296 283q72 -43 72 -139v-126q0 -18 -17 -18h-84q-17 0 -17 18v133q0 22 -13 35.5t-35 13.5h-40v-182q0 -18 -18 -18h-82q-18 0 -18 18v665q0 17 18 17h82q18 0 18 -17v-372h26l68 175q4 14 20 14h85q10 0 14.5 -5.5t0.5 -14.5zM147 -70q2 16 18 16h70q19 0 16 -19
l-37 -189q-3 -16 -19 -16h-40q-18 0 -18 18z" />
    <glyph glyph-name="Lacute" unicode="&#x139;" horiz-adv-x="357" 
d="M61 769q-11 0 -14.5 6.5t2.5 14.5l61 90q7 11 21 11h70q11 0 13.5 -7t-4.5 -15l-77 -90q-9 -10 -22 -10h-50zM226 111h103q18 0 18 -17v-81q0 -17 -18 -17h-114q-79 0 -125 50.5t-46 130.5v506q0 17 18 17h91q18 0 18 -17v-500q0 -34 15.5 -53t39.5 -19z" />
    <glyph glyph-name="lacute" unicode="&#x13a;" horiz-adv-x="225" 
d="M63 769q-11 0 -14.5 6.5t2.5 14.5l61 90q7 11 21 11h70q11 0 13.5 -7t-4.5 -15l-77 -90q-9 -10 -22 -10h-50zM62 0q-18 0 -18 18v665q0 17 18 17h82q18 0 18 -17v-665q0 -18 -18 -18h-82z" />
    <glyph glyph-name="Lcommaaccent" unicode="&#x13b;" horiz-adv-x="357" 
d="M226 111h103q18 0 18 -17v-81q0 -17 -18 -17h-114q-79 0 -125 50.5t-46 130.5v506q0 17 18 17h91q18 0 18 -17v-500q0 -34 15.5 -53t39.5 -19zM128 -70q2 16 18 16h70q19 0 16 -19l-37 -189q-3 -16 -19 -16h-40q-18 0 -18 18z" />
    <glyph glyph-name="lcommaaccent" unicode="&#x13c;" horiz-adv-x="206" 
d="M62 0q-18 0 -18 18v665q0 17 18 17h82q18 0 18 -17v-665q0 -18 -18 -18h-82zM47 -70q2 16 18 16h70q19 0 16 -19l-37 -189q-3 -16 -19 -16h-40q-18 0 -18 18z" />
    <glyph glyph-name="Lcaron" unicode="&#x13d;" horiz-adv-x="356" 
d="M236 492q-19 0 -17 19l9 173q2 17 18 17h71q18 0 16 -19l-31 -174q-2 -16 -18 -16h-48zM213 -4q-79 0 -124.5 51t-45.5 130v506q0 17 17 17h92q18 0 18 -17v-499q0 -34 15.5 -53t39.5 -19h103q18 0 18 -18v-80q0 -18 -18 -18h-115z" />
    <glyph glyph-name="lcaron" unicode="&#x13e;" horiz-adv-x="332" 
d="M225 492q-19 0 -17 19l10 173q0 17 17 17h71q19 0 16 -19l-30 -174q-3 -16 -19 -16h-48zM62 0q-18 0 -18 18v665q0 17 18 17h82q18 0 18 -17v-665q0 -18 -18 -18h-82z" />
    <glyph glyph-name="Lslash" unicode="&#x141;" horiz-adv-x="412" 
d="M387 111q18 0 18 -17v-81q0 -17 -18 -17h-114q-79 0 -125 50.5t-46 130.5v111l-63 -24q-20 -8 -20 14v68q0 15 14 20l69 26v291q0 17 18 17h91q18 0 18 -17v-242l94 36q20 7 20 -14v-69q0 -14 -14 -20l-100 -38v-153q0 -34 15.5 -53t39.5 -19h103z" />
    <glyph glyph-name="lslash" unicode="&#x142;" horiz-adv-x="241" 
d="M218 492q21 6 21 -14v-57q0 -15 -14 -20l-45 -18v-365q0 -18 -18 -18h-82q-18 0 -18 18v318l-39 -16q-20 -8 -20 13v57q0 15 14 20l45 18v255q0 17 18 17h82q18 0 18 -17v-207z" />
    <glyph glyph-name="Nacute" unicode="&#x143;" horiz-adv-x="447" 
d="M176 769q-11 0 -14.5 6.5t2.5 14.5l61 90q7 11 21 11h70q11 0 13.5 -7t-4.5 -15l-77 -90q-9 -10 -22 -10h-50zM62 0q-18 0 -18 18v505q0 84 49 136.5t130 52.5t130.5 -52.5t49.5 -136.5v-505q0 -18 -18 -18h-90q-18 0 -18 18v514q0 29 -14.5 46t-39.5 17t-39.5 -17
t-14.5 -46v-514q0 -18 -17 -18h-90z" />
    <glyph glyph-name="nacute" unicode="&#x144;" horiz-adv-x="404" 
d="M283 681q11 0 13.5 -6.5t-3.5 -14.5l-72 -91q-7 -11 -21 -11h-51q-11 0 -14 6t3 15l54 90q9 12 21 12h70zM56 0q-17 0 -17 18v325q0 75 45 122t118 47t118 -47t45 -122v-325q0 -18 -17 -18h-83q-18 0 -18 18v331q0 23 -12 37.5t-33 14.5t-33.5 -14t-12.5 -38v-331
q0 -18 -17 -18h-83z" />
    <glyph glyph-name="Ncommaaccent" unicode="&#x145;" horiz-adv-x="447" 
d="M62 0q-18 0 -18 18v505q0 84 49 136.5t130 52.5t130.5 -52.5t49.5 -136.5v-505q0 -18 -18 -18h-90q-18 0 -18 18v514q0 29 -14.5 46t-39.5 17t-39.5 -17t-14.5 -46v-514q0 -18 -17 -18h-90zM172 -70q2 16 18 16h70q19 0 16 -19l-37 -189q-3 -16 -19 -16h-40q-18 0 -18 18
z" />
    <glyph glyph-name="ncommaaccent" unicode="&#x146;" horiz-adv-x="402" 
d="M56 0q-17 0 -17 18v325q0 75 45 122t118 47t118 -47t45 -122v-325q0 -18 -17 -18h-83q-18 0 -18 18v331q0 23 -12 37.5t-33 14.5t-33.5 -14t-12.5 -38v-331q0 -18 -17 -18h-83zM158 -70q2 16 18 16h70q19 0 16 -19l-37 -189q-3 -16 -19 -16h-40q-18 0 -18 18z" />
    <glyph glyph-name="Ncaron" unicode="&#x147;" horiz-adv-x="447" 
d="M345 870l-62 -90q-9 -11 -22 -11h-75q-14 0 -22 11l-62 90q-7 8 -3.5 14.5t14.5 6.5h49q12 0 21 -10l41 -49l40 49q7 10 21 10h49q10 0 13.5 -6.5t-2.5 -14.5zM62 0q-18 0 -18 18v505q0 84 49 136.5t130 52.5t130.5 -52.5t49.5 -136.5v-505q0 -18 -18 -18h-90
q-18 0 -18 18v514q0 29 -14.5 46t-39.5 17t-39.5 -17t-14.5 -46v-514q0 -18 -17 -18h-90z" />
    <glyph glyph-name="ncaron" unicode="&#x148;" horiz-adv-x="404" 
d="M95 682h49q14 0 21 -11l37 -47l35 47q8 11 22 11h48q10 0 13.5 -6.5t-1.5 -14.5l-60 -91q-7 -11 -21 -11h-74q-13 0 -21 11l-60 91q-5 8 -1.5 14.5t13.5 6.5zM56 0q-17 0 -17 18v325q0 75 45 122t118 47t118 -47t45 -122v-325q0 -18 -17 -18h-83q-18 0 -18 18v331
q0 23 -12 37.5t-33 14.5t-33.5 -14t-12.5 -38v-331q0 -18 -17 -18h-83z" />
    <glyph glyph-name="Eng" unicode="&#x14a;" horiz-adv-x="447" 
d="M205 -205q-21 0 -21 18v77q0 18 17 18q76 1 76 76v548q0 29 -14.5 46t-39.5 17t-39.5 -17t-14.5 -46v-514q0 -18 -17 -18h-90q-18 0 -18 18v505q0 84 49 136.5t130 52.5t130.5 -52.5t49.5 -136.5v-524q0 -97 -51 -150t-147 -54z" />
    <glyph glyph-name="eng" unicode="&#x14b;" horiz-adv-x="404" 
d="M173 -211q-17 0 -17 17v76q0 18 17 18q36 0 55 21t19 58v370q0 23 -12 37.5t-33 14.5t-33.5 -14t-12.5 -38v-331q0 -18 -17 -18h-83q-17 0 -17 18v325q0 75 45 122t118 47t118 -47t45 -122v-349q0 -97 -50 -151t-142 -54z" />
    <glyph glyph-name="Omacron" unicode="&#x14c;" horiz-adv-x="441" 
d="M127 840q0 17 18 17h149q17 0 17 -17v-38q0 -18 -17 -18h-149q-18 0 -18 18v38zM221 -11q-82 0 -133 52.5t-51 138.5v340q0 86 51 138.5t133 52.5t132.5 -52t50.5 -136v-346q0 -84 -50.5 -136t-132.5 -52zM221 106q26 0 41.5 16.5t15.5 45.5v364q0 29 -15.5 46t-41.5 17
t-42 -17.5t-16 -48.5v-358q0 -30 15.5 -47.5t42.5 -17.5z" />
    <glyph glyph-name="omacron" unicode="&#x14d;" horiz-adv-x="400" 
d="M108 638q0 17 18 17h149q17 0 17 -17v-38q0 -18 -17 -18h-149q-18 0 -18 18v38zM200 -12q-75 0 -121 47t-46 123v185q0 75 46 122t121 47t121 -47t46 -122v-185q0 -76 -46 -123t-121 -47zM200 100q22 0 35 14t13 37v198q0 24 -13 38t-35 14t-35 -14t-13 -38v-198
q0 -23 13 -37t35 -14z" />
    <glyph glyph-name="Ohungarumlaut" unicode="&#x150;" horiz-adv-x="441" 
d="M104 769q-11 0 -14.5 6.5t3.5 14.5l60 90q8 11 22 11h69q11 0 14 -7t-5 -15l-77 -90q-9 -10 -22 -10h-50zM249 769q-10 0 -13.5 6.5t2.5 14.5l60 90q8 11 22 11h69q11 0 14 -7t-5 -15l-77 -90q-9 -10 -22 -10h-50zM221 -11q-82 0 -133 52.5t-51 138.5v340q0 86 51 138.5
t133 52.5t132.5 -52t50.5 -136v-346q0 -84 -50.5 -136t-132.5 -52zM221 106q26 0 41.5 16.5t15.5 45.5v364q0 29 -15.5 46t-41.5 17t-42 -17.5t-16 -48.5v-358q0 -30 15.5 -47.5t42.5 -17.5z" />
    <glyph glyph-name="ohungarumlaut" unicode="&#x151;" horiz-adv-x="400" 
d="M228 682q11 0 14 -6.5t-4 -14.5l-71 -91q-8 -11 -22 -11h-40q-23 0 -11 21l54 90q9 12 21 12h59zM358 682q10 0 13 -6.5t-4 -14.5l-71 -91q-7 -11 -21 -11h-40q-10 0 -13.5 6t1.5 15l55 90q7 12 21 12h59zM200 -12q-75 0 -121 47t-46 123v185q0 75 46 122t121 47t121 -47
t46 -122v-185q0 -76 -46 -123t-121 -47zM200 100q22 0 35 14t13 37v198q0 24 -13 38t-35 14t-35 -14t-13 -38v-198q0 -23 13 -37t35 -14z" />
    <glyph glyph-name="OE" unicode="&#x152;" horiz-adv-x="592" 
d="M216 -11q-80 0 -129.5 52t-49.5 136v346q0 84 49.5 136t129.5 52q76 0 120 -57q46 51 112 51h105q17 0 17 -18v-80q0 -17 -17 -17h-90q-32 0 -51 -21.5t-19 -56.5v-103h132q17 0 17 -18v-76q0 -18 -17 -18h-132v-109q0 -35 19 -56t51 -21h90q17 0 17 -18v-80
q0 -18 -17 -18h-105q-67 0 -112 55q-44 -61 -120 -61zM216 106q25 0 39 17.5t14 46.5v360q0 29 -14 46.5t-39 17.5t-39.5 -17t-14.5 -45v-364q0 -28 14.5 -45t39.5 -17z" />
    <glyph glyph-name="oe" unicode="&#x153;" horiz-adv-x="600" 
d="M198 -12q-74 0 -119.5 47t-45.5 123v185q0 75 46 122t119 47q63 0 105 -45q40 45 105 45q71 1 117.5 -44.5t46.5 -119.5q0 -69 -45 -112t-117 -43h-47v-42q0 -24 11.5 -37.5t32.5 -13.5q37 0 44 36q4 17 18 17h84q18 0 16 -17q-5 -66 -49.5 -107t-113.5 -41
q-62 0 -103 48q-45 -48 -105 -48zM198 100q22 0 34.5 14t12.5 37v198q0 23 -12.5 37t-34.5 14t-34 -14t-12 -37v-198q0 -23 12 -37t34 -14zM363 297h47q20 0 32 13t12 36q0 54 -46 54q-21 0 -33 -13.5t-12 -36.5v-53z" />
    <glyph glyph-name="Racute" unicode="&#x154;" horiz-adv-x="450" 
d="M176 769q-11 0 -14.5 6.5t2.5 14.5l61 90q7 11 21 11h70q11 0 13.5 -7t-4.5 -15l-77 -90q-9 -10 -22 -10h-50zM62 0q-18 0 -18 18v504q0 85 49.5 137.5t128.5 52.5q82 0 132 -52.5t50 -137.5v-87q0 -106 -74 -157l97 -260q2 -8 -3 -13t-14 -5h-97q-11 0 -18 17l-78 229
h-47v-228q0 -18 -17 -18h-91zM170 361h46q62 0 62 70v100q0 29 -14.5 46t-40.5 17q-24 0 -38.5 -17t-14.5 -46v-170z" />
    <glyph glyph-name="racute" unicode="&#x155;" horiz-adv-x="280" 
d="M238 681q11 0 13.5 -6.5t-3.5 -14.5l-72 -91q-7 -11 -21 -11h-51q-11 0 -14 6t3 15l54 90q9 12 21 12h70zM56 0q-17 0 -17 18v285q0 93 50 145.5t135 52.5h29q18 0 18 -18v-76q0 -17 -18 -17h-25q-33 0 -52.5 -19.5t-19.5 -53.5v-299q0 -18 -17 -18h-83z" />
    <glyph glyph-name="Rcommaaccent" unicode="&#x156;" horiz-adv-x="450" 
d="M62 0q-18 0 -18 18v504q0 85 49.5 137.5t128.5 52.5q82 0 132 -52.5t50 -137.5v-87q0 -106 -74 -157l97 -260q2 -8 -3 -13t-14 -5h-97q-11 0 -18 17l-78 229h-47v-228q0 -18 -17 -18h-91zM170 361h46q62 0 62 70v100q0 29 -14.5 46t-40.5 17q-24 0 -38.5 -17t-14.5 -46
v-170zM172 -70q2 16 18 16h70q19 0 16 -19l-37 -189q-3 -16 -19 -16h-40q-18 0 -18 18z" />
    <glyph glyph-name="rcommaaccent" unicode="&#x157;" horiz-adv-x="280" 
d="M56 0q-17 0 -17 18v285q0 93 50 145.5t135 52.5h29q18 0 18 -18v-76q0 -17 -18 -17h-25q-33 0 -52.5 -19.5t-19.5 -53.5v-299q0 -18 -17 -18h-83zM54 -70q2 16 18 16h70q19 0 16 -19l-37 -189q-3 -16 -19 -16h-40q-18 0 -18 18z" />
    <glyph glyph-name="Rcaron" unicode="&#x158;" horiz-adv-x="450" 
d="M345 870l-62 -90q-9 -11 -22 -11h-75q-14 0 -22 11l-62 90q-7 8 -3.5 14.5t14.5 6.5h49q12 0 21 -10l41 -49l40 49q7 10 21 10h49q10 0 13.5 -6.5t-2.5 -14.5zM62 0q-18 0 -18 18v504q0 85 49.5 137.5t128.5 52.5q82 0 132 -52.5t50 -137.5v-87q0 -106 -74 -157l97 -260
q2 -8 -3 -13t-14 -5h-97q-11 0 -18 17l-78 229h-47v-228q0 -18 -17 -18h-91zM170 361h46q62 0 62 70v100q0 29 -14.5 46t-40.5 17q-24 0 -38.5 -17t-14.5 -46v-170z" />
    <glyph glyph-name="rcaron" unicode="&#x159;" horiz-adv-x="280" 
d="M50 682h49q14 0 21 -11l37 -47l35 47q8 11 22 11h48q10 0 13.5 -6.5t-1.5 -14.5l-60 -91q-7 -11 -21 -11h-74q-13 0 -21 11l-60 91q-5 8 -1.5 14.5t13.5 6.5zM56 0q-17 0 -17 18v285q0 93 50 145.5t135 52.5h29q18 0 18 -18v-76q0 -17 -18 -17h-25q-33 0 -52.5 -19.5
t-19.5 -53.5v-299q0 -18 -17 -18h-83z" />
    <glyph glyph-name="Sacute" unicode="&#x15a;" horiz-adv-x="411" 
d="M155 769q-11 0 -14.5 6.5t2.5 14.5l61 90q7 11 21 11h70q11 0 13.5 -7t-4.5 -15l-77 -90q-9 -10 -22 -10h-50zM206 -12q-82 0 -130.5 55.5t-51.5 152.5q0 18 17 18h90q16 0 18 -17q3 -92 59 -92q53 0 53 58q0 38 -24 74t-57.5 67.5t-67.5 65t-58 79.5t-24 98
q0 76 47 120.5t124 44.5q79 0 126 -53t50 -146q0 -18 -17 -18h-89q-18 0 -18 18q-3 83 -50 83q-49 0 -49 -49q0 -33 24 -66.5t58 -64.5t68.5 -65t58.5 -83t24 -105q0 -80 -49.5 -127.5t-131.5 -47.5z" />
    <glyph glyph-name="sacute" unicode="&#x15b;" horiz-adv-x="390" 
d="M287 681q11 0 13.5 -6.5t-3.5 -14.5l-72 -91q-7 -11 -21 -11h-51q-11 0 -14 6t3 15l54 90q9 12 21 12h70zM200 -12q-80 0 -126 48t-48 113q0 21 17 21h83q15 0 19 -16q7 -54 52 -54q23 0 35.5 12t12.5 31q0 21 -22 37t-53.5 29.5t-62.5 30.5t-53 49.5t-22 76.5
q0 65 45 105.5t115 40.5q80 0 120.5 -45t42.5 -102q0 -18 -17 -18h-83q-15 0 -18 17q-7 37 -44 37q-19 0 -31 -10.5t-12 -27.5q0 -20 22 -35.5t53.5 -29t63 -31t53.5 -50t22 -78.5q0 -66 -45.5 -108.5t-118.5 -42.5z" />
    <glyph glyph-name="Scedilla" unicode="&#x15e;" horiz-adv-x="411" 
d="M387 163q0 -74 -43 -120.5t-115 -53.5l-6 -33h5q31 -2 51.5 -23t20.5 -52q0 -42 -28 -66t-71 -24q-38 0 -63.5 20t-30.5 55q-2 8 2.5 13t13.5 5h27q10 0 19 -14q8 -17 32 -17q15 0 24.5 7.5t9.5 20.5q0 12 -9.5 19.5t-24.5 7.5q-18 0 -35 -3q-6 -2 -11 3l-5 4q-4 4 -3 11
l14 70q-62 14 -98.5 67.5t-38.5 135.5q0 18 17 18h90q16 0 18 -17q3 -92 59 -92q53 0 53 58q0 38 -24 74t-57.5 67.5t-67.5 65t-58 79.5t-24 98q0 76 47 120.5t124 44.5q79 0 126 -53t50 -146q0 -18 -17 -18h-89q-18 0 -18 18q-3 83 -50 83q-49 0 -49 -49q0 -33 24 -66.5
t58 -64.5t68.5 -65t58.5 -83t24 -105z" />
    <glyph glyph-name="scedilla" unicode="&#x15f;" horiz-adv-x="390" 
d="M364 139q0 -58 -35 -98t-94 -50l-6 -35h5q31 -2 51.5 -23t20.5 -52q0 -42 -28 -66t-71 -24q-38 0 -63.5 20t-30.5 55q-2 8 2.5 13t13.5 5h27q10 0 19 -14q8 -17 32 -17q15 0 24.5 7.5t9.5 20.5q0 12 -9.5 19.5t-24.5 7.5q-19 0 -35 -3q-6 -2 -11 3l-5 4q-4 4 -3 11l13 68
q-65 10 -101.5 55t-38.5 103q0 21 17 21h83q15 0 19 -16q7 -54 52 -54q23 0 35.5 12t12.5 31q0 21 -22 37t-53.5 29.5t-62.5 30.5t-53 49.5t-22 76.5q0 65 45 105.5t115 40.5q80 0 120.5 -45t42.5 -102q0 -18 -17 -18h-83q-15 0 -18 17q-7 37 -44 37q-19 0 -31 -10.5
t-12 -27.5q0 -20 22 -35.5t53.5 -29t63 -31t53.5 -50t22 -78.5z" />
    <glyph glyph-name="Scaron" unicode="&#x160;" horiz-adv-x="411" 
d="M324 870l-62 -90q-9 -11 -22 -11h-75q-14 0 -22 11l-62 90q-7 8 -3.5 14.5t14.5 6.5h49q12 0 21 -10l41 -49l40 49q7 10 21 10h49q10 0 13.5 -6.5t-2.5 -14.5zM206 -12q-82 0 -130.5 55.5t-51.5 152.5q0 18 17 18h90q16 0 18 -17q3 -92 59 -92q53 0 53 58q0 38 -24 74
t-57.5 67.5t-67.5 65t-58 79.5t-24 98q0 76 47 120.5t124 44.5q79 0 126 -53t50 -146q0 -18 -17 -18h-89q-18 0 -18 18q-3 83 -50 83q-49 0 -49 -49q0 -33 24 -66.5t58 -64.5t68.5 -65t58.5 -83t24 -105q0 -80 -49.5 -127.5t-131.5 -47.5z" />
    <glyph glyph-name="scaron" unicode="&#x161;" horiz-adv-x="390" 
d="M99 682h49q14 0 21 -11l37 -47l35 47q8 11 22 11h48q10 0 13.5 -6.5t-1.5 -14.5l-60 -91q-7 -11 -21 -11h-74q-13 0 -21 11l-60 91q-5 8 -1.5 14.5t13.5 6.5zM200 -12q-80 0 -126 48t-48 113q0 21 17 21h83q15 0 19 -16q7 -54 52 -54q23 0 35.5 12t12.5 31q0 21 -22 37
t-53.5 29.5t-62.5 30.5t-53 49.5t-22 76.5q0 65 45 105.5t115 40.5q80 0 120.5 -45t42.5 -102q0 -18 -17 -18h-83q-15 0 -18 17q-7 37 -44 37q-19 0 -31 -10.5t-12 -27.5q0 -20 22 -35.5t53.5 -29t63 -31t53.5 -50t22 -78.5q0 -66 -45.5 -108.5t-118.5 -42.5z" />
    <glyph glyph-name="uni0162" unicode="&#x162;" horiz-adv-x="370" 
d="M342 700q18 0 18 -17v-81q0 -17 -18 -17h-95v-567q0 -18 -17 -18h-90q-17 0 -17 18v567h-96q-17 0 -17 17v81q0 17 17 17h315zM133 -70q2 16 18 16h70q19 0 16 -19l-37 -189q-3 -16 -19 -16h-40q-18 0 -18 18z" />
    <glyph glyph-name="uni0163" unicode="&#x163;" horiz-adv-x="306" 
d="M272 107q17 0 17 -17v-77q0 -17 -17 -17h-19q-82 0 -129 50.5t-47 136.5v211h-50q-17 0 -17 17v72q0 17 17 17h50v129q0 17 17 17h83q17 0 17 -17v-129h67q17 0 17 -17v-72q0 -17 -17 -17h-67v-213q0 -74 68 -74h10zM213 -54q19 0 16 -19l-37 -189q-3 -16 -19 -16h-40
q-18 0 -18 18l10 190q2 16 18 16h70z" />
    <glyph glyph-name="Tcaron" unicode="&#x164;" horiz-adv-x="370" 
d="M306 870l-62 -90q-9 -11 -22 -11h-75q-14 0 -22 11l-62 90q-7 8 -3.5 14.5t14.5 6.5h49q12 0 21 -10l41 -49l40 49q7 10 21 10h49q10 0 13.5 -6.5t-2.5 -14.5zM342 700q18 0 18 -17v-81q0 -17 -18 -17h-95v-567q0 -18 -17 -18h-90q-17 0 -17 18v567h-96q-17 0 -17 17v81
q0 17 17 17h315z" />
    <glyph glyph-name="tcaron" unicode="&#x165;" horiz-adv-x="354" 
d="M319 718q9 0 13.5 -5.5t2.5 -13.5l-31 -151q-5 -16 -19 -16h-44q-19 0 -17 19l9 151q2 16 18 16h68zM272 107q17 0 17 -17v-77q0 -17 -17 -17h-19q-82 0 -129 50.5t-47 136.5v211h-50q-17 0 -17 17v72q0 17 17 17h50v129q0 17 17 17h83q17 0 17 -17v-129h67q17 0 17 -17
v-72q0 -17 -17 -17h-67v-213q0 -74 68 -74h10z" />
    <glyph glyph-name="Tbar" unicode="&#x166;" horiz-adv-x="373" 
d="M344 700q17 0 17 -17v-80q0 -18 -17 -18h-95v-162h60q17 0 17 -18v-49q0 -17 -17 -17h-60v-321q0 -18 -18 -18h-89q-18 0 -18 18v321h-60q-18 0 -18 17v49q0 18 18 18h60v162h-95q-18 0 -18 18v80q0 17 18 17h315z" />
    <glyph glyph-name="tbar" unicode="&#x167;" horiz-adv-x="306" 
d="M272 106q17 0 17 -17v-76q0 -18 -17 -18h-13q-85 0 -133.5 51.5t-48.5 142.5v55h-35q-18 0 -18 18v40q0 18 18 18h35v74h-50q-17 0 -17 17v72q0 17 17 17h50v129q0 17 17 17h83q17 0 17 -17v-129h67q17 0 17 -17v-72q0 -17 -17 -17h-67v-74h52q18 0 18 -18v-40
q0 -18 -18 -18h-52v-64q0 -35 18.5 -54.5t50.5 -19.5h9z" />
    <glyph glyph-name="Umacron" unicode="&#x16a;" horiz-adv-x="447" 
d="M129 840q0 17 18 17h149q17 0 17 -17v-38q0 -18 -17 -18h-149q-18 0 -18 18v38zM62 700h90q17 0 17 -18v-514q0 -29 14.5 -46t39.5 -17t39.5 17t14.5 46v514q0 18 18 18h90q18 0 18 -18v-505q0 -84 -49.5 -136.5t-130.5 -52.5t-130 52.5t-49 136.5v505q0 18 18 18z" />
    <glyph glyph-name="umacron" unicode="&#x16b;" horiz-adv-x="404" 
d="M108 638q0 17 18 17h149q17 0 17 -17v-38q0 -18 -17 -18h-149q-18 0 -18 18v38zM56 500h83q17 0 17 -18v-331q0 -24 12.5 -38t33.5 -14t33 14.5t12 37.5v331q0 18 18 18h83q17 0 17 -18v-325q0 -75 -45 -122t-118 -47t-118 47t-45 122v325q0 18 17 18z" />
    <glyph glyph-name="Uring" unicode="&#x16e;" horiz-adv-x="447" 
d="M141 830q0 35 22 56.5t59 21.5t59.5 -21.5t22.5 -56.5q0 -36 -22.5 -58t-59.5 -22t-59 22t-22 58zM198 829q0 -24 24 -24q25 0 25 24q0 25 -25 25q-24 0 -24 -25zM62 700h90q17 0 17 -18v-514q0 -29 14.5 -46t39.5 -17t39.5 17t14.5 46v514q0 18 18 18h90q18 0 18 -18
v-505q0 -84 -49.5 -136.5t-130.5 -52.5t-130 52.5t-49 136.5v505q0 18 18 18z" />
    <glyph glyph-name="uring" unicode="&#x16f;" horiz-adv-x="404" 
d="M120 625q0 35 22 56.5t59 21.5t59.5 -21.5t22.5 -56.5q0 -36 -22.5 -58t-59.5 -22t-59 22t-22 58zM177 624q0 -24 24 -24q25 0 25 24q0 25 -25 25q-24 0 -24 -25zM56 500h83q17 0 17 -18v-331q0 -24 12.5 -38t33.5 -14t33 14.5t12 37.5v331q0 18 18 18h83q17 0 17 -18
v-325q0 -75 -45 -122t-118 -47t-118 47t-45 122v325q0 18 17 18z" />
    <glyph glyph-name="Uhungarumlaut" unicode="&#x170;" horiz-adv-x="447" 
d="M106 769q-11 0 -14.5 6.5t3.5 14.5l60 90q8 11 22 11h69q11 0 14 -7t-5 -15l-77 -90q-9 -10 -22 -10h-50zM251 769q-10 0 -13.5 6.5t2.5 14.5l60 90q8 11 22 11h69q11 0 14 -7t-5 -15l-77 -90q-9 -10 -22 -10h-50zM62 700h90q17 0 17 -18v-514q0 -29 14.5 -46t39.5 -17
t39.5 17t14.5 46v514q0 18 18 18h90q18 0 18 -18v-505q0 -84 -49.5 -136.5t-130.5 -52.5t-130 52.5t-49 136.5v505q0 18 18 18z" />
    <glyph glyph-name="uhungarumlaut" unicode="&#x171;" horiz-adv-x="404" 
d="M228 682q11 0 14 -6.5t-4 -14.5l-71 -91q-8 -11 -22 -11h-40q-23 0 -11 21l54 90q9 12 21 12h59zM358 682q10 0 13 -6.5t-4 -14.5l-71 -91q-7 -11 -21 -11h-40q-10 0 -13.5 6t1.5 15l55 90q7 12 21 12h59zM56 500h83q17 0 17 -18v-331q0 -24 12.5 -38t33.5 -14t33 14.5
t12 37.5v331q0 18 18 18h83q17 0 17 -18v-325q0 -75 -45 -122t-118 -47t-118 47t-45 122v325q0 18 17 18z" />
    <glyph glyph-name="Uogonek" unicode="&#x172;" horiz-adv-x="445" 
d="M276 683q0 17 17 17h91q17 0 17 -17v-508q0 -49 -17 -82.5t-50 -69.5q-53 -58 -53 -102t53 -40q18 1 18 -17v-54q0 -16 -17 -18q-82 -6 -121 15.5t-39 73.5q0 56 42 108q-1 0 -4 -0.5t-5 -0.5q-74 5 -119 56.5t-45 130.5v508q0 17 18 17h90q17 0 17 -17v-517
q0 -27 14.5 -44t39.5 -17q24 0 38.5 17t14.5 44v517z" />
    <glyph glyph-name="uogonek" unicode="&#x173;" horiz-adv-x="404" 
d="M311 -208q-68 -7 -112.5 14.5t-44.5 74.5q0 54 43 109q-13 0 -20 1q-62 8 -100 53t-38 112v327q0 17 17 17h83q17 0 17 -17v-334q0 -22 13 -35.5t33 -13.5t33 13.5t13 35.5v334q0 17 17 17h83q18 0 18 -17v-327q0 -80 -49 -123q-55 -63 -55 -116q0 -39 51 -36
q18 1 18 -17v-54q0 -17 -20 -18z" />
    <glyph glyph-name="Wcircumflex" unicode="&#x174;" horiz-adv-x="653" 
d="M215 769q-11 0 -14.5 6.5t3.5 14.5l62 90q8 11 22 11h75q13 0 22 -11l62 -90q6 -8 2.5 -14.5t-13.5 -6.5h-49q-14 0 -21 10l-40 49l-41 -49q-9 -10 -21 -10h-49zM591 700q18 0 18 -17v-504q0 -86 -47 -138.5t-126 -52.5q-63 0 -110 45q-47 -45 -110 -45q-78 0 -125 52.5
t-47 138.5v504q0 17 18 17h88q18 0 18 -17v-513q0 -64 48 -64q23 0 36 17t13 47v513q0 17 17 17h88q18 0 18 -17v-513q0 -30 13 -47t35 -17q49 0 49 64v513q0 17 17 17h89z" />
    <glyph glyph-name="wcircumflex" unicode="&#x175;" horiz-adv-x="596" 
d="M203 559q-10 0 -13.5 6.5t1.5 14.5l60 91q8 11 21 11h74q14 0 21 -11l60 -91q5 -8 1.5 -14.5t-13.5 -6.5h-48q-14 0 -22 11l-35 47l-37 -47q-7 -11 -21 -11h-49zM399 -12q-60 0 -101 44q-41 -44 -101 -44q-71 0 -114.5 47t-43.5 122v325q0 18 17 18h81q18 0 18 -18v-331
q0 -51 42 -51q43 0 43 51v331q0 18 17 18h82q17 0 17 -18v-331q0 -51 43 -51q42 0 42 51v331q0 18 18 18h81q17 0 17 -18v-325q0 -75 -43.5 -122t-114.5 -47z" />
    <glyph glyph-name="Ycircumflex" unicode="&#x176;" horiz-adv-x="419" 
d="M330 790q6 -8 2.5 -14.5t-13.5 -6.5h-49q-14 0 -21 10l-40 49l-41 -49q-9 -10 -21 -10h-49q-11 0 -14.5 6.5t3.5 14.5l62 90q8 11 22 11h75q13 0 22 -11zM165 0q-18 0 -18 18v212q-53 17 -84 64.5t-31 112.5v276q0 17 18 17h89q18 0 18 -17v-285q0 -28 14 -44.5t38 -16.5
q25 0 39 16.5t14 44.5v285q0 17 18 17h89q18 0 18 -17v-276q0 -65 -31 -112.5t-84 -64.5v-212q0 -18 -18 -18h-89z" />
    <glyph glyph-name="ycircumflex" unicode="&#x177;" horiz-adv-x="411" 
d="M99 559q-10 0 -13.5 6.5t1.5 14.5l60 91q8 11 21 11h74q14 0 21 -11l60 -91q5 -8 1.5 -14.5t-13.5 -6.5h-48q-14 0 -22 11l-35 47l-37 -47q-7 -11 -21 -11h-49zM349 500q18 0 18 -17v-526q0 -79 -44 -124t-120 -45q-72 0 -115.5 44.5t-48.5 121.5q0 18 17 18h84
q15 0 18 -18q5 -54 45 -54q22 0 34 13.5t12 37.5v90q-25 -23 -61 -23q-64 0 -106.5 47t-42.5 122v296q0 17 17 17h83q17 0 17 -17v-303q0 -23 12.5 -37t34.5 -14t34 14t12 37v303q0 17 17 17h83z" />
    <glyph glyph-name="Ydieresis" unicode="&#x178;" horiz-adv-x="419" 
d="M140 771q-24 0 -38 14.5t-14 37.5t14 37.5t38 14.5q23 0 37 -14.5t14 -37.5t-14 -37.5t-37 -14.5zM278 771q-23 0 -37.5 14.5t-14.5 37.5t14.5 37.5t37.5 14.5t37.5 -14.5t14.5 -37.5t-14.5 -37.5t-37.5 -14.5zM165 0q-18 0 -18 18v212q-53 17 -84 64.5t-31 112.5v276
q0 17 18 17h89q18 0 18 -17v-285q0 -28 14 -44.5t38 -16.5q25 0 39 16.5t14 44.5v285q0 17 18 17h89q18 0 18 -17v-276q0 -65 -31 -112.5t-84 -64.5v-212q0 -18 -18 -18h-89z" />
    <glyph glyph-name="Zacute" unicode="&#x179;" horiz-adv-x="405" 
d="M156 769q-11 0 -14.5 6.5t2.5 14.5l61 90q7 11 21 11h70q11 0 13.5 -7t-4.5 -15l-77 -90q-9 -10 -22 -10h-50zM156 115h208q17 0 17 -17v-80q0 -18 -17 -18h-280q-59 0 -59 59v17q0 44 14 73l206 436h-181q-17 0 -17 17v81q0 17 17 17h252q59 0 60 -55v-19q0 -49 -12 -73
z" />
    <glyph glyph-name="zacute" unicode="&#x17a;" horiz-adv-x="351" 
d="M259 681q11 0 13.5 -6.5t-3.5 -14.5l-72 -91q-7 -11 -21 -11h-51q-11 0 -14 6t3 15l54 90q9 12 21 12h70zM163 111h146q18 0 18 -18v-75q0 -18 -18 -18h-240q-45 0 -45 47v21q0 32 13 54l154 268h-139q-18 0 -18 17v76q0 17 18 17h231q44 0 44 -44v-27q0 -34 -12 -54z
" />
    <glyph glyph-name="Zdotaccent" unicode="&#x17b;" horiz-adv-x="405" 
d="M204 760q-29 0 -47.5 19t-18.5 47q0 29 18.5 47.5t47.5 18.5q28 0 47 -19t19 -47q0 -27 -19.5 -46.5t-46.5 -19.5zM156 115h208q17 0 17 -17v-80q0 -18 -17 -18h-280q-59 0 -59 59v17q0 44 14 73l206 436h-181q-17 0 -17 17v81q0 17 17 17h252q59 0 60 -55v-19
q0 -49 -12 -73z" />
    <glyph glyph-name="zdotaccent" unicode="&#x17c;" horiz-adv-x="351" 
d="M178 560q-29 0 -47.5 19t-18.5 47q0 29 18.5 47.5t47.5 18.5q28 0 47 -19t19 -47q0 -27 -19.5 -46.5t-46.5 -19.5zM163 111h146q18 0 18 -18v-75q0 -18 -18 -18h-240q-45 0 -45 47v21q0 32 13 54l154 268h-139q-18 0 -18 17v76q0 17 18 17h231q44 0 44 -44v-27
q0 -34 -12 -54z" />
    <glyph glyph-name="Zcaron" unicode="&#x17d;" horiz-adv-x="405" 
d="M325 870l-62 -90q-9 -11 -22 -11h-75q-14 0 -22 11l-62 90q-7 8 -3.5 14.5t14.5 6.5h49q12 0 21 -10l41 -49l40 49q7 10 21 10h49q10 0 13.5 -6.5t-2.5 -14.5zM156 115h208q17 0 17 -17v-80q0 -18 -17 -18h-280q-59 0 -59 59v17q0 44 14 73l206 436h-181q-17 0 -17 17v81
q0 17 17 17h252q59 0 60 -55v-19q0 -49 -12 -73z" />
    <glyph glyph-name="zcaron" unicode="&#x17e;" horiz-adv-x="351" 
d="M71 682h49q14 0 21 -11l37 -47l35 47q8 11 22 11h48q10 0 13.5 -6.5t-1.5 -14.5l-60 -91q-7 -11 -21 -11h-74q-13 0 -21 11l-60 91q-5 8 -1.5 14.5t13.5 6.5zM163 111h146q18 0 18 -18v-75q0 -18 -18 -18h-240q-45 0 -45 47v21q0 32 13 54l154 268h-139q-18 0 -18 17v76
q0 17 18 17h231q44 0 44 -44v-27q0 -34 -12 -54z" />
    <glyph glyph-name="Scommaaccent" unicode="&#x218;" horiz-adv-x="411" 
d="M206 -12q-82 0 -130.5 55.5t-51.5 152.5q0 18 17 18h90q16 0 18 -17q3 -92 59 -92q53 0 53 58q0 38 -24 74t-57.5 67.5t-67.5 65t-58 79.5t-24 98q0 76 47 120.5t124 44.5q79 0 126 -53t50 -146q0 -18 -17 -18h-89q-18 0 -18 18q-3 83 -50 83q-49 0 -49 -49
q0 -33 24 -66.5t58 -64.5t68.5 -65t58.5 -83t24 -105q0 -80 -49.5 -127.5t-131.5 -47.5zM155 -70q2 16 18 16h70q19 0 16 -19l-37 -189q-3 -16 -19 -16h-40q-18 0 -18 18z" />
    <glyph glyph-name="scommaaccent" unicode="&#x219;" horiz-adv-x="390" 
d="M200 -12q-80 0 -126 48t-48 113q0 21 17 21h83q15 0 19 -16q7 -54 52 -54q23 0 35.5 12t12.5 31q0 21 -22 37t-53.5 29.5t-62.5 30.5t-53 49.5t-22 76.5q0 65 45 105.5t115 40.5q80 0 120.5 -45t42.5 -102q0 -18 -17 -18h-83q-15 0 -18 17q-7 37 -44 37q-19 0 -31 -10.5
t-12 -27.5q0 -20 22 -35.5t53.5 -29t63 -31t53.5 -50t22 -78.5q0 -66 -45.5 -108.5t-118.5 -42.5zM158 -70q2 16 18 16h70q19 0 16 -19l-37 -189q-3 -16 -19 -16h-40q-18 0 -18 18z" />
    <glyph glyph-name="uni021A" unicode="&#x21a;" horiz-adv-x="370" 
d="M342 700q18 0 18 -17v-81q0 -17 -18 -17h-95v-567q0 -18 -17 -18h-90q-17 0 -17 18v567h-96q-17 0 -17 17v81q0 17 17 17h315zM137 -70q2 16 18 16h70q19 0 16 -19l-37 -189q-3 -16 -19 -16h-40q-18 0 -18 18z" />
    <glyph glyph-name="uni021B" unicode="&#x21b;" horiz-adv-x="306" 
d="M272 107q17 0 17 -17v-77q0 -17 -17 -17h-19q-82 0 -129 50.5t-47 136.5v211h-50q-17 0 -17 17v72q0 17 17 17h50v129q0 17 17 17h83q17 0 17 -17v-129h67q17 0 17 -17v-72q0 -17 -17 -17h-67v-213q0 -74 68 -74h10zM213 -54q19 0 16 -19l-37 -189q-3 -16 -19 -16h-40
q-18 0 -18 18l10 190q2 16 18 16h70z" />
    <glyph glyph-name="gravecomb" unicode="&#x300;" 
d="M-149 682h70q12 0 21 -12l54 -90q6 -9 3 -15t-14 -6h-51q-14 0 -21 11l-72 91q-6 8 -3.5 14.5t13.5 6.5z" />
    <glyph glyph-name="acutecomb" unicode="&#x301;" 
d="M-14 682q11 0 13.5 -6.5t-3.5 -14.5l-72 -91q-7 -11 -21 -11h-51q-11 0 -14 6t3 15l54 90q9 12 21 12h70z" />
    <glyph glyph-name="uni0302" unicode="&#x302;" 
d="M-229 559q-10 0 -13.5 6.5t1.5 14.5l60 91q8 11 21 11h74q14 0 21 -11l60 -91q5 -8 1.5 -14.5t-13.5 -6.5h-48q-14 0 -22 11l-35 47l-37 -47q-7 -11 -21 -11h-49z" />
    <glyph glyph-name="tildecomb" unicode="&#x303;" 
d="M-159 595q-10 0 -14 -10q-7 -15 -19 -15h-37q-19 0 -17 18q2 26 22 51.5t57 25.5q23 0 47.5 -13.5t30.5 -13.5q10 0 15 10q7 16 18 16h37q18 0 17 -19q-2 -28 -23 -52t-56 -24q-21 0 -46 13t-32 13z" />
    <glyph glyph-name="uni0304" unicode="&#x304;" 
d="M-184 638q0 17 18 17h149q17 0 17 -17v-38q0 -18 -17 -18h-149q-18 0 -18 18v38z" />
    <glyph glyph-name="uni0306" unicode="&#x306;" 
d="M-122 560q-50 0 -82.5 28t-38.5 75q-1 18 17 18h46q13 0 19 -16q8 -25 39 -25q29 0 39 25q6 16 18 16h46q19 0 17 -18q-6 -48 -38 -75.5t-82 -27.5z" />
    <glyph glyph-name="uni0307" unicode="&#x307;" 
d="M-67 560q-29 0 -47.5 19t-18.5 47q0 29 18.5 47.5t47.5 18.5q28 0 47 -19t19 -47q0 -27 -19.5 -46.5t-46.5 -19.5z" />
    <glyph glyph-name="uni0308" unicode="&#x308;" 
d="M-190 568q-24 0 -38 14.5t-14 37.5t14 37.5t38 14.5q23 0 37 -14.5t14 -37.5t-14 -37.5t-37 -14.5zM-52 568q-23 0 -37.5 14.5t-14.5 37.5t14.5 37.5t37.5 14.5t37.5 -14.5t14.5 -37.5t-14.5 -37.5t-37.5 -14.5z" />
    <glyph glyph-name="uni030A" unicode="&#x30a;" 
d="M-163 625q0 35 22 56.5t59 21.5t59.5 -21.5t22.5 -56.5q0 -36 -22.5 -58t-59.5 -22t-59 22t-22 58zM-106 624q0 -24 24 -24q25 0 25 24q0 25 -25 25q-24 0 -24 -25z" />
    <glyph glyph-name="uni030B" unicode="&#x30b;" 
d="M-145 682q11 0 14 -6.5t-4 -14.5l-71 -91q-8 -11 -22 -11h-40q-23 0 -11 21l54 90q9 12 21 12h59zM-15 682q10 0 13 -6.5t-4 -14.5l-71 -91q-7 -11 -21 -11h-40q-10 0 -13.5 6t1.5 15l55 90q7 12 21 12h59z" />
    <glyph glyph-name="uni030C" unicode="&#x30c;" 
d="M-229 682h49q14 0 21 -11l37 -47l35 47q8 11 22 11h48q10 0 13.5 -6.5t-1.5 -14.5l-60 -91q-7 -11 -21 -11h-74q-13 0 -21 11l-60 91q-5 8 -1.5 14.5t13.5 6.5z" />
    <glyph glyph-name="uni0312" unicode="&#x312;" 
d="M-111 579l-10 190q0 18 18 18h40q16 0 19 -16l37 -189q3 -19 -16 -19h-70q-16 0 -18 16z" />
    <glyph glyph-name="uni0326" unicode="&#x326;" 
d="M-111 -70q2 16 18 16h70q19 0 16 -19l-37 -189q-3 -16 -19 -16h-40q-18 0 -18 18z" />
    <glyph glyph-name="uni0327" unicode="&#x327;" 
d="M-99 -209q-38 0 -63.5 20t-30.5 55q-2 8 2.5 13t13.5 5h27q10 0 19 -14q8 -17 32 -17q15 0 24.5 7.5t9.5 20.5q0 12 -9.5 19.5t-24.5 7.5q-19 0 -35 -3q-6 -2 -11 3l-5 4q-4 4 -3 11l15 77h69l-8 -44h5q31 -2 51.5 -23t20.5 -52q0 -42 -28 -66t-71 -24z" />
    <glyph glyph-name="uni0328" unicode="&#x328;" 
d="M0 -190q0 -17 -17 -17q-8 -1 -23 -1q-70 0 -103 21t-33 69q0 62 51 118h108q-52 -41 -52 -83q0 -36 43 -36h8q18 0 18 -17v-54z" />
    <glyph glyph-name="uni0335" unicode="&#x335;" 
d="M-210 372v61h200v-61h-200z" />
    <glyph glyph-name="uni0336" unicode="&#x336;" 
d="M-330 433h320v-61h-320v61z" />
    <glyph glyph-name="uni0337" unicode="&#x337;" 
d="M-269 -45q-20 0 -15 19l155 556q3 15 20 15h99q20 0 15 -19l-155 -556q-3 -15 -20 -15h-99z" />
    <glyph glyph-name="uni0338" unicode="&#x338;" 
d="M-345 -45q-20 0 -15 19l211 756q3 15 20 15h99q20 0 15 -19l-211 -756q-3 -15 -20 -15h-99z" />
    <glyph glyph-name="uni0401" unicode="&#x401;" horiz-adv-x="362" 
d="M136 771q-24 0 -38 14.5t-14 37.5t14 37.5t38 14.5q23 0 37 -14.5t14 -37.5t-14 -37.5t-37 -14.5zM274 771q-23 0 -37.5 14.5t-14.5 37.5t14.5 37.5t37.5 14.5t37.5 -14.5t14.5 -37.5t-14.5 -37.5t-37.5 -14.5zM217 -4q-81 0 -130.5 52t-49.5 136v333q0 83 49.5 135
t130.5 52h105q18 0 18 -17v-80q0 -18 -18 -18h-90q-32 0 -50.5 -20.5t-18.5 -55.5v-104h134q18 0 18 -18v-76q0 -18 -18 -18h-134v-110q0 -35 18.5 -55.5t50.5 -20.5h90q18 0 18 -17v-81q0 -17 -18 -17h-105z" />
    <glyph glyph-name="uni0402" unicode="&#x402;" horiz-adv-x="497" 
d="M303 -3q-18 0 -18 18v76q0 18 18 18q17 1 27 15t10 36v183q0 57 -47 57q-48 0 -48 -57v-325q0 -18 -18 -18h-87q-17 0 -17 18v567h-96q-17 0 -17 17v81q0 17 17 17h315q18 0 18 -17v-81q0 -17 -18 -17h-97v-93q32 20 64 20q69 0 112 -47t43 -123v-175q0 -75 -45 -122
t-116 -48z" />
    <glyph glyph-name="uni0403" unicode="&#x403;" horiz-adv-x="366" 
d="M186 769q-11 0 -14.5 6.5t2.5 14.5l61 90q7 11 21 11h70q11 0 13.5 -7t-4.5 -15l-77 -90q-9 -10 -22 -10h-50zM62 0q-18 0 -18 18v483q0 95 52 149t143 54h100q7 0 12 -5.5t5 -12.5v-80q0 -7 -5 -12.5t-12 -5.5h-97q-72 0 -72 -78v-492q0 -18 -17 -18h-91z" />
    <glyph glyph-name="uni0404" unicode="&#x404;" horiz-adv-x="412" 
d="M378 214q19 0 17 -19q-3 -97 -50.5 -152t-127.5 -55q-81 0 -130.5 52t-49.5 136v348q0 85 49.5 136.5t130.5 51.5q77 0 124 -53.5t50 -145.5q0 -18 -17 -18h-91q-17 0 -17 17q-3 82 -52 82q-24 0 -37.5 -16t-13.5 -45v-127h128q18 0 18 -18v-66q0 -17 -18 -17h-128v-138
q0 -29 13.5 -45t37.5 -16q53 0 56 91q2 17 17 17h91z" />
    <glyph glyph-name="uni0405" unicode="&#x405;" horiz-adv-x="411" 
d="M206 -12q-82 0 -130.5 55.5t-51.5 152.5q0 18 17 18h90q16 0 18 -17q3 -92 59 -92q53 0 53 58q0 38 -24 74t-57.5 67.5t-67.5 65t-58 79.5t-24 98q0 76 47 120.5t124 44.5q79 0 126 -53t50 -146q0 -18 -17 -18h-89q-18 0 -18 18q-3 83 -50 83q-49 0 -49 -49
q0 -33 24 -66.5t58 -64.5t68.5 -65t58.5 -83t24 -105q0 -80 -49.5 -127.5t-131.5 -47.5z" />
    <glyph glyph-name="uni0406" unicode="&#x406;" horiz-adv-x="223" 
d="M49 683q0 17 18 17h89q18 0 18 -17v-665q0 -18 -18 -18h-89q-18 0 -18 18v665z" />
    <glyph glyph-name="uni0407" unicode="&#x407;" horiz-adv-x="223" 
d="M43 771q-24 0 -38 14.5t-14 37.5t14 37.5t38 14.5q23 0 37 -14.5t14 -37.5t-14 -37.5t-37 -14.5zM181 771q-23 0 -37.5 14.5t-14.5 37.5t14.5 37.5t37.5 14.5t37.5 -14.5t14.5 -37.5t-14.5 -37.5t-37.5 -14.5zM49 683q0 17 18 17h89q18 0 18 -17v-665q0 -18 -18 -18h-89
q-18 0 -18 18v665z" />
    <glyph glyph-name="uni0408" unicode="&#x408;" horiz-adv-x="410" 
d="M187 -12q-81 0 -128 56t-49 152q0 18 17 18h91q15 0 17 -17q3 -92 54 -92q52 0 52 69v509q0 18 17 18h90q18 0 18 -18v-498q0 -92 -46 -144.5t-133 -52.5z" />
    <glyph glyph-name="uni0409" unicode="&#x409;" horiz-adv-x="681" 
d="M28 -3q-18 -1 -18 17v81q0 15 17 18q62 8 62 92v312q0 83 50 135t130 52h108q58 0 58 -58v-211h53q84 0 129 -55t45 -138v-53q0 -93 -44 -143t-130 -50h-119q-58 0 -58 58v535h-38q-27 0 -43 -19.5t-16 -51.5v-329q0 -84 -50 -135.5t-136 -56.5zM435 112h44q27 0 42 21
t15 56v52q0 36 -15 57.5t-42 21.5h-44v-208z" />
    <glyph glyph-name="uni040A" unicode="&#x40a;" horiz-adv-x="643" 
d="M452 421q83 0 127.5 -54t44.5 -138v-41q0 -192 -172 -192h-121q-57 0 -57 57v253h-99v-288q0 -18 -17 -18h-91q-18 0 -18 18v665q0 17 18 17h91q17 0 17 -17v-262h99v262q0 17 17 17h89q17 0 17 -17v-262h55zM498 187v41q0 36 -14.5 57t-40.5 21h-46v-195h46
q26 0 40.5 20.5t14.5 55.5z" />
    <glyph glyph-name="uni040B" unicode="&#x40b;" horiz-adv-x="502" 
d="M140 0q-17 0 -17 18v567h-96q-17 0 -17 17v81q0 17 17 17h315q18 0 18 -17v-81q0 -17 -18 -17h-95v-100q31 19 59 19q72 0 114.5 -46.5t42.5 -123.5v-316q0 -18 -17 -18h-89q-17 0 -17 18v320q0 55 -47 55q-21 0 -33.5 -14.5t-12.5 -39.5v-321q0 -18 -17 -18h-90z" />
    <glyph glyph-name="uni040C" unicode="&#x40c;" horiz-adv-x="447" 
d="M177 769q-11 0 -14.5 6.5t2.5 14.5l61 90q7 11 21 11h70q11 0 13.5 -7t-4.5 -15l-77 -90q-9 -10 -22 -10h-50zM67 0q-18 0 -18 18v665q0 17 18 17h89q18 0 18 -17v-277h53l57 279q3 15 20 15h89q21 0 16 -19l-74 -312q69 -43 69 -152v-199q0 -18 -18 -18h-91
q-17 0 -17 18v203q0 70 -62 70h-42v-273q0 -18 -18 -18h-89z" />
    <glyph glyph-name="uni040D" unicode="&#x40d;" horiz-adv-x="448" 
d="M291 769h-50q-13 0 -22 10l-77 90q-7 8 -4.5 15t13.5 7h70q14 0 21 -11l61 -90q6 -8 2.5 -14.5t-14.5 -6.5zM274 683q0 17 18 17h89q18 0 18 -17v-635q0 -52 -53 -52h-119q-90 0 -136.5 54.5t-46.5 142.5v490q0 17 18 17h91q17 0 17 -17v-494q0 -35 16.5 -56.5
t43.5 -21.5h44v572z" />
    <glyph glyph-name="uni040E" unicode="&#x40e;" horiz-adv-x="421" 
d="M201 767q-50 0 -82.5 28t-38.5 75q-2 19 18 19h45q13 0 19 -16q8 -25 39 -25t39 25q6 16 18 16h46q18 0 18 -19q-6 -47 -38.5 -75t-82.5 -28zM50 -5q-17 0 -17 18v80q0 18 17 18h140q29 0 45 20.5t16 56.5v55h-46q-86 0 -134.5 53.5t-48.5 142.5v244q0 17 18 17h90
q17 0 17 -17v-248q0 -35 16.5 -56t44.5 -21h43v325q0 17 18 17h90q18 0 18 -17v-491q0 -89 -49 -143t-135 -54h-143z" />
    <glyph glyph-name="uni040F" unicode="&#x40f;" horiz-adv-x="448" 
d="M182 -114q-18 0 -18 17v97h-57q-58 0 -58 58v625q0 17 18 17h89q18 0 18 -17v-568h101v568q0 17 17 17h90q17 0 17 -17v-625q0 -58 -57 -58h-57v-97q0 -17 -18 -17h-85z" />
    <glyph glyph-name="uni0410" unicode="&#x410;" horiz-adv-x="447" 
d="M62 0q-18 0 -18 18v504q0 85 49.5 137t129.5 52q81 0 130.5 -52t49.5 -137v-504q0 -18 -18 -18h-90q-18 0 -18 18v197h-108v-197q0 -18 -17 -18h-90zM169 330h108v201q0 29 -14.5 46t-39.5 17t-39.5 -17t-14.5 -46v-201z" />
    <glyph glyph-name="uni0411" unicode="&#x411;" horiz-adv-x="417" 
d="M97 -4q-53 0 -53 53v463q0 86 53.5 139t139.5 53h116q18 0 18 -17v-80q0 -7 -5.5 -12.5t-12.5 -5.5h-116q-31 0 -49.5 -21t-18.5 -56v-87h57q85 0 129.5 -55t44.5 -140v-40q0 -194 -174 -194h-129zM169 111h48q27 0 42 21t15 58v40q0 37 -15 58.5t-42 21.5h-48v-199z" />
    <glyph glyph-name="uni0412" unicode="&#x412;" horiz-adv-x="427" 
d="M337 362q65 -49 65 -135v-42q0 -86 -49 -137.5t-129 -51.5h-127q-23 0 -38 15t-15 38v476q0 84 47.5 135t124.5 51q78 0 126 -51t48 -135v-40q2 -78 -53 -123zM169 536v-127h48q23 0 35.5 16.5t12.5 45.5v65q0 27 -13.5 43t-36.5 16q-22 0 -34 -16t-12 -43zM275 175v56
q0 32 -14.5 49.5t-39.5 17.5h-52v-188h52q26 0 40 17t14 48z" />
    <glyph glyph-name="uni0413" unicode="&#x413;" horiz-adv-x="366" 
d="M62 0q-18 0 -18 18v483q0 95 52 149t143 54h100q7 0 12 -5.5t5 -12.5v-80q0 -7 -5 -12.5t-12 -5.5h-97q-72 0 -72 -78v-492q0 -18 -17 -18h-91z" />
    <glyph glyph-name="uni0414" unicode="&#x414;" horiz-adv-x="520" 
d="M28 -117q-17 0 -17 18v163q0 37 41 64q27 16 38 56t11 138v197q0 83 50 134.5t131 51.5h110q57 0 57 -58v-523l2 -9q28 0 43.5 -18.5t15.5 -50.5v-145q0 -18 -17 -18h-87q-18 0 -18 18v99h-256v-99q0 -18 -17 -18h-87zM179 115h146v474h-40q-27 0 -42.5 -19t-15.5 -50
v-225q0 -78 -10.5 -119t-37.5 -61z" />
    <glyph glyph-name="uni0415" unicode="&#x415;" horiz-adv-x="362" 
d="M217 -4q-81 0 -130.5 52t-49.5 136v333q0 83 49.5 135t130.5 52h105q18 0 18 -17v-80q0 -18 -18 -18h-90q-32 0 -50.5 -20.5t-18.5 -55.5v-104h134q18 0 18 -18v-76q0 -18 -18 -18h-134v-110q0 -35 18.5 -55.5t50.5 -20.5h90q18 0 18 -17v-81q0 -17 -18 -17h-105z" />
    <glyph glyph-name="uni0416" unicode="&#x416;" horiz-adv-x="660" 
d="M61 0q-18 0 -18 18v202q0 102 66 149l-71 312q-5 19 16 19h88q16 0 19 -15l57 -279h51v277q0 17 17 17h88q18 0 18 -17v-277h50l57 279q3 15 20 15h88q20 0 15 -19l-70 -312q65 -48 65 -149v-202q0 -18 -18 -18h-90q-17 0 -17 18v205q0 68 -61 68h-39v-273q0 -18 -18 -18
h-88q-17 0 -17 18v273h-40q-60 0 -60 -68v-205q0 -18 -18 -18h-90z" />
    <glyph glyph-name="uni0417" unicode="&#x417;" horiz-adv-x="418" 
d="M202 -6q-79 0 -127.5 47t-53.5 127q-1 18 17 18h92q16 0 17 -18q6 -58 58 -58q29 0 45.5 18t16.5 48v53q0 32 -16.5 51t-46.5 19h-65q-17 0 -17 18v76q0 18 17 18h58q25 0 39 17.5t14 45.5v64q0 27 -13 43t-35 16q-43 0 -47 -65q-1 -18 -19 -18h-90q-17 0 -17 18
q5 82 52 131t121 49q77 0 124.5 -52t47.5 -136v-38q0 -81 -51 -124q70 -41 70 -135v-43q0 -86 -51.5 -138t-139.5 -52z" />
    <glyph glyph-name="uni0418" unicode="&#x418;" horiz-adv-x="448" 
d="M274 683q0 17 18 17h89q18 0 18 -17v-635q0 -52 -53 -52h-119q-90 0 -136.5 54.5t-46.5 142.5v490q0 17 18 17h91q17 0 17 -17v-494q0 -35 16.5 -56.5t43.5 -21.5h44v572z" />
    <glyph glyph-name="uni0419" unicode="&#x419;" horiz-adv-x="448" 
d="M222 767q-50 0 -82.5 28t-38.5 75q-2 19 18 19h45q13 0 19 -16q8 -25 39 -25t39 25q6 16 18 16h46q18 0 18 -19q-6 -47 -38.5 -75t-82.5 -28zM274 683q0 17 18 17h89q18 0 18 -17v-635q0 -52 -53 -52h-119q-90 0 -136.5 54.5t-46.5 142.5v490q0 17 18 17h91q17 0 17 -17
v-494q0 -35 16.5 -56.5t43.5 -21.5h44v572z" />
    <glyph glyph-name="uni041A" unicode="&#x41a;" horiz-adv-x="447" 
d="M67 0q-18 0 -18 18v665q0 17 18 17h89q18 0 18 -17v-277h53l57 279q3 15 20 15h89q21 0 16 -19l-74 -312q69 -43 69 -152v-199q0 -18 -18 -18h-91q-17 0 -17 18v203q0 70 -62 70h-42v-273q0 -18 -18 -18h-89z" />
    <glyph glyph-name="uni041B" unicode="&#x41b;" horiz-adv-x="486" 
d="M28 -4q-18 -2 -18 17v81q0 14 17 19q61 7 61 94v312q0 84 50 134.5t131 50.5h110q58 0 58 -57v-630q0 -18 -18 -18h-89q-18 0 -18 18v572h-39q-28 0 -43.5 -18t-15.5 -51v-327q0 -86 -49.5 -139t-136.5 -58z" />
    <glyph glyph-name="uni041C" unicode="&#x41c;" horiz-adv-x="646" 
d="M67 0q-18 0 -18 18v630q0 56 53 56h76q37 0 51 -47l61 -199q23 -81 32 -126h2q12 58 33 126l60 199q14 47 51 47h77q52 0 52 -56v-630q0 -18 -17 -18h-88q-17 0 -17 18v325q0 37 5 197h-3q-15 -81 -32 -139l-50 -174q-13 -46 -57 -46h-30q-44 0 -57 46l-50 174
q-20 77 -32 139h-3q5 -107 5 -197v-325q0 -18 -17 -18h-87z" />
    <glyph glyph-name="uni041D" unicode="&#x41d;" horiz-adv-x="448" 
d="M275 683q0 17 17 17h90q17 0 17 -17v-665q0 -18 -17 -18h-90q-17 0 -17 18v278h-101v-278q0 -18 -18 -18h-89q-18 0 -18 18v665q0 17 18 17h89q18 0 18 -17v-272h101v272z" />
    <glyph glyph-name="uni041E" unicode="&#x41e;" horiz-adv-x="441" 
d="M221 -11q-82 0 -133 52.5t-51 138.5v340q0 86 51 138.5t133 52.5t132.5 -52t50.5 -136v-346q0 -84 -50.5 -136t-132.5 -52zM221 106q26 0 41.5 16.5t15.5 45.5v364q0 29 -15.5 46t-41.5 17t-42 -17.5t-16 -48.5v-358q0 -30 15.5 -47.5t42.5 -17.5z" />
    <glyph glyph-name="uni041F" unicode="&#x41f;" horiz-adv-x="454" 
d="M67 0q-18 0 -18 18v625q0 57 58 57h241q57 0 57 -57v-625q0 -18 -17 -18h-93q-17 0 -17 18v567h-101v-567q0 -18 -18 -18h-92z" />
    <glyph glyph-name="uni0420" unicode="&#x420;" horiz-adv-x="422" 
d="M62 0q-18 0 -18 18v504q0 85 48.5 137.5t127.5 52.5q82 0 132 -52.5t50 -137.5v-95q0 -83 -49 -134t-130 -51h-54v-224q0 -18 -17 -18h-90zM169 357h46q61 0 61 66v108q0 29 -14.5 46t-39.5 17q-24 0 -38.5 -17t-14.5 -46v-174z" />
    <glyph glyph-name="uni0421" unicode="&#x421;" horiz-adv-x="412" 
d="M217 -12q-81 0 -130.5 52t-49.5 136v348q0 85 49.5 136.5t130.5 51.5q77 0 124 -53.5t50 -145.5q0 -18 -17 -18h-91q-17 0 -17 17q-3 82 -52 82q-24 0 -37.5 -16t-13.5 -45v-366q0 -29 13.5 -45t37.5 -16q53 0 56 91q2 17 17 17h91q19 0 17 -19q-3 -97 -50.5 -152
t-127.5 -55z" />
    <glyph glyph-name="uni0422" unicode="&#x422;" horiz-adv-x="370" 
d="M342 700q18 0 18 -17v-81q0 -17 -18 -17h-95v-567q0 -18 -17 -18h-90q-17 0 -17 18v567h-96q-17 0 -17 17v81q0 17 17 17h315z" />
    <glyph glyph-name="uni0423" unicode="&#x423;" horiz-adv-x="421" 
d="M50 -5q-17 0 -17 18v80q0 18 17 18h140q29 0 45 20.5t16 56.5v55h-46q-86 0 -134.5 53.5t-48.5 142.5v244q0 17 18 17h90q17 0 17 -17v-248q0 -35 16.5 -56t44.5 -21h43v325q0 17 18 17h90q18 0 18 -17v-491q0 -89 -49 -143t-135 -54h-143z" />
    <glyph glyph-name="uni0424" unicode="&#x424;" horiz-adv-x="619" 
d="M266 -54q-18 0 -18 18v82h-40q-84 0 -133.5 53.5t-49.5 143.5v226q0 89 49.5 142t133.5 53h40v69q0 18 18 18h88q17 0 17 -18v-69h40q84 0 133.5 -53t49.5 -142v-226q0 -90 -49.5 -143.5t-133.5 -53.5h-40v-82q0 -18 -17 -18h-88zM215 162h33v387h-33q-31 0 -48 -19
t-17 -54v-242q0 -34 17 -53t48 -19zM371 162h33q32 0 49 19t17 53v242q0 73 -66 73h-33v-387z" />
    <glyph glyph-name="uni0425" unicode="&#x425;" horiz-adv-x="429" 
d="M392 484q0 -81 -57 -130q57 -49 57 -129v-207q0 -18 -18 -18h-90q-18 0 -18 18v216q0 28 -14 45t-38 17q-23 0 -37.5 -17t-14.5 -45v-216q0 -18 -17 -18h-90q-18 0 -18 18v207q0 80 57 129q-57 49 -57 130v199q0 17 18 17h90q17 0 17 -17v-208q0 -28 14.5 -45t37.5 -17
q24 0 38 17t14 45v208q0 17 18 17h90q18 0 18 -17v-199z" />
    <glyph glyph-name="uni0426" unicode="&#x426;" horiz-adv-x="469" 
d="M357 -114q-18 0 -18 17v96h-112q-90 0 -136.5 54.5t-46.5 144.5v485q0 17 18 17h91q17 0 17 -17v-489q0 -36 16 -57.5t44 -21.5h44v568q0 17 18 17h90q17 0 17 -17v-567l2 -1q58 0 58 -58v-154q0 -17 -18 -17h-84z" />
    <glyph glyph-name="uni0427" unicode="&#x427;" horiz-adv-x="416" 
d="M260 0q-18 0 -18 18v209h-47q-86 0 -134.5 53t-48.5 142v261q0 17 18 17h91q17 0 17 -17v-265q0 -35 16 -55t44 -20h44v340q0 17 18 17h89q18 0 18 -17v-665q0 -18 -18 -18h-89z" />
    <glyph glyph-name="uni0428" unicode="&#x428;" horiz-adv-x="658" 
d="M225 -1q-89 0 -135 54.5t-46 141.5v488q0 17 18 17h89q18 0 18 -17v-492q0 -33 16 -54.5t43 -21.5h39v568q0 17 18 17h88q17 0 17 -17v-568h95v568q0 17 18 17h88q18 0 18 -17v-626q0 -58 -58 -58h-326z" />
    <glyph glyph-name="uni0429" unicode="&#x429;" horiz-adv-x="684" 
d="M572 -114q-17 0 -17 17v97h-330q-89 0 -135 54t-46 141v488q0 17 18 17h89q18 0 18 -17v-492q0 -33 16 -54.5t43 -21.5h41v568q0 17 17 17h88q18 0 18 -17v-568h99v568q0 17 18 17h88q18 0 18 -17v-566l2 -2q57 0 57 -57v-155q0 -17 -17 -17h-85z" />
    <glyph glyph-name="uni042A" unicode="&#x42a;" horiz-adv-x="480" 
d="M287 435q81 0 127.5 -52t46.5 -141v-53q0 -89 -46.5 -141t-127.5 -52h-124q-57 0 -57 58v531h-79q-17 0 -17 17v81q0 17 17 17h149q54 0 54 -57v-208h57zM335 182v66q0 31 -15 51.5t-42 20.5h-48v-208h48q27 0 42 20t15 50z" />
    <glyph glyph-name="uni042B" unicode="&#x42b;" horiz-adv-x="629" 
d="M473 0q-17 0 -17 18v668q0 17 17 17h90q17 0 17 -17v-668q0 -18 -17 -18h-90zM107 -4q-58 0 -58 58v629q0 17 18 17h89q18 0 18 -17v-248h56q80 0 126.5 -52t46.5 -141v-53q0 -89 -46 -141t-127 -52h-123zM174 112h47q27 0 42 18.5t15 45.5v78q0 28 -15 47t-42 19h-47
v-208z" />
    <glyph glyph-name="uni042C" unicode="&#x42c;" horiz-adv-x="423" 
d="M107 -4q-58 0 -58 58v629q0 17 18 17h89q18 0 18 -17v-248h56q78 0 126 -53.5t48 -139.5v-53q0 -86 -48 -139.5t-126 -53.5h-123zM174 112h47q27 0 42 18.5t15 51.5v66q0 33 -15 52.5t-42 19.5h-47v-208z" />
    <glyph glyph-name="uni042D" unicode="&#x42d;" horiz-adv-x="412" 
d="M195 712q81 0 130.5 -51.5t49.5 -136.5v-348q0 -84 -49.5 -136t-130.5 -52q-80 0 -127.5 55t-50.5 152q-2 19 17 19h91q15 0 17 -17q3 -91 56 -91q24 0 37.5 16t13.5 45v138h-128q-18 0 -18 17v66q0 18 18 18h128v127q0 29 -13.5 45t-37.5 16q-49 0 -52 -82
q0 -17 -17 -17h-91q-17 0 -17 18q3 92 50 145.5t124 53.5z" />
    <glyph glyph-name="uni042E" unicode="&#x42e;" horiz-adv-x="643" 
d="M427 712q80 0 129.5 -52t49.5 -135v-350q0 -83 -49.5 -135t-129.5 -52t-129.5 52t-49.5 135v121h-74v-278q0 -18 -18 -18h-89q-18 0 -18 18v665q0 17 18 17h89q18 0 18 -17v-272h74v114q0 83 49.5 135t129.5 52zM480 166v368q0 28 -14.5 44t-38.5 16t-38.5 -16t-14.5 -44
v-368q0 -28 14.5 -44t38.5 -16t38.5 16t14.5 44z" />
    <glyph glyph-name="uni042F" unicode="&#x42f;" horiz-adv-x="449" 
d="M227 712q80 0 129 -52.5t49 -137.5v-504q0 -18 -18 -18h-91q-17 0 -17 18v218h-46l-76 -219q-7 -17 -18 -17h-98q-10 0 -15.5 5t-1.5 13l95 250q-75 49 -75 157v97q0 85 50 137.5t133 52.5zM279 351v180q0 29 -14.5 46t-39.5 17q-26 0 -40 -16.5t-14 -46.5v-110
q0 -70 61 -70h47z" />
    <glyph glyph-name="uni0430" unicode="&#x430;" horiz-adv-x="390" 
d="M197 -11q-77 0 -124 46t-47 121q0 66 45.5 108.5t117.5 42.5h50v43q0 23 -12 36.5t-33 13.5q-42 0 -44 -44q-1 -13 -18 -13h-82q-17 0 -17 18q6 68 50 109.5t112 41.5q73 0 117.5 -47t44.5 -122v-192q0 -74 -42.5 -118t-117.5 -44zM195 101q44 0 44 49v54h-43
q-24 0 -37.5 -13t-13.5 -35q0 -26 13 -40.5t37 -14.5z" />
    <glyph glyph-name="uni0431" unicode="&#x431;" horiz-adv-x="403" 
d="M204 -12q-74 0 -119.5 42t-45.5 110v349q0 75 41 124.5t116 69.5q18 5 118 28q19 3 19 -16v-75q0 -16 -15 -19q-85 -17 -97 -21q-34 -11 -49 -31t-16 -58v-24q34 23 81 23q60 0 96.5 -44t36.5 -118v-188q0 -68 -45.5 -110t-120.5 -42zM204 100q22 0 35 15t13 40v168
q0 26 -13 41t-35 15t-35 -15t-13 -41v-168q0 -25 13 -40t35 -15z" />
    <glyph glyph-name="uni0432" unicode="&#x432;" horiz-adv-x="397" 
d="M305 268q30 -14 48.5 -48.5t18.5 -77.5q0 -65 -39 -105.5t-102 -40.5h-136q-56 0 -56 56v293q0 75 43 121t114 46t114 -40.5t43 -105.5q0 -31 -13 -57.5t-35 -40.5zM156 361v-54h39q46 0 46 53q0 48 -44 48q-41 0 -41 -47zM205 106q23 0 36.5 13t13.5 37q0 25 -13.5 38.5
t-36.5 13.5h-49v-102h49z" />
    <glyph glyph-name="uni0433" unicode="&#x433;" horiz-adv-x="296" 
d="M56 0q-17 0 -17 18v293q0 94 45 142.5t132 48.5h46q18 0 18 -17v-77q0 -17 -18 -17h-42q-64 0 -64 -66v-307q0 -18 -17 -18h-83z" />
    <glyph glyph-name="uni0434" unicode="&#x434;" horiz-adv-x="462" 
d="M28 -114q-18 0 -18 17v155q0 30 29 51q41 25 41 76v163q0 64 43.5 109.5t108.5 45.5h102q28 0 44 -14.5t16 -40.5v-340l3 -3q48 0 48 -54v-148q0 -17 -17 -17h-75q-18 0 -18 17v97h-214v-97q0 -17 -17 -17h-76zM161 105h117v293h-32q-23 0 -36.5 -17t-13.5 -47v-126
q0 -62 -35 -103z" />
    <glyph glyph-name="uni0435" unicode="&#x435;" horiz-adv-x="391" 
d="M196 -11q-73 0 -118 46.5t-45 122.5v189q2 74 47 119t119 45q72 2 119 -44t47 -119q0 -69 -45.5 -112t-118.5 -43h-49v-42q0 -24 12 -37.5t33 -13.5q39 0 45 42q3 17 18 17h84q17 0 17 -18q-5 -68 -50 -110t-115 -42zM152 297h49q22 0 34 12.5t12 35.5q0 55 -48 55
q-47 0 -47 -51v-52z" />
    <glyph glyph-name="uni0436" unicode="&#x436;" horiz-adv-x="582" 
d="M50 0q-17 0 -17 18v126q0 95 70 139l-79 197q-4 9 1 14.5t14 5.5h85q15 0 21 -14l65 -175h24v172q0 18 17 18h80q18 0 18 -18v-172h23l66 175q4 14 20 14h86q9 0 13.5 -5.5t0.5 -14.5l-78 -197q70 -44 70 -139v-126q0 -18 -18 -18h-81q-18 0 -18 18v133q0 23 -12.5 36
t-34.5 13h-37v-182q0 -18 -18 -18h-80q-17 0 -17 18v182h-37q-22 0 -35 -13.5t-13 -35.5v-133q0 -18 -17 -18h-82z" />
    <glyph glyph-name="uni0437" unicode="&#x437;" horiz-adv-x="373" 
d="M181 -12q-71 0 -116.5 41.5t-51.5 109.5q-2 19 17 19h84q14 0 19 -17q8 -41 50 -41q22 0 34.5 14.5t12.5 40.5q0 25 -14.5 39t-40.5 14h-31q-18 0 -18 17v65q0 17 18 17h28q23 0 36 14.5t13 38.5q0 21 -11.5 33t-31.5 12q-35 0 -39 -40q-3 -18 -18 -18h-83q-18 0 -16 18
q5 67 47.5 107t108.5 40q70 0 112.5 -40.5t42.5 -105.5q0 -31 -14.5 -57.5t-38.5 -40.5q31 -12 49.5 -42.5t18.5 -70.5q0 -75 -46 -121t-121 -46z" />
    <glyph glyph-name="uni0438" unicode="&#x438;" horiz-adv-x="406" 
d="M204 -1q-74 0 -119.5 46.5t-45.5 121.5v316q0 18 17 18h83q17 0 17 -18v-323q0 -22 13 -35.5t35 -13.5h40v372q0 18 18 18h83q17 0 17 -18v-427q0 -57 -56 -57h-102z" />
    <glyph glyph-name="uni0439" unicode="&#x439;" horiz-adv-x="406" 
d="M200 560q-50 0 -82.5 28t-38.5 75q-1 18 17 18h46q13 0 19 -16q8 -25 39 -25q29 0 39 25q6 16 18 16h46q19 0 17 -18q-6 -48 -38 -75.5t-82 -27.5zM204 -1q-74 0 -119.5 46.5t-45.5 121.5v316q0 18 17 18h83q17 0 17 -18v-323q0 -22 13 -35.5t35 -13.5h40v372q0 18 18 18
h83q17 0 17 -18v-427q0 -57 -56 -57h-102z" />
    <glyph glyph-name="uni043A" unicode="&#x43a;" horiz-adv-x="403" 
d="M299 283q69 -43 69 -139v-126q0 -18 -17 -18h-84q-17 0 -17 18v133q0 23 -12.5 36t-34.5 13h-41v-182q0 -18 -18 -18h-82q-18 0 -18 18v465q0 18 18 18h82q18 0 18 -18v-172h29l68 175q4 14 20 14h85q10 0 14.5 -5.5t0.5 -14.5z" />
    <glyph glyph-name="uni043B" unicode="&#x43b;" horiz-adv-x="426" 
d="M28 -4q-18 0 -18 18v76q0 18 18 18q39 2 39 51v178q0 75 45 121t119 46h95q56 0 56 -56v-430q0 -18 -17 -18h-82q-17 0 -17 18v375h-35q-22 0 -35 -13.5t-13 -35.5v-180q0 -76 -41.5 -121.5t-113.5 -46.5z" />
    <glyph glyph-name="uni043C" unicode="&#x43c;" horiz-adv-x="556" 
d="M62 0q-18 0 -18 18v430q0 53 53 53h41q45 0 62 -41l43 -105q15 -35 34 -99h2q17 58 34 100l44 104q16 41 61 41h42q52 0 52 -53v-430q0 -18 -17 -18h-79q-20 0 -18 18v161q0 83 3 145h-2q-14 -50 -30 -95l-25 -62q-13 -40 -60 -40h-12q-47 0 -60 40l-25 62q-16 45 -30 95
h-2q3 -61 3 -145v-161q2 -18 -17 -18h-79z" />
    <glyph glyph-name="uni043D" unicode="&#x43d;" horiz-adv-x="408" 
d="M247 483q0 17 18 17h82q17 0 17 -17v-465q0 -18 -17 -18h-82q-18 0 -18 18v181h-86v-181q0 -18 -17 -18h-82q-18 0 -18 18v465q0 17 18 17h82q17 0 17 -17v-174h86v174z" />
    <glyph glyph-name="uni043E" unicode="&#x43e;" horiz-adv-x="400" 
d="M200 -12q-75 0 -121 47t-46 123v185q0 75 46 122t121 47t121 -47t46 -122v-185q0 -76 -46 -123t-121 -47zM200 100q22 0 35 14t13 37v198q0 24 -13 38t-35 14t-35 -14t-13 -38v-198q0 -23 13 -37t35 -14z" />
    <glyph glyph-name="uni043F" unicode="&#x43f;" horiz-adv-x="410" 
d="M309 500q57 0 57 -56v-426q0 -18 -18 -18h-83q-17 0 -17 18v372h-86v-372q0 -18 -18 -18h-82q-18 0 -18 18v426q0 56 56 56h209z" />
    <glyph glyph-name="uni0440" unicode="&#x440;" horiz-adv-x="405" 
d="M205 512q75 0 121 -47t46 -122v-185q0 -74 -43 -122t-104 -48q-37 0 -68 20v-191q0 -17 -17 -17h-84q-17 0 -17 17v526q0 75 46 122t120 47zM253 151v198q0 23 -13 37t-35 14t-35 -14t-13 -37v-198q0 -23 13 -37t35 -14t35 14t13 37z" />
    <glyph glyph-name="uni0441" unicode="&#x441;" horiz-adv-x="387" 
d="M199 -12q-74 0 -120 47t-46 123v185q0 75 45.5 122t118.5 47q70 0 114.5 -43t49.5 -116q1 -18 -17 -18h-85q-15 0 -17 18q-6 47 -45 47q-21 0 -33 -14t-12 -37v-198q0 -23 12 -37t34 -14q41 0 47 52q1 18 17 18h85q19 0 17 -20q-5 -74 -50 -118t-115 -44z" />
    <glyph glyph-name="uni0442" unicode="&#x442;" horiz-adv-x="347" 
d="M132 0q-18 0 -18 18v372h-86q-18 0 -18 17v76q0 17 18 17h291q17 0 17 -17v-76q0 -17 -17 -17h-87v-372q0 -18 -17 -18h-83z" />
    <glyph glyph-name="uni0443" unicode="&#x443;" horiz-adv-x="411" 
d="M349 500q18 0 18 -17v-526q0 -79 -44 -124t-120 -45q-72 0 -115.5 44.5t-48.5 121.5q0 18 17 18h84q15 0 18 -18q5 -54 45 -54q22 0 34 13.5t12 37.5v90q-25 -23 -61 -23q-64 0 -106.5 47t-42.5 122v296q0 17 17 17h83q17 0 17 -17v-303q0 -23 12.5 -37t34.5 -14t34 14
t12 37v303q0 17 17 17h83z" />
    <glyph glyph-name="uni0444" unicode="&#x444;" horiz-adv-x="593" 
d="M256 -200q-17 0 -17 17v179h-42q-73 0 -118.5 46.5t-45.5 122.5v170q0 76 45.5 122.5t118.5 46.5h42v179q0 17 17 17h81q17 0 17 -17v-179h43q73 0 118 -46.5t45 -122.5v-170q0 -76 -45 -122.5t-118 -46.5h-43v-179q0 -17 -17 -17h-81zM196 107h43v286h-43q-21 0 -33 -14
t-12 -37v-184q0 -23 12 -37t33 -14zM354 107h43q21 0 33 13.5t12 37.5v184q0 24 -12 37.5t-33 13.5h-43v-286z" />
    <glyph glyph-name="uni0445" unicode="&#x445;" horiz-adv-x="394" 
d="M51 0q-18 0 -18 18v117q0 69 58 113q-58 44 -58 113v122q0 17 18 17h83q18 0 18 -17v-128q0 -23 12 -37t33 -14q22 0 34 14t12 37v128q0 17 17 17h84q17 0 17 -17v-122q0 -70 -57 -113q57 -43 57 -113v-117q0 -18 -17 -18h-84q-17 0 -17 18v123q0 23 -12 37t-34 14
q-21 0 -33 -14t-12 -37v-123q0 -18 -18 -18h-83z" />
    <glyph glyph-name="uni0446" unicode="&#x446;" horiz-adv-x="443" 
d="M329 -114q-18 0 -18 17v93h-107q-74 0 -119.5 46t-45.5 121v320q0 18 17 18h83q17 0 17 -18v-327q0 -22 13 -35.5t35 -13.5h44v376q0 18 18 18h83q17 0 17 -18v-374l3 -2q56 0 56 -56v-148q0 -17 -17 -17h-79z" />
    <glyph glyph-name="uni0447" unicode="&#x447;" horiz-adv-x="392" 
d="M253 0q-18 0 -18 18v122h-46q-73 0 -118.5 46.5t-45.5 120.5v176q0 18 18 18h83q18 0 18 -18v-183q0 -21 12.5 -34.5t32.5 -13.5h46v231q0 18 18 18h83q18 0 18 -18v-465q0 -18 -18 -18h-83z" />
    <glyph glyph-name="uni0448" unicode="&#x448;" horiz-adv-x="596" 
d="M203 -4q-74 0 -119 47t-45 122v318q0 18 17 18h81q18 0 18 -18v-325q0 -23 12.5 -37t33.5 -14h40v376q0 18 17 18h82q17 0 17 -18v-376h84v376q0 18 18 18h81q17 0 17 -18v-431q0 -56 -56 -56h-298z" />
    <glyph glyph-name="uni0449" unicode="&#x449;" horiz-adv-x="626" 
d="M520 -114q-17 0 -17 17v93h-300q-74 0 -119 47t-45 122v318q0 18 17 18h81q18 0 18 -18v-325q0 -23 12.5 -37t33.5 -14h40v376q0 18 17 18h82q17 0 17 -18v-376h84v376q0 18 18 18h81q17 0 17 -18v-373l3 -3q56 0 56 -56v-148q0 -17 -17 -17h-79z" />
    <glyph glyph-name="uni044A" unicode="&#x44a;" horiz-adv-x="451" 
d="M261 324q75 0 119.5 -45t44.5 -118q0 -75 -46 -120t-121 -45h-104q-56 0 -56 56v340h-70q-18 0 -18 17v74q0 17 18 17h132q53 0 53 -56v-120h48zM258 107q22 0 35.5 14.5t13.5 41.5t-13.5 41.5t-35.5 14.5h-45v-112h45z" />
    <glyph glyph-name="uni044B" unicode="&#x44b;" horiz-adv-x="574" 
d="M100 -4q-56 0 -56 56v431q0 17 18 17h82q17 0 17 -17v-168h48q73 0 118.5 -42.5t45.5 -113.5t-47.5 -117t-119.5 -46h-106zM430 0q-17 0 -17 18v465q0 17 17 17h83q17 0 17 -17v-465q0 -18 -17 -18h-83zM161 107h45q22 0 35.5 13.5t13.5 39.5q0 24 -13.5 37.5t-35.5 13.5
h-45v-104z" />
    <glyph glyph-name="uni044C" unicode="&#x44c;" horiz-adv-x="390" 
d="M100 -4q-56 0 -56 56v431q0 17 18 17h82q17 0 17 -17v-159h47q73 0 118.5 -45.5t45.5 -116.5q0 -75 -46.5 -120.5t-119.5 -45.5h-106zM161 106h45q22 0 35.5 15t13.5 43q0 26 -13.5 40.5t-35.5 14.5h-45v-113z" />
    <glyph glyph-name="uni044D" unicode="&#x44d;" horiz-adv-x="392" 
d="M193 -12q-71 0 -115.5 43t-49.5 117q-2 20 17 20h85q16 0 17 -18q6 -50 47 -50q22 0 34 13.5t12 37.5v64h-130q-18 0 -18 17v43q0 17 18 17h130v57q0 24 -12 37.5t-34 13.5q-41 0 -47 -47q-1 -18 -17 -18h-85q-19 0 -17 18q5 73 50 116t116 43q74 0 119.5 -46.5
t45.5 -122.5v-185q0 -76 -46 -123t-120 -47z" />
    <glyph glyph-name="uni044E" unicode="&#x44e;" horiz-adv-x="570" 
d="M376 -12q-73 0 -117.5 47t-44.5 123v40h-54v-180q0 -18 -18 -18h-80q-18 0 -18 18v465q0 17 18 17h80q18 0 18 -17v-174h54v34q0 75 44.5 122t117.5 47q72 0 116.5 -47t44.5 -122v-185q0 -76 -44.5 -123t-116.5 -47zM376 100q21 0 33 14t12 37v198q0 23 -12 37t-33 14
t-33 -13.5t-12 -37.5v-198q0 -24 12 -37.5t33 -13.5z" />
    <glyph glyph-name="uni044F" unicode="&#x44f;" horiz-adv-x="406" 
d="M206 512q72 0 117 -45t45 -118v-331q0 -18 -18 -18h-81q-17 0 -17 18v156h-40l-69 -157q-7 -17 -23 -17h-85q-10 0 -14 6t1 15l90 181q-74 43 -74 141q0 76 47.5 122.5t120.5 46.5zM252 282v63q0 55 -46 55q-50 0 -50 -58q0 -60 52 -60h44z" />
    <glyph glyph-name="uni0451" unicode="&#x451;" horiz-adv-x="391" 
d="M122 568q-24 0 -38 14.5t-14 37.5t14 37.5t38 14.5q23 0 37 -14.5t14 -37.5t-14 -37.5t-37 -14.5zM260 568q-23 0 -37.5 14.5t-14.5 37.5t14.5 37.5t37.5 14.5t37.5 -14.5t14.5 -37.5t-14.5 -37.5t-37.5 -14.5zM196 -11q-73 0 -118 46.5t-45 122.5v189q2 74 47 119
t119 45q72 2 119 -44t47 -119q0 -69 -45.5 -112t-118.5 -43h-49v-42q0 -24 12 -37.5t33 -13.5q39 0 45 42q3 17 18 17h84q17 0 17 -18q-5 -68 -50 -110t-115 -42zM152 297h49q22 0 34 12.5t12 35.5q0 55 -48 55q-47 0 -47 -51v-52z" />
    <glyph glyph-name="uni0452" unicode="&#x452;" horiz-adv-x="445" 
d="M256 504q67 0 109 -47t42 -123v-337q0 -201 -201 -203q-18 0 -18 17v76q0 18 18 18q43 1 63 19t20 59v358q0 24 -12 38t-34 14t-34 -14t-12 -38v-323q0 -18 -18 -18h-83q-17 0 -17 18v548h-52q-17 0 -17 17v37q0 18 17 18h52v45q0 17 17 17h83q18 0 18 -17v-45h113
q18 0 18 -18v-37q0 -17 -18 -17h-113v-81q29 19 59 19z" />
    <glyph glyph-name="uni0453" unicode="&#x453;" horiz-adv-x="296" 
d="M274 681q11 0 13.5 -6.5t-3.5 -14.5l-72 -91q-7 -11 -21 -11h-51q-11 0 -14 6t3 15l54 90q9 12 21 12h70zM56 0q-17 0 -17 18v293q0 94 45 142.5t132 48.5h46q18 0 18 -17v-77q0 -17 -18 -17h-42q-64 0 -64 -66v-307q0 -18 -17 -18h-83z" />
    <glyph glyph-name="uni0454" unicode="&#x454;" horiz-adv-x="392" 
d="M199 -12q-74 0 -120 47t-46 123v185q0 76 45.5 122.5t119.5 46.5q71 0 116 -43t50 -116q2 -18 -17 -18h-85q-16 0 -17 18q-6 47 -47 47q-22 0 -34 -13.5t-12 -37.5v-57h130q18 0 18 -17v-43q0 -17 -18 -17h-130v-64q0 -24 12 -37.5t34 -13.5q41 0 47 50q1 18 17 18h85
q19 0 17 -20q-5 -74 -49.5 -117t-115.5 -43z" />
    <glyph glyph-name="uni0455" unicode="&#x455;" horiz-adv-x="390" 
d="M200 -12q-80 0 -126 48t-48 113q0 21 17 21h83q15 0 19 -16q7 -54 52 -54q23 0 35.5 12t12.5 31q0 21 -22 37t-53.5 29.5t-62.5 30.5t-53 49.5t-22 76.5q0 65 45 105.5t115 40.5q80 0 120.5 -45t42.5 -102q0 -18 -17 -18h-83q-15 0 -18 17q-7 37 -44 37q-19 0 -31 -10.5
t-12 -27.5q0 -20 22 -35.5t53.5 -29t63 -31t53.5 -50t22 -78.5q0 -66 -45.5 -108.5t-118.5 -42.5z" />
    <glyph glyph-name="uni0456" unicode="&#x456;" horiz-adv-x="206" 
d="M103 560q-29 0 -47.5 19t-18.5 47q0 29 18.5 47.5t47.5 18.5q28 0 47 -19t19 -47q0 -27 -19.5 -46.5t-46.5 -19.5zM62 0q-18 0 -18 18v465q0 17 18 17h82q18 0 18 -17v-465q0 -18 -18 -18h-82z" />
    <glyph glyph-name="uni0457" unicode="&#x457;" horiz-adv-x="230" 
d="M52 570q-22 0 -35 13.5t-14 36.5q1 22 14 35.5t35 13.5t36 -13.5t14 -35.5q0 -23 -14 -36.5t-36 -13.5zM178 570q-22 0 -35.5 13.5t-13.5 36.5q0 22 13.5 35.5t35.5 13.5t35.5 -13t14.5 -36q-1 -23 -14.5 -36.5t-35.5 -13.5zM75 0q-18 0 -18 18v465q0 17 18 17h82
q18 0 18 -17v-465q0 -18 -18 -18h-82z" />
    <glyph glyph-name="uni0458" unicode="&#x458;" horiz-adv-x="270" 
d="M160 560q-29 0 -47.5 19t-18.5 47q0 29 18.5 47.5t47.5 18.5q28 0 47 -19t19 -47q0 -27 -19.5 -46.5t-46.5 -19.5zM18 -205q-18 0 -18 17v77q0 17 18 17h14q71 2 71 74v503q0 17 18 17h83q17 0 17 -17v-488q0 -94 -49 -147t-136 -53h-18z" />
    <glyph glyph-name="uni0459" unicode="&#x459;" horiz-adv-x="609" 
d="M428 315q72 0 117.5 -44.5t45.5 -116.5q0 -71 -46.5 -114.5t-118.5 -43.5h-101q-56 0 -56 56v341h-40q-22 0 -34.5 -13.5t-12.5 -36.5v-185q0 -72 -42 -116.5t-112 -45.5q-18 0 -18 18v76q0 18 18 18q17 1 27.5 13t10.5 32v184q0 75 45.5 121t117.5 46h98q26 0 41 -15
t15 -41v-133h45zM426 107q22 0 35.5 13.5t13.5 39.5q0 24 -13.5 37.5t-35.5 13.5h-43v-104h43z" />
    <glyph glyph-name="uni045A" unicode="&#x45a;" horiz-adv-x="593" 
d="M62 0q-18 0 -18 18v465q0 17 18 17h82q17 0 17 -17v-172h87v172q0 17 18 17h82q17 0 17 -17v-169h46q73 0 118.5 -44.5t45.5 -116.5q0 -70 -47 -113.5t-119 -43.5h-105q-56 0 -56 56v148h-87v-182q0 -18 -17 -18h-82zM365 107h44q22 0 35.5 13.5t13.5 38.5q0 24 -13.5 37
t-35.5 13h-44v-102z" />
    <glyph glyph-name="uni045B" unicode="&#x45b;" horiz-adv-x="447" 
d="M97 0q-18 0 -18 18v548h-51q-18 0 -18 17v37q0 18 18 18h51v45q0 17 18 17h83q17 0 17 -17v-45h114q17 0 17 -18v-37q0 -17 -17 -17h-114v-83q24 21 59 21q68 0 110 -47t42 -123v-316q0 -18 -17 -18h-84q-17 0 -17 18v323q0 24 -12.5 38t-34.5 14q-21 0 -33.5 -14
t-12.5 -38v-323q0 -18 -17 -18h-83z" />
    <glyph glyph-name="uni045C" unicode="&#x45c;" horiz-adv-x="403" 
d="M294 681q11 0 13.5 -6.5t-3.5 -14.5l-72 -91q-7 -11 -21 -11h-51q-11 0 -14 6t3 15l54 90q9 12 21 12h70zM299 283q69 -43 69 -139v-126q0 -18 -17 -18h-84q-17 0 -17 18v133q0 23 -12.5 36t-34.5 13h-41v-182q0 -18 -18 -18h-82q-18 0 -18 18v465q0 18 18 18h82
q18 0 18 -18v-172h29l68 175q4 14 20 14h85q10 0 14.5 -5.5t0.5 -14.5z" />
    <glyph glyph-name="uni045D" unicode="&#x45d;" horiz-adv-x="406" 
d="M101 682h70q12 0 21 -12l54 -90q6 -9 3 -15t-14 -6h-51q-14 0 -21 11l-72 91q-6 8 -3.5 14.5t13.5 6.5zM204 -1q-74 0 -119.5 46.5t-45.5 121.5v316q0 18 17 18h83q17 0 17 -18v-323q0 -22 13 -35.5t35 -13.5h40v372q0 18 18 18h83q17 0 17 -18v-427q0 -57 -56 -57h-102z
" />
    <glyph glyph-name="uni045E" unicode="&#x45e;" horiz-adv-x="411" 
d="M199 560q-50 0 -82.5 28t-38.5 75q-2 18 17 18h46q13 0 19 -16q8 -25 39 -25q29 0 39 25q6 16 18 16h46q19 0 17 -18q-6 -48 -38 -75.5t-82 -27.5zM349 500q18 0 18 -17v-526q0 -79 -44 -124t-120 -45q-72 0 -115.5 44.5t-48.5 121.5q0 18 17 18h84q15 0 18 -18
q5 -54 45 -54q22 0 34 13.5t12 37.5v90q-25 -23 -61 -23q-64 0 -106.5 47t-42.5 122v296q0 17 17 17h83q17 0 17 -17v-303q0 -23 12.5 -37t34.5 -14t34 14t12 37v303q0 17 17 17h83z" />
    <glyph glyph-name="uni045F" unicode="&#x45f;" horiz-adv-x="412" 
d="M172 -114q-17 0 -17 17v97h-55q-56 0 -56 56v427q0 17 18 17h82q18 0 18 -17v-372h88v372q0 17 18 17h83q17 0 17 -17v-427q0 -56 -56 -56h-54v-97q0 -17 -18 -17h-68z" />
    <glyph glyph-name="uni0490" unicode="&#x490;" horiz-adv-x="368" 
d="M341 796q18 0 18 -17v-172q0 -7 -5.5 -12.5t-12.5 -5.5h-102q-33 0 -51 -20t-18 -56v-495q0 -18 -17 -18h-91q-18 0 -18 18v495q0 86 53.5 139t141.5 53h18v74q0 17 18 17h66z" />
    <glyph glyph-name="uni0491" unicode="&#x491;" horiz-adv-x="312" 
d="M56 0q-17 0 -17 18v314q0 78 41.5 124t112.5 46l8 4v56q0 17 17 17h60q17 0 17 -17v-112q0 -57 -56 -57h-31q-24 0 -38 -14t-14 -40v-321q0 -18 -17 -18h-83z" />
    <glyph glyph-name="Wgrave" unicode="&#x1e80;" horiz-adv-x="653" 
d="M323 779l-77 90q-7 8 -4.5 15t13.5 7h70q14 0 21 -11l61 -90q6 -8 2.5 -14.5t-14.5 -6.5h-50q-13 0 -22 10zM591 700q18 0 18 -17v-504q0 -86 -47 -138.5t-126 -52.5q-63 0 -110 45q-47 -45 -110 -45q-78 0 -125 52.5t-47 138.5v504q0 17 18 17h88q18 0 18 -17v-513
q0 -64 48 -64q23 0 36 17t13 47v513q0 17 17 17h88q18 0 18 -17v-513q0 -30 13 -47t35 -17q49 0 49 64v513q0 17 17 17h89z" />
    <glyph glyph-name="wgrave" unicode="&#x1e81;" horiz-adv-x="596" 
d="M211 682h70q12 0 21 -12l54 -90q6 -9 3 -15t-14 -6h-51q-14 0 -21 11l-72 91q-6 8 -3.5 14.5t13.5 6.5zM399 -12q-60 0 -101 44q-41 -44 -101 -44q-71 0 -114.5 47t-43.5 122v325q0 18 17 18h81q18 0 18 -18v-331q0 -51 42 -51q43 0 43 51v331q0 18 17 18h82q17 0 17 -18
v-331q0 -51 43 -51q42 0 42 51v331q0 18 18 18h81q17 0 17 -18v-325q0 -75 -43.5 -122t-114.5 -47z" />
    <glyph glyph-name="Wacute" unicode="&#x1e82;" horiz-adv-x="653" 
d="M278 769q-11 0 -14.5 6.5t2.5 14.5l61 90q7 11 21 11h70q11 0 13.5 -7t-4.5 -15l-77 -90q-9 -10 -22 -10h-50zM591 700q18 0 18 -17v-504q0 -86 -47 -138.5t-126 -52.5q-63 0 -110 45q-47 -45 -110 -45q-78 0 -125 52.5t-47 138.5v504q0 17 18 17h88q18 0 18 -17v-513
q0 -64 48 -64q23 0 36 17t13 47v513q0 17 17 17h88q18 0 18 -17v-513q0 -30 13 -47t35 -17q49 0 49 64v513q0 17 17 17h89z" />
    <glyph glyph-name="wacute" unicode="&#x1e83;" horiz-adv-x="596" 
d="M391 681q11 0 13.5 -6.5t-3.5 -14.5l-72 -91q-7 -11 -21 -11h-51q-11 0 -14 6t3 15l54 90q9 12 21 12h70zM399 -12q-60 0 -101 44q-41 -44 -101 -44q-71 0 -114.5 47t-43.5 122v325q0 18 17 18h81q18 0 18 -18v-331q0 -51 42 -51q43 0 43 51v331q0 18 17 18h82
q17 0 17 -18v-331q0 -51 43 -51q42 0 42 51v331q0 18 18 18h81q17 0 17 -18v-325q0 -75 -43.5 -122t-114.5 -47z" />
    <glyph glyph-name="Wdieresis" unicode="&#x1e84;" horiz-adv-x="653" 
d="M257 771q-24 0 -38 14.5t-14 37.5t14 37.5t38 14.5q23 0 37 -14.5t14 -37.5t-14 -37.5t-37 -14.5zM395 771q-23 0 -37.5 14.5t-14.5 37.5t14.5 37.5t37.5 14.5t37.5 -14.5t14.5 -37.5t-14.5 -37.5t-37.5 -14.5zM591 700q18 0 18 -17v-504q0 -86 -47 -138.5t-126 -52.5
q-63 0 -110 45q-47 -45 -110 -45q-78 0 -125 52.5t-47 138.5v504q0 17 18 17h88q18 0 18 -17v-513q0 -64 48 -64q23 0 36 17t13 47v513q0 17 17 17h88q18 0 18 -17v-513q0 -30 13 -47t35 -17q49 0 49 64v513q0 17 17 17h89z" />
    <glyph glyph-name="wdieresis" unicode="&#x1e85;" horiz-adv-x="596" 
d="M241 568q-24 0 -38 14.5t-14 37.5t14 37.5t38 14.5q23 0 37 -14.5t14 -37.5t-14 -37.5t-37 -14.5zM379 568q-23 0 -37.5 14.5t-14.5 37.5t14.5 37.5t37.5 14.5t37.5 -14.5t14.5 -37.5t-14.5 -37.5t-37.5 -14.5zM399 -12q-60 0 -101 44q-41 -44 -101 -44q-71 0 -114.5 47
t-43.5 122v325q0 18 17 18h81q18 0 18 -18v-331q0 -51 42 -51q43 0 43 51v331q0 18 17 18h82q17 0 17 -18v-331q0 -51 43 -51q42 0 42 51v331q0 18 18 18h81q17 0 17 -18v-325q0 -75 -43.5 -122t-114.5 -47z" />
    <glyph glyph-name="Ygrave" unicode="&#x1ef2;" horiz-adv-x="419" 
d="M278 769h-50q-13 0 -22 10l-77 90q-7 8 -4.5 15t13.5 7h70q14 0 21 -11l61 -90q6 -8 2.5 -14.5t-14.5 -6.5zM165 0q-18 0 -18 18v212q-53 17 -84 64.5t-31 112.5v276q0 17 18 17h89q18 0 18 -17v-285q0 -28 14 -44.5t38 -16.5q25 0 39 16.5t14 44.5v285q0 17 18 17h89
q18 0 18 -17v-276q0 -65 -31 -112.5t-84 -64.5v-212q0 -18 -18 -18h-89z" />
    <glyph glyph-name="ygrave" unicode="&#x1ef3;" horiz-adv-x="411" 
d="M169 570l-72 91q-6 8 -3.5 14.5t13.5 6.5h70q12 0 21 -12l54 -90q6 -9 3 -15t-14 -6h-51q-14 0 -21 11zM349 500q18 0 18 -17v-526q0 -79 -44 -124t-120 -45q-72 0 -115.5 44.5t-48.5 121.5q0 18 17 18h84q15 0 18 -18q5 -54 45 -54q22 0 34 13.5t12 37.5v90
q-25 -23 -61 -23q-64 0 -106.5 47t-42.5 122v296q0 17 17 17h83q17 0 17 -17v-303q0 -23 12.5 -37t34.5 -14t34 14t12 37v303q0 17 17 17h83z" />
    <glyph glyph-name="endash" unicode="&#x2013;" horiz-adv-x="389" 
d="M29 207q-17 0 -17 17v66q0 18 17 18h330q18 0 18 -18v-66q0 -17 -18 -17h-330z" />
    <glyph glyph-name="emdash" unicode="&#x2014;" horiz-adv-x="525" 
d="M13 290q0 18 17 18h465q18 0 18 -18v-66q0 -17 -18 -17h-465q-17 0 -17 17v66z" />
    <glyph glyph-name="quoteleft" unicode="&#x2018;" horiz-adv-x="129" 
d="M108 492q-2 -16 -18 -16h-70q-19 0 -16 19l37 189q3 16 19 16h40q18 0 18 -18z" />
    <glyph glyph-name="quoteright" unicode="&#x2019;" horiz-adv-x="129" 
d="M22 684q2 16 18 16h70q19 0 16 -19l-37 -189q-3 -16 -19 -16h-40q-18 0 -18 18z" />
    <glyph glyph-name="quotesinglbase" unicode="&#x201a;" horiz-adv-x="142" 
d="M21 96q2 16 18 16h70q19 0 16 -19l-37 -189q-3 -16 -19 -16h-40q-18 0 -18 18z" />
    <glyph glyph-name="quotedblleft" unicode="&#x201c;" horiz-adv-x="258" 
d="M106 492q-2 -16 -18 -16h-70q-19 0 -16 19l37 189q3 16 19 16h40q18 0 18 -18zM236 492q-2 -16 -18 -16h-70q-19 0 -16 19l37 189q3 16 19 16h40q18 0 18 -18z" />
    <glyph glyph-name="quotedblright" unicode="&#x201d;" horiz-adv-x="261" 
d="M23 684q2 16 18 16h70q19 0 16 -19l-37 -189q-3 -16 -19 -16h-40q-18 0 -18 18zM153 684q2 16 18 16h70q19 0 16 -19l-37 -189q-3 -16 -19 -16h-40q-18 0 -18 18z" />
    <glyph glyph-name="quotedblbase" unicode="&#x201e;" horiz-adv-x="145" 
d="M21 96q2 16 18 16h70q19 0 16 -19l-37 -189q-3 -16 -19 -16h-40q-18 0 -18 18z" />
    <glyph glyph-name="dagger" unicode="&#x2020;" horiz-adv-x="363" 
d="M329 518q18 0 18 -18v-69q0 -17 -18 -17h-93v-497q0 -17 -17 -17h-75q-17 0 -17 17v497h-93q-17 0 -17 17v69q0 18 17 18h93v165q0 17 17 17h75q17 0 17 -17v-165h93z" />
    <glyph glyph-name="daggerdbl" unicode="&#x2021;" horiz-adv-x="369" 
d="M332 414h-93v-183h93q18 0 18 -17v-69q0 -18 -18 -18h-93v-210q0 -17 -17 -17h-75q-17 0 -17 17v210h-93q-17 0 -17 18v69q0 17 17 17h93v183h-93q-17 0 -17 17v69q0 18 17 18h93v165q0 17 17 17h75q17 0 17 -17v-165h93q18 0 18 -18v-69q0 -17 -18 -17z" />
    <glyph glyph-name="bullet" unicode="&#x2022;" horiz-adv-x="224" 
d="M110 160q-37 0 -63 26t-26 63q0 38 26 65.5t63 27.5q38 0 65.5 -27.5t27.5 -65.5q0 -37 -27.5 -63t-65.5 -26z" />
    <glyph glyph-name="ellipsis" unicode="&#x2026;" horiz-adv-x="544" 
d="M90 -10q-31 0 -49.5 19t-18.5 49t18.5 49t49.5 19q30 0 48.5 -19t18.5 -49t-18.5 -49t-48.5 -19zM272 -10q-30 0 -49 19t-19 49t19 49t49 19t49 -19t19 -49t-19 -49t-49 -19zM455 -10q-31 0 -49.5 19t-18.5 49t18.5 49t49.5 19q30 0 48.5 -19t18.5 -49t-18.5 -49
t-48.5 -19z" />
    <glyph glyph-name="perthousand" unicode="&#x2030;" horiz-adv-x="816" 
d="M119 388q-42 0 -68 25t-26 64v144q0 39 26 64.5t68 25.5t68 -25.5t26 -64.5v-144q0 -39 -26 -64t-68 -25zM32 -5q-9 0 -14 6.5t-1 13.5l483 675q13 15 21 15h46q10 0 15 -6.5t0 -13.5l-483 -675q-9 -15 -20 -15h-47zM119 450q22 0 22 26v146q0 27 -22 27q-23 0 -23 -27
v-146q0 -11 6.5 -18.5t16.5 -7.5zM482 -10q-42 0 -68 25.5t-26 64.5v143q0 39 26 65t68 26t68 -26t26 -65v-143q0 -39 -26 -64.5t-68 -25.5zM712 -10q-42 0 -68 25.5t-26 64.5v143q0 39 26 65t68 26t68 -26t26 -65v-143q0 -39 -26 -64.5t-68 -25.5zM482 52q22 0 22 26v147
q0 27 -22 27q-10 0 -16.5 -7.5t-6.5 -19.5v-147q0 -11 6.5 -18.5t16.5 -7.5zM712 52q22 0 22 26v147q0 27 -22 27q-10 0 -16.5 -7.5t-6.5 -19.5v-147q0 -11 6.5 -18.5t16.5 -7.5z" />
    <glyph glyph-name="guilsinglleft" unicode="&#x2039;" horiz-adv-x="271" 
d="M148 83q-14 0 -21 11l-95 126q-26 38 0 74l95 127q6 10 21 10h84q11 0 14 -6.5t-4 -14.5l-117 -153l117 -153q7 -8 4 -14.5t-14 -6.5h-84z" />
    <glyph glyph-name="guilsinglright" unicode="&#x203a;" horiz-adv-x="271" 
d="M123 83h-84q-11 0 -14 6.5t4 14.5l117 153l-117 153q-7 8 -4 14.5t14 6.5h84q15 0 21 -10l95 -127q26 -36 0 -74l-95 -126q-7 -11 -21 -11z" />
    <glyph glyph-name="Euro" unicode="&#x20ac;" horiz-adv-x="477" 
d="M438 214q19 0 17 -19q-3 -97 -50.5 -152t-127.5 -55q-81 0 -130.5 52t-49.5 136v84h-57q-18 0 -18 18v33q0 17 18 17h57v50h-57q-18 0 -18 18v33q0 17 18 17h57v78q0 85 49.5 136.5t130.5 51.5q77 0 124 -53.5t50 -145.5q0 -18 -17 -18h-91q-17 0 -17 17q-3 82 -52 82
q-24 0 -37.5 -16t-13.5 -45v-87h146q17 0 17 -17v-33q0 -18 -17 -18h-146v-50h146q17 0 17 -17v-33q0 -18 -17 -18h-146v-93q0 -29 13.5 -45t37.5 -16q53 0 56 91q2 17 17 17h91z" />
    <glyph glyph-name="trademark" unicode="&#x2122;" horiz-adv-x="461" 
d="M363 705q37 0 59 -23t22 -62v-188q0 -8 -8 -8h-42q-7 0 -7 8v188q0 30 -24 30q-22 0 -22 -30v-188q0 -8 -7 -8h-43q-8 0 -8 8v188q0 30 -22 30q-23 0 -23 -30v-188q0 -8 -8 -8h-43q-7 0 -7 8v188q0 39 22 62t59 23q30 0 51 -21q21 21 51 21zM155 700q6 0 6 -7v-35
q0 -8 -6 -8h-41v-218q0 -8 -7 -8h-42q-8 0 -8 8v218h-39q-7 0 -7 8v35q0 7 7 7h137z" />
    <glyph glyph-name="partialdiff" unicode="&#x2202;" horiz-adv-x="403" 
d="M150 711q100 0 157 -57t58 -160v-336q0 -76 -45.5 -123t-120.5 -47t-120.5 47t-45.5 123v177q0 76 39.5 122.5t105.5 46.5q43 0 69 -23v24q0 48 -26.5 75.5t-73.5 27.5h-27q-18 0 -18 17v69q0 17 18 17h30zM247 152v190q0 23 -13 37t-35 14t-35 -14t-13 -37v-190
q0 -24 13 -38t35 -14t35 14t13 38z" />
    <glyph glyph-name="emptyset" unicode="&#x2205;" horiz-adv-x="775" 
d="M724 745q10 0 15.5 -5.5t-0.5 -13.5l-91 -120q91 -97 91 -256q0 -163 -97 -262t-256 -99q-99 0 -176 40l-45 -59q-13 -15 -23 -15h-91q-9 0 -14.5 6t-0.5 13l90 118q-93 99 -93 258q0 163 97 262t256 99q102 0 179 -41l46 60q11 15 23 15h90zM142 350q0 -100 52 -168
l305 400q-49 24 -113 24q-110 0 -177 -70.5t-67 -185.5zM630 350q0 99 -50 166l-304 -399q51 -23 110 -23q110 0 177 70.5t67 185.5z" />
    <glyph glyph-name="product" unicode="&#x220f;" horiz-adv-x="464" 
d="M67 -100q-18 0 -18 17v726q0 57 58 57h251q57 0 57 -57v-726q0 -17 -17 -17h-93q-17 0 -17 17v668h-111v-668q0 -17 -18 -17h-92z" />
    <glyph glyph-name="summation" unicode="&#x2211;" horiz-adv-x="353" 
d="M56 -5q-37 0 -37 35q0 47 8 63l130 257l-130 258q-8 15 -8 63q0 34 37 34h268q17 0 17 -18v-81q0 -17 -17 -17h-173l101 -194q6 -11 6 -22v-46q0 -11 -6 -22l-101 -193h173q17 0 17 -18v-81q0 -18 -17 -18h-268z" />
    <glyph glyph-name="minus" unicode="&#x2212;" horiz-adv-x="475" 
d="M53 307q-18 0 -18 17v72q0 18 18 18h370q17 0 17 -18v-72q0 -17 -17 -17h-370z" />
    <glyph glyph-name="radical" unicode="&#x221a;" horiz-adv-x="510" 
d="M494 800q18 0 15 -19l-153 -739q-11 -47 -56 -47h-62q-46 0 -57 47l-77 354h-77q-17 0 -17 18v69q0 17 17 17h130q49 0 56 -48l55 -340l119 672q1 16 19 16h88z" />
    <glyph glyph-name="infinity" unicode="&#x221e;" horiz-adv-x="607" 
d="M424 414q66 0 108 -45t42 -117t-40 -116t-106 -44q-79 0 -124 69q-47 -69 -125 -69q-65 0 -105.5 44.5t-40.5 115.5q0 72 42 117t108 45q73 0 121 -60q48 60 120 60zM192 198q19 0 30.5 14t22.5 42q-11 27 -22.5 40.5t-30.5 13.5t-33 -14.5t-14 -40.5t14 -40.5t33 -14.5z
M415 198q20 0 33.5 14.5t13.5 40.5t-13.5 40.5t-33.5 14.5q-19 0 -30.5 -13.5t-22.5 -40.5q11 -28 22.5 -42t30.5 -14z" />
    <glyph glyph-name="integral" unicode="&#x222b;" horiz-adv-x="337" 
d="M313 705q18 0 18 -18v-76q0 -18 -18 -18h-14q-35 0 -53.5 -19.5t-18.5 -54.5v-524q0 -95 -48.5 -147.5t-136.5 -52.5h-18q-18 0 -18 17v77q0 17 18 17h14q72 2 72 74v525q0 94 48.5 146.5t136.5 53.5h18z" />
    <glyph glyph-name="approxequal" unicode="&#x2248;" horiz-adv-x="475" 
d="M383 484q12 15 22 0l35 -55q10 -13 -1 -25q-40 -51 -104 -51q-33 0 -97.5 21.5t-86.5 21.5q-34 0 -58 -26q-13 -14 -23 0l-35 55q-10 13 1 25q43 51 105 51q33 0 97 -22t87 -22q33 0 58 27zM383 313q12 15 22 0l35 -55q9 -12 -1 -24q-41 -52 -104 -52q-33 0 -97.5 21.5
t-86.5 21.5q-34 0 -58 -26q-13 -14 -23 0l-35 56q-9 12 1 24q42 51 105 51q33 0 97 -21.5t87 -21.5q32 0 58 26z" />
    <glyph glyph-name="notequal" unicode="&#x2260;" horiz-adv-x="475" 
d="M423 373h-114l-32 -72h146q17 0 17 -17v-73q0 -17 -17 -17h-195l-29 -65q-7 -13 -21 -13h-72q-10 0 -14 5.5t0 15.5l26 57h-65q-18 0 -18 17v73q0 17 18 17h113l33 72h-146q-18 0 -18 18v72q0 17 18 17h195l29 65q4 13 21 13h72q22 0 14 -20l-26 -58h65q17 0 17 -17v-72
q0 -18 -17 -18z" />
    <glyph glyph-name="lessequal" unicode="&#x2264;" horiz-adv-x="455" 
d="M366 479q0 -11 -9 -15l-183 -75l183 -76q9 -1 9 -14v-68q0 -13 -10 -19t-21 0l-253 118q-8 3 -8 14v90q0 9 8 14l253 118q11 5 21 -1t10 -18v-68zM349 175q17 0 17 -17v-69q0 -17 -17 -17h-257q-18 0 -18 17v69q0 17 18 17h257z" />
    <glyph glyph-name="greaterequal" unicode="&#x2265;" horiz-adv-x="400" 
d="M328 448q8 -5 8 -14v-90q0 -11 -8 -14l-253 -118q-11 -6 -21 0t-10 19v68q0 13 9 14l183 76l-183 75q-9 4 -9 15v68q0 12 10 18t21 1zM318 175q18 0 18 -17v-69q0 -17 -18 -17h-257q-17 0 -17 17v69q0 17 17 17h257z" />
    <glyph glyph-name="lozenge" unicode="&#x25ca;" horiz-adv-x="462" 
d="M197 -5q-23 0 -35.5 12t-21.5 36l-101 274q-12 34 0 68l101 272q9 24 21.5 36t35.5 12h68q23 0 35.5 -11.5t21.5 -36.5l100 -272q12 -34 0 -68l-100 -274q-9 -24 -21.5 -36t-35.5 -12h-68zM231 117l76 234l-76 233l-77 -233z" />
    <glyph glyph-name="uni0162.ss01" horiz-adv-x="373" 
d="M344 700q17 0 17 -17v-81q0 -17 -17 -17h-95v-567q0 -18 -17 -18h-11l-8 -44h6q30 -2 50.5 -23t20.5 -52q0 -42 -27.5 -66t-71.5 -24q-37 0 -63 20t-31 55q-3 18 17 18h26q11 0 19 -14q9 -17 32 -17q35 0 35 28q0 12 -10 19.5t-24 7.5q-18 0 -35 -3q-6 -1 -12 3l-4 4
q-5 4 -4 11l16 77h-12q-17 0 -17 18v567h-95q-18 0 -18 17v81q0 17 18 17h315z" />
    <glyph glyph-name="i.loclTRK" horiz-adv-x="206" 
d="M103 560q-29 0 -47.5 19t-18.5 47q0 29 18.5 47.5t47.5 18.5q28 0 47 -19t19 -47q0 -27 -19.5 -46.5t-46.5 -19.5zM62 0q-18 0 -18 18v465q0 17 18 17h82q18 0 18 -17v-465q0 -18 -18 -18h-82z" />
    <glyph glyph-name="uni0163.ss01" horiz-adv-x="308" 
d="M253 -5q-18 0 -35 3l-7 -42h5q31 -2 51.5 -23t20.5 -52q0 -42 -28 -66t-71 -24q-38 0 -63.5 20t-30.5 55q-2 8 2.5 13t13.5 5h27q10 0 19 -14q8 -17 32 -17q15 0 24.5 7.5t9.5 20.5q0 12 -9.5 19.5t-24.5 7.5q-19 0 -35 -3q-6 -2 -11 3l-5 4q-4 4 -3 11l18 98
q-76 47 -76 161v212h-50q-17 0 -17 17v72q0 17 17 17h50v129q0 17 17 17h83q17 0 17 -17v-129h67q17 0 17 -17v-72q0 -17 -17 -17h-67v-214q0 -74 68 -74h10q17 0 17 -17v-76q0 -18 -17 -18h-19z" />
    <glyph glyph-name="uni0414.loclBGR" horiz-adv-x="503" 
d="M21 -117q-17 0 -17 18v145q0 30 15.5 49.5t41.5 19.5h2l85 540q8 49 56 49h96q48 0 56 -49l84 -540h2q28 0 43 -19.5t15 -49.5v-145q0 -18 -18 -18h-88q-18 0 -18 18v99h-249v-99q0 -18 -17 -18h-89zM188 115h128l-64 456z" />
    <glyph glyph-name="uni0418.loclBGR" horiz-adv-x="452" 
d="M208 -12q-76 0 -120 51.5t-44 136.5v507q0 17 18 17h90q17 0 17 -17v-516q0 -29 13.5 -46t36.5 -17q27 0 42.5 17.5t15.5 47.5v514q0 17 18 17h90q18 0 18 -17v-665q0 -18 -18 -18h-40q-13 0 -19 14l-10 26q-41 -52 -108 -52z" />
    <glyph glyph-name="uni0419.loclBGR" horiz-adv-x="452" 
d="M223 767q-50 0 -82.5 28t-38.5 75q-2 19 18 19h45q13 0 19 -16q8 -25 39 -25t39 25q6 16 18 16h46q18 0 18 -19q-6 -47 -38.5 -75t-82.5 -28zM208 -12q-76 0 -120 51.5t-44 136.5v507q0 17 18 17h90q17 0 17 -17v-516q0 -29 13.5 -46t36.5 -17q27 0 42.5 17.5t15.5 47.5
v514q0 17 18 17h90q18 0 18 -17v-665q0 -18 -18 -18h-40q-13 0 -19 14l-10 26q-41 -52 -108 -52z" />
    <glyph glyph-name="uni040D.loclBGR" horiz-adv-x="452" 
d="M292 769h-50q-13 0 -22 10l-77 90q-7 8 -4.5 15t13.5 7h70q14 0 21 -11l61 -90q6 -8 2.5 -14.5t-14.5 -6.5zM208 -12q-76 0 -120 51.5t-44 136.5v507q0 17 18 17h90q17 0 17 -17v-516q0 -29 13.5 -46t36.5 -17q27 0 42.5 17.5t15.5 47.5v514q0 17 18 17h90q18 0 18 -17
v-665q0 -18 -18 -18h-40q-13 0 -19 14l-10 26q-41 -52 -108 -52z" />
    <glyph glyph-name="uni041B.loclBGR" horiz-adv-x="413" 
d="M409 18q3 -18 -16 -18h-93q-17 0 -18 16l-75 532l-76 -532q-1 -16 -18 -16h-94q-18 0 -15 18l109 638q8 49 56 49h75q48 0 56 -49z" />
    <glyph glyph-name="uni041F.loclBGR" horiz-adv-x="447" 
d="M62 0q-18 0 -18 18v505q0 84 49 136.5t130 52.5t130.5 -52.5t49.5 -136.5v-505q0 -18 -18 -18h-90q-18 0 -18 18v514q0 29 -14.5 46t-39.5 17t-39.5 -17t-14.5 -46v-514q0 -18 -17 -18h-90z" />
    <glyph glyph-name="uni0422.loclBGR" horiz-adv-x="370" 
d="M342 700q18 0 18 -17v-81q0 -17 -18 -17h-95v-567q0 -18 -17 -18h-90q-17 0 -17 18v567h-96q-17 0 -17 17v81q0 17 17 17h315z" />
    <glyph glyph-name="uni0423.loclBGR" horiz-adv-x="412" 
d="M357 701q18 0 18 -18v-491q0 -88 -49 -142t-135 -54h-146q-17 0 -17 18v80q0 18 17 18h137q67 0 67 77v59q-27 -19 -60 -19q-76 0 -124 53t-48 137v264q0 18 18 18h90q17 0 17 -18v-273q0 -29 14.5 -46t39.5 -17q53 0 53 65v271q0 18 18 18h90z" />
    <glyph glyph-name="uni040E.loclBGR" horiz-adv-x="412" 
d="M205 767q-50 0 -82.5 28t-38.5 75q-2 19 18 19h45q13 0 19 -16q8 -25 39 -25t39 25q6 16 18 16h46q18 0 18 -19q-6 -47 -38.5 -75t-82.5 -28zM357 701q18 0 18 -18v-491q0 -88 -49 -142t-135 -54h-146q-17 0 -17 18v80q0 18 17 18h137q67 0 67 77v59q-27 -19 -60 -19
q-76 0 -124 53t-48 137v264q0 18 18 18h90q17 0 17 -18v-273q0 -29 14.5 -46t39.5 -17q53 0 53 65v271q0 18 18 18h90z" />
    <glyph glyph-name="uni0424.loclBGR" horiz-adv-x="640" 
d="M436 711q75 0 121 -51t46 -134v-352q0 -83 -46 -134t-121 -51q-27 0 -54 11v-101q0 -18 -18 -18h-88q-17 0 -17 18v101q-29 -12 -55 -12q-75 0 -121 51t-46 134v353q0 83 46 134t121 51q28 0 55 -11v86q0 17 17 17h88q18 0 18 -17v-86q27 11 54 11zM210 105q22 0 35.5 16
t13.5 42v374q0 26 -13.5 42t-35.5 16q-23 0 -36.5 -16t-13.5 -42v-374q0 -26 13.5 -42t36.5 -16zM480 164v373q0 26 -13.5 42t-36.5 16q-22 0 -35 -16t-13 -42v-374q0 -26 13 -42t35 -16q23 0 36.5 16t13.5 43z" />
    <glyph glyph-name="uni0427.loclBGR" horiz-adv-x="429" 
d="M272 0q-18 0 -18 18v222q-25 -20 -60 -20q-76 0 -124 52.5t-48 137.5v273q0 18 18 18h90q17 0 17 -18v-282q0 -29 14.5 -46.5t39.5 -17.5t39 17.5t14 47.5v281q0 18 18 18h90q18 0 18 -18v-665q0 -18 -18 -18h-90z" />
    <glyph glyph-name="uni0426.loclBGR" horiz-adv-x="501" 
d="M391 -114q-18 0 -18 17v97q-37 11 -50 42q-42 -54 -116 -54t-118.5 52t-44.5 136v507q0 17 18 17h90q17 0 17 -17v-516q0 -29 13.5 -46t37.5 -17q25 0 41 17.5t16 47.5v514q0 17 18 17h90q18 0 18 -17v-523q0 -26 9 -39t22 -16.5t26 -7.5t22 -18.5t9 -42.5v-133
q0 -17 -18 -17h-82z" />
    <glyph glyph-name="uni0428.loclBGR" horiz-adv-x="671" 
d="M219 -12q-80 0 -127.5 52.5t-47.5 137.5v505q0 17 18 17h88q18 0 18 -17v-514q0 -30 13.5 -47t37.5 -17q25 0 38.5 17t13.5 47v514q0 17 18 17h88q18 0 18 -17v-516q0 -29 13.5 -46t36.5 -17q24 0 38.5 17.5t14.5 47.5v514q0 17 18 17h88q18 0 18 -17v-665q0 -18 -15 -18
h-33q-14 0 -20 14l-8 25q-43 -51 -114 -51t-102 53q-39 -53 -111 -53z" />
    <glyph glyph-name="uni0429.loclBGR" horiz-adv-x="718" 
d="M611 -114q-18 0 -18 17v97q-38 11 -50 41q-36 -53 -106 -53q-65 0 -108 41q-43 -41 -111 -41q-78 0 -126 52.5t-48 137.5v505q0 17 18 17h88q17 0 17 -17v-514q0 -29 13.5 -46.5t37.5 -17.5q25 0 38.5 17t13.5 47v514q0 17 18 17h89q17 0 17 -17v-516q0 -29 14 -46
t39 -17q23 0 36.5 17t13.5 48v514q0 17 18 17h88q17 0 17 -17v-523q0 -29 14 -42t30.5 -14t30.5 -15t14 -46v-140q0 -17 -18 -17h-80z" />
    <glyph glyph-name="uni041B.ss01" horiz-adv-x="487" 
d="M28 -4q-18 0 -18 18v82q0 16 17 18q62 9 62 90v319q0 85 48.5 137t128.5 52q79 0 128 -52t49 -137v-505q0 -18 -18 -18h-90q-18 0 -18 18v514q0 62 -51 62q-25 0 -38.5 -16.5t-13.5 -45.5v-342q0 -87 -50 -140t-136 -54z" />
    <glyph glyph-name="uni0432.loclBGR" horiz-adv-x="405" 
d="M316 365q61 -42 61 -121v-86q0 -76 -47 -123t-122 -47q-76 0 -122.5 47t-46.5 123v384q0 76 44 123t117 47q74 0 118 -47t44 -123v-70q0 -67 -46 -107zM157 549v-138h39q22 0 35 14t13 38v86q0 51 -44 51q-43 0 -43 -51zM258 152v100q0 24 -14 38.5t-38 14.5h-49v-153
q0 -24 13.5 -38t37.5 -14q23 0 36.5 14t13.5 38z" />
    <glyph glyph-name="uni0433.loclBGR" horiz-adv-x="390" 
d="M192 -12q-76 0 -121 41.5t-45 108.5q0 46 22 79.5t53.5 51t63 30.5t53.5 28t22 35q0 39 -43 39q-38 0 -44 -37q-3 -17 -18 -17h-83q-17 0 -17 18q5 67 47.5 107t112.5 40q75 0 119 -39.5t44 -103.5q0 -46 -22 -79t-53 -50.5t-62.5 -30.5t-53.5 -28.5t-22 -35.5
q0 -21 13 -33t35 -12q46 0 52 52q5 16 19 16h83q19 0 17 -19q-5 -74 -50.5 -117.5t-121.5 -43.5z" />
    <glyph glyph-name="uni0434.loclBGR" horiz-adv-x="405" 
d="M200 512q74 0 120 -47t46 -122v-386q0 -79 -44.5 -124t-121.5 -45q-73 0 -117 44.5t-49 121.5q-2 18 17 18h84q15 0 18 -18q5 -54 47 -54q23 0 35.5 13.5t12.5 37.5v87q-27 -21 -63 -21q-65 0 -108.5 47t-43.5 122v157q0 75 46 122t121 47zM200 128q22 0 35 14t13 37v170
q0 23 -13 37t-35 14t-35 -14t-13 -37v-170q0 -23 13 -37t35 -14z" />
    <glyph glyph-name="uni0436.loclBGR" horiz-adv-x="582" 
d="M544 500q9 0 13.5 -5.5t0.5 -14.5l-78 -197q70 -44 70 -139v-126q0 -18 -18 -18h-81q-18 0 -18 18v133q0 23 -12.5 36t-34.5 13h-37v-182q0 -18 -18 -18h-80q-17 0 -17 18v182h-37q-22 0 -35 -13.5t-13 -35.5v-133q0 -18 -17 -18h-82q-17 0 -17 18v126q0 95 70 139
l-79 197q-4 9 1 14.5t14 5.5h85q15 0 21 -14l65 -175h24v372q0 17 17 17h80q18 0 18 -17v-372h23l66 175q4 14 20 14h86z" />
    <glyph glyph-name="uni0437.loclBGR" horiz-adv-x="381" 
d="M283 172q65 -42 65 -128v-68q0 -86 -44.5 -137t-122.5 -51q-167 0 -173 214q0 18 17 18h83q17 0 17 -15q3 -105 53 -105q53 0 53 71v85q0 64 -61 64h-42q-18 0 -18 17v72q0 17 18 17h36q55 0 55 56v67q0 51 -40 51q-39 0 -44 -47q0 -18 -17 -18h-84q-18 0 -16 18
q5 76 47.5 117.5t111.5 41.5q72 0 116 -47t44 -122v-68q0 -66 -54 -103z" />
    <glyph glyph-name="uni0438.loclBGR" horiz-adv-x="409" 
d="M194 -12q-70 0 -112.5 47t-42.5 123v325q0 17 17 17h83q17 0 17 -17v-332q0 -23 12 -37t34 -14q21 0 33 14t12 37v332q0 17 18 17h83q17 0 17 -17v-465q0 -18 -17 -18h-37q-15 0 -21 14l-5 19q-38 -45 -91 -45z" />
    <glyph glyph-name="uni0439.loclBGR" horiz-adv-x="409" 
d="M206 560q-50 0 -82.5 28t-38.5 75q-1 18 17 18h46q13 0 19 -16q8 -25 39 -25q29 0 39 25q6 16 18 16h46q19 0 17 -18q-6 -48 -38 -75.5t-82 -27.5zM194 -12q-70 0 -112.5 47t-42.5 123v325q0 17 17 17h83q17 0 17 -17v-332q0 -23 12 -37t34 -14q21 0 33 14t12 37v332
q0 17 18 17h83q17 0 17 -17v-465q0 -18 -17 -18h-37q-15 0 -21 14l-5 19q-38 -45 -91 -45z" />
    <glyph glyph-name="uni045D.loclBGR" horiz-adv-x="404" 
d="M103 682h70q12 0 21 -12l54 -90q6 -9 3 -15t-14 -6h-51q-14 0 -21 11l-72 91q-6 8 -3.5 14.5t13.5 6.5zM194 -12q-70 0 -112.5 47t-42.5 123v325q0 17 17 17h83q17 0 17 -17v-332q0 -23 12 -37t34 -14q21 0 33 14t12 37v332q0 17 18 17h83q17 0 17 -17v-465
q0 -18 -17 -18h-37q-15 0 -21 14l-5 19q-38 -45 -91 -45z" />
    <glyph glyph-name="uni043A.loclBGR" horiz-adv-x="400" 
d="M296 283q72 -43 72 -139v-126q0 -18 -17 -18h-84q-17 0 -17 18v133q0 22 -13 35.5t-35 13.5h-40v-182q0 -18 -18 -18h-82q-18 0 -18 18v665q0 17 18 17h82q18 0 18 -17v-372h26l68 175q4 14 20 14h85q10 0 14.5 -5.5t0.5 -14.5z" />
    <glyph glyph-name="uni043B.loclBGR" horiz-adv-x="395" 
d="M267 16l-70 376l-68 -376q-3 -16 -19 -16h-89q-18 0 -15 19l105 439q11 47 58 47h59q46 0 57 -47l104 -439q5 -19 -15 -19h-87q-17 0 -20 16z" />
    <glyph glyph-name="uni043F.loclBGR" horiz-adv-x="404" 
d="M56 0q-17 0 -17 18v325q0 75 45 122t118 47t118 -47t45 -122v-325q0 -18 -17 -18h-83q-18 0 -18 18v331q0 23 -12 37.5t-33 14.5t-33.5 -14t-12.5 -38v-331q0 -18 -17 -18h-83z" />
    <glyph glyph-name="uni0442.loclBGR" horiz-adv-x="596" 
d="M399 512q71 0 114.5 -47t43.5 -122v-325q0 -18 -17 -18h-81q-18 0 -18 18v331q0 51 -42 51q-43 0 -43 -51v-331q0 -18 -17 -18h-82q-17 0 -17 18v331q0 51 -43 51q-42 0 -42 -51v-331q0 -18 -18 -18h-81q-17 0 -17 18v325q0 75 43.5 122t114.5 47q60 0 101 -44
q41 44 101 44z" />
    <glyph glyph-name="uni0443.loclBGR" horiz-adv-x="411" 
d="M349 500q18 0 18 -17v-526q0 -79 -44 -124t-120 -45q-72 0 -115.5 44.5t-48.5 121.5q0 18 17 18h84q15 0 18 -18q5 -54 45 -54q22 0 34 13.5t12 37.5v90q-25 -23 -61 -23q-64 0 -106.5 47t-42.5 122v296q0 17 17 17h83q17 0 17 -17v-303q0 -23 12.5 -37t34.5 -14t34 14
t12 37v303q0 17 17 17h83z" />
    <glyph glyph-name="uni0444.loclBGR" horiz-adv-x="604" 
d="M415 512q70 0 113 -47t43 -122v-185q0 -76 -43 -123t-113 -47q-29 0 -54 17v-188q0 -17 -18 -17h-82q-17 0 -17 17v189q-24 -18 -55 -18q-70 0 -113 47t-43 123v185q0 75 43 122t113 47q30 0 55 -17v188q0 17 17 17h82q18 0 18 -17v-187q26 16 54 16zM197 100
q22 0 34.5 14t12.5 37v198q0 23 -12.5 37t-34.5 14q-21 0 -33 -13.5t-12 -37.5v-198q0 -24 12 -37.5t33 -13.5zM453 151v198q0 23 -12 37t-34 14q-21 0 -33.5 -14t-12.5 -37v-198q0 -23 12.5 -37t33.5 -14q22 0 34 14t12 37z" />
    <glyph glyph-name="uni0447.loclBGR" horiz-adv-x="397" 
d="M253 0q-18 0 -18 18v140q-26 -21 -63 -21q-65 0 -106 45t-41 124v177q0 17 18 17h82q18 0 18 -17v-184q0 -23 12 -37t34 -14q46 0 46 51v184q0 17 18 17h83q17 0 17 -17v-465q0 -18 -17 -18h-83z" />
    <glyph glyph-name="uni0446.loclBGR" horiz-adv-x="457" 
d="M344 -114q-18 0 -18 17v100q-18 5 -27 23q-40 -38 -96 -38q-73 0 -118.5 47t-45.5 123v325q0 17 17 17h83q19 0 17 -17v-332q0 -23 12.5 -37t34.5 -14q21 0 32.5 13.5t11.5 37.5v332q0 17 18 17h82q17 0 17 -17v-350q0 -23 12 -34.5t26.5 -13t26.5 -12t12 -33.5v-137
q0 -17 -18 -17h-79z" />
    <glyph glyph-name="uni0448.loclBGR" horiz-adv-x="605" 
d="M198 -12q-71 0 -115 47t-44 123v325q0 17 17 17h82q18 0 18 -17v-332q0 -51 42 -51q20 0 32 14t12 37v332q0 17 17 17h81q18 0 18 -17v-332q0 -24 11.5 -37.5t32.5 -13.5q19 0 30.5 14t11.5 37v332q0 17 17 17h82q16 0 18 -17v-465q1 -18 -17 -18h-35q-15 0 -21 14l-5 19
q-35 -45 -89 -45q-57 0 -96 42q-40 -42 -100 -42z" />
    <glyph glyph-name="uni0449.loclBGR" horiz-adv-x="653" 
d="M540 -114q-17 0 -17 17v100q-19 5 -28 23q-40 -38 -94 -38q-62 0 -101 44q-41 -44 -101 -44q-72 0 -116 47t-44 123v325q0 17 17 17h82q18 0 18 -17v-332q0 -23 11.5 -37t31.5 -14t31.5 14t11.5 37v332q0 17 17 17h81q18 0 18 -17v-332q0 -23 11.5 -37t31.5 -14t31.5 14
t11.5 37v332q0 17 17 17h82q18 0 18 -17v-350q0 -23 12 -34.5t26 -13t26 -12t12 -33.5v-137q0 -17 -17 -17h-80z" />
    <glyph glyph-name="uni044C.loclBGR" horiz-adv-x="388" 
d="M229 359q65 0 103 -46.5t38 -122.5v-32q0 -76 -45.5 -123t-120.5 -47q-74 0 -119.5 47t-45.5 123v325q0 7 5 12t12 5h83q7 0 12 -5t5 -12v-149q30 25 73 25zM252 151v46q0 23 -13 37t-35 14t-35 -14t-13 -37v-46q0 -23 13 -37t35 -14t35 14t13 37z" />
    <glyph glyph-name="uni044A.loclBGR" horiz-adv-x="441" 
d="M278 359q66 0 105.5 -46.5t39.5 -122.5v-32q0 -76 -45.5 -123t-120.5 -47q-74 0 -120 47t-46 123v234h-68q-18 0 -18 17v74q0 17 18 17h133q22 0 37.5 -15t15.5 -38v-112q27 24 69 24zM305 151v46q0 23 -13 37t-35 14t-35 -14t-13 -37v-46q0 -23 13 -37t35 -14t35 14
t13 37z" />
    <glyph glyph-name="uni044E.loclBGR" horiz-adv-x="570" 
d="M376 -12q-73 0 -117.5 47t-44.5 123v40h-54v-180q0 -18 -18 -18h-80q-18 0 -18 18v665q0 17 18 17h80q18 0 18 -17v-374h54v34q0 75 44.5 122t117.5 47q72 0 116.5 -47t44.5 -122v-185q0 -76 -44.5 -123t-116.5 -47zM376 100q21 0 33 14t12 37v198q0 23 -12 37t-33 14
t-33 -13.5t-12 -37.5v-198q0 -24 12 -37.5t33 -13.5z" />
    <glyph glyph-name="uni043B.ss01" horiz-adv-x="427" 
d="M227 512q74 0 117.5 -46.5t43.5 -122.5v-325q0 -18 -17 -18h-82q-18 0 -18 18v331q0 51 -44 51t-44 -51v-185q0 -76 -41.5 -121.5t-113.5 -46.5q-18 0 -18 18v76q0 18 18 18q38 2 38 51v184q0 76 44 122.5t117 46.5z" />
    <glyph glyph-name="emdash.case" horiz-adv-x="524" 
d="M12 390q0 18 17 18h465q18 0 18 -18v-66q0 -17 -18 -17h-465q-17 0 -17 17v66z" />
    <glyph glyph-name="endash.case" horiz-adv-x="389" 
d="M29 307q-17 0 -17 17v66q0 18 17 18h330q18 0 18 -18v-66q0 -17 -18 -17h-330z" />
    <glyph glyph-name="hyphen.case" horiz-adv-x="274" 
d="M29 307q-17 0 -17 17v66q0 18 17 18h215q18 0 18 -18v-66q0 -17 -18 -17h-215z" />
    <glyph glyph-name="guillemotleft.case" horiz-adv-x="478" 
d="M140 143q-14 0 -21 11l-95 126q-26 38 0 74l95 127q6 10 21 10h84q11 0 14 -6.5t-4 -14.5l-117 -153l117 -153q7 -8 4 -14.5t-14 -6.5h-84zM331 143q-14 0 -21 11l-95 126q-26 38 0 74l95 127q6 10 21 10h84q11 0 14 -6.5t-4 -14.5l-117 -153l117 -153q7 -8 4 -14.5
t-14 -6.5h-84z" />
    <glyph glyph-name="guillemotright.case" horiz-adv-x="478" 
d="M130 143h-84q-11 0 -14 6.5t4 14.5l117 153l-117 153q-7 8 -4 14.5t14 6.5h84q15 0 21 -10l95 -127q26 -36 0 -74l-95 -126q-7 -11 -21 -11zM321 143h-84q-11 0 -14 6.5t4 14.5l117 153l-117 153q-7 8 -4 14.5t14 6.5h84q15 0 21 -10l95 -127q26 -36 0 -74l-95 -126
q-7 -11 -21 -11z" />
    <glyph glyph-name="guilsinglleft.case" horiz-adv-x="265" 
d="M146 143q-14 0 -21 11l-95 126q-26 38 0 74l95 127q6 10 21 10h84q11 0 14 -6.5t-4 -14.5l-117 -153l117 -153q7 -8 4 -14.5t-14 -6.5h-84z" />
    <glyph glyph-name="guilsinglright.case" horiz-adv-x="289" 
d="M123 143h-84q-11 0 -14 6.5t4 14.5l117 153l-117 153q-7 8 -4 14.5t14 6.5h84q15 0 21 -10l95 -127q26 -36 0 -74l-95 -126q-7 -11 -21 -11z" />
    <glyph glyph-name="uni0308.case" 
d="M-190 771q-24 0 -38 14.5t-14 37.5t14 37.5t38 14.5q23 0 37 -14.5t14 -37.5t-14 -37.5t-37 -14.5zM-52 771q-23 0 -37.5 14.5t-14.5 37.5t14.5 37.5t37.5 14.5t37.5 -14.5t14.5 -37.5t-14.5 -37.5t-37.5 -14.5z" />
    <glyph glyph-name="uni0307.case" 
d="M-67 767q-29 0 -47.5 19t-18.5 47q0 29 18.5 47.5t47.5 18.5q28 0 47 -19t19 -47q0 -27 -19.5 -46.5t-46.5 -19.5z" />
    <glyph glyph-name="gravecomb.case" 
d="M-17 769h-50q-13 0 -22 10l-77 90q-7 8 -4.5 15t13.5 7h70q14 0 21 -11l61 -90q6 -8 2.5 -14.5t-14.5 -6.5z" />
    <glyph glyph-name="acutecomb.case" 
d="M-156 769q-11 0 -14.5 6.5t2.5 14.5l61 90q7 11 21 11h70q11 0 13.5 -7t-4.5 -15l-77 -90q-9 -10 -22 -10h-50z" />
    <glyph glyph-name="uni030B.case" 
d="M-300 769q-11 0 -14.5 6.5t3.5 14.5l60 90q8 11 22 11h69q11 0 14 -7t-5 -15l-77 -90q-9 -10 -22 -10h-50zM-155 769q-10 0 -13.5 6.5t2.5 14.5l60 90q8 11 22 11h69q11 0 14 -7t-5 -15l-77 -90q-9 -10 -22 -10h-50z" />
    <glyph glyph-name="uni0302.case" 
d="M-5 790q6 -8 2.5 -14.5t-13.5 -6.5h-49q-14 0 -21 10l-40 49l-41 -49q-9 -10 -21 -10h-49q-11 0 -14.5 6.5t3.5 14.5l62 90q8 11 22 11h75q13 0 22 -11z" />
    <glyph glyph-name="uni030C.case" 
d="M-6 870l-62 -90q-9 -11 -22 -11h-75q-14 0 -22 11l-62 90q-7 8 -3.5 14.5t14.5 6.5h49q12 0 21 -10l41 -49l40 49q7 10 21 10h49q10 0 13.5 -6.5t-2.5 -14.5z" />
    <glyph glyph-name="uni0306.case" 
d="M-122 767q-50 0 -82.5 28t-38.5 75q-2 19 18 19h45q13 0 19 -16q8 -25 39 -25t39 25q6 16 18 16h46q18 0 18 -19q-6 -47 -38.5 -75t-82.5 -28z" />
    <glyph glyph-name="uni030A.case" 
d="M-163 830q0 35 22 56.5t59 21.5t59.5 -21.5t22.5 -56.5q0 -36 -22.5 -58t-59.5 -22t-59 22t-22 58zM-106 829q0 -24 24 -24q25 0 25 24q0 25 -25 25q-24 0 -24 -25z" />
    <glyph glyph-name="tildecomb.case" 
d="M-159 795q-10 0 -14 -10q-7 -15 -19 -15h-37q-19 0 -17 18q2 26 22 51.5t57 25.5q23 0 47.5 -13.5t30.5 -13.5q10 0 15 10q7 16 18 16h37q18 0 17 -19q-2 -28 -23 -52t-56 -24q-21 0 -46 13t-32 13z" />
    <glyph glyph-name="uni0304.case" 
d="M-186 840q0 17 18 17h149q17 0 17 -17v-38q0 -18 -17 -18h-149q-18 0 -18 18v38z" />
    <glyph glyph-name="uni0312.case" 
d="M-121 774l-10 190q0 18 18 18h40q16 0 19 -16l37 -189q3 -19 -16 -19h-70q-16 0 -18 16z" />
    <glyph glyph-name="uni0326.case" 
d="M-111 -70q2 16 18 16h70q19 0 16 -19l-37 -189q-3 -16 -19 -16h-40q-18 0 -18 18z" />
    <glyph glyph-name="uni0327.case" 
d="M-99 -209q-38 0 -63.5 20t-30.5 55q-2 8 2.5 13t13.5 5h27q10 0 19 -14q8 -17 32 -17q15 0 24.5 7.5t9.5 20.5q0 12 -9.5 19.5t-24.5 7.5q-19 0 -35 -3q-6 -2 -11 3l-5 4q-4 4 -3 11l15 77h69l-8 -44h5q31 -2 51.5 -23t20.5 -52q0 -42 -28 -66t-71 -24z" />
    <glyph glyph-name="uni0328.case" 
d="M-17 -190q0 -17 -17 -17q-8 -1 -23 -1q-70 0 -103 21t-33 69q0 62 51 118h108q-52 -41 -52 -83q0 -36 43 -36h8q18 0 18 -17v-54z" />
    <glyph glyph-name="uni0337.case" 
d="M-275 -45q-20 0 -15 19l155 556q3 15 20 15h99q20 0 15 -19l-155 -556q-3 -15 -20 -15h-99z" />
    <glyph glyph-name="uni0338.case" 
d="M-515 -45q-20 0 -15 19l211 756q3 15 20 15h99q20 0 15 -19l-211 -756q-3 -15 -20 -15h-99z" />
    <glyph glyph-name="brevecombcy" 
d="M-122 560q-50 0 -82.5 28t-38.5 75q-1 18 17 18h46q13 0 19 -16q8 -25 39 -25q29 0 39 25q6 16 18 16h46q19 0 17 -18q-6 -48 -38 -75.5t-82 -27.5z" />
    <glyph glyph-name="brevecombcy.case" 
d="M-122 767q-50 0 -82.5 28t-38.5 75q-2 19 18 19h45q13 0 19 -16q8 -25 39 -25t39 25q6 16 18 16h46q18 0 18 -19q-6 -47 -38.5 -75t-82.5 -28z" />
    </font>
</defs>
</svg>
